<svg width="36" height="47" viewBox="0 0 36 47" fill="none" xmlns="http://www.w3.org/2000/svg">
<path d="M0 4C0 1.79086 1.79086 0 4 0H36V47H4C1.79086 47 0 45.2091 0 43V4Z" fill="#41536B"/>
<g clip-path="url(#clip0)">
<path d="M23 24C23.0003 24.2181 22.954 24.4337 22.8644 24.6325C22.7747 24.8312 22.6437 25.0086 22.48 25.1527L15.0453 31.6934C14.799 31.9001 14.4815 32.0022 14.1608 31.9779C13.8401 31.9536 13.5417 31.8048 13.3293 31.5633C13.1169 31.3218 13.0074 31.0068 13.0242 30.6857C13.041 30.3645 13.1829 30.0627 13.4193 29.8447L19.9207 24.1254C19.9385 24.1097 19.9528 24.0904 19.9626 24.0688C19.9724 24.0472 19.9775 24.0238 19.9775 24C19.9775 23.9763 19.9724 23.9528 19.9626 23.9312C19.9528 23.9096 19.9385 23.8903 19.9207 23.8747L13.4193 18.1554C13.2936 18.0499 13.1903 17.9203 13.1153 17.7743C13.0404 17.6283 12.9954 17.4688 12.983 17.3051C12.9706 17.1415 12.991 16.977 13.0431 16.8214C13.0952 16.6658 13.1779 16.5221 13.2862 16.3989C13.3946 16.2757 13.5266 16.1753 13.6743 16.1038C13.822 16.0323 13.9825 15.9911 14.1464 15.9825C14.3103 15.9739 14.4742 15.9981 14.6286 16.0538C14.783 16.1095 14.9247 16.1955 15.0453 16.3067L22.4773 22.8454C22.6414 22.9897 22.7728 23.1673 22.863 23.3664C22.9531 23.5655 22.9998 23.7815 23 24Z" fill="white"/>
</g>
<defs>
<clipPath id="clip0">
<rect width="16" height="16" fill="white" transform="translate(10 32) rotate(-90)"/>
</clipPath>
</defs>
</svg>
