<svg width="20" height="16" viewBox="0 0 20 16" fill="none" xmlns="http://www.w3.org/2000/svg">
<path d="M18.8042 0.336562C18.6244 0.202052 18.4203 0.104819 18.2035 0.0504184C17.9867 -0.00398211 17.7615 -0.0144833 17.5407 0.0195149C17.3199 0.0535131 17.1078 0.131344 16.9167 0.24856C16.7255 0.365777 16.559 0.520081 16.4266 0.702654L8.36447 11.8097L3.23785 7.64597C2.88437 7.3711 2.43888 7.24775 1.99687 7.30235C1.55485 7.35695 1.1515 7.58516 0.87328 7.93805C0.595056 8.29095 0.4641 8.74045 0.508484 9.19019C0.552869 9.63994 0.769062 10.0541 1.11072 10.344L7.62004 15.6295C7.79992 15.7723 8.00603 15.8773 8.22633 15.9384C8.44663 15.9995 8.67671 16.0153 8.90313 15.9851C9.12954 15.9549 9.34775 15.8792 9.54502 15.7624C9.74228 15.6456 9.91464 15.4901 10.052 15.3049L19.1702 2.75139C19.3025 2.56846 19.398 2.36088 19.4511 2.14049C19.5043 1.9201 19.5142 1.69123 19.4802 1.46696C19.4462 1.24269 19.369 1.02743 19.253 0.833468C19.137 0.639507 18.9845 0.470654 18.8042 0.336562Z" fill="#00A878"/>
</svg>
