<svg width="64" height="64" viewBox="0 0 64 64" fill="none" xmlns="http://www.w3.org/2000/svg">
<path fill-rule="evenodd" clip-rule="evenodd" d="M32 64C49.6731 64 64 49.6731 64 32C64 14.3269 49.6731 0 32 0C14.3269 0 0 14.3269 0 32C0 49.6731 14.3269 64 32 64Z" fill="#ECF5FB"/>
<path d="M19.5555 52.6222H44.8" stroke="#B5D9F1" stroke-width="0.711111" stroke-linecap="round" stroke-linejoin="round"/>
<g filter="url(#filter0_i)">
<path fill-rule="evenodd" clip-rule="evenodd" d="M24.5334 28.113C19.8656 30.7302 16.7111 35.7256 16.7111 41.4578C16.7111 49.9016 47.2889 49.9016 47.2889 41.4578C47.2889 35.7256 44.1343 30.7302 39.4665 28.113L41.7371 24.7781C42.2192 24.0699 41.7121 23.1111 40.8554 23.1111H23.1446C22.2879 23.1111 21.7807 24.0699 22.2628 24.7781L24.5334 28.113Z" fill="white"/>
</g>
<path d="M24.5334 28.113L24.8273 27.9129L25.0456 28.2334L24.7073 28.4231L24.5334 28.113ZM39.4665 28.113L39.2927 28.4231L38.9544 28.2334L39.1726 27.9129L39.4665 28.113ZM41.7371 24.7781L41.4432 24.578L41.7371 24.7781ZM22.2628 24.7781L21.9689 24.9782V24.9782L22.2628 24.7781ZM31.1569 47.4265C31.3532 47.4305 31.5091 47.5929 31.5051 47.7892C31.5011 47.9856 31.3387 48.1414 31.1423 48.1374L31.1569 47.4265ZM32.143 48.146C31.9466 48.1466 31.7869 47.988 31.7862 47.7916C31.7856 47.5953 31.9442 47.4355 32.1406 47.4349L32.143 48.146ZM32.2811 47.4341C32.4775 47.4328 32.6378 47.5909 32.6391 47.7873C32.6404 47.9836 32.4824 48.1439 32.286 48.1452L32.2811 47.4341ZM32.8576 48.1374C32.6613 48.1414 32.4989 47.9856 32.4949 47.7892C32.4908 47.5929 32.6467 47.4305 32.8431 47.4265L32.8576 48.1374ZM45.0715 34.2311C44.9763 34.0593 45.0384 33.8429 45.2101 33.7478C45.3819 33.6526 45.5983 33.7147 45.6935 33.8864L45.0715 34.2311ZM45.4641 33.4865C45.5643 33.6554 45.5086 33.8735 45.3397 33.9737C45.1709 34.0739 44.9527 34.0182 44.8525 33.8494L45.4641 33.4865ZM44.8204 33.7954C44.7195 33.6269 44.7742 33.4086 44.9427 33.3077C45.1111 33.2068 45.3295 33.2615 45.4304 33.43L44.8204 33.7954ZM45.2931 33.2051C45.3968 33.3718 45.3457 33.5911 45.179 33.6948C45.0123 33.7985 44.793 33.7474 44.6893 33.5807L45.2931 33.2051ZM40.2539 26.3248C40.3644 26.1625 40.5856 26.1205 40.7479 26.231C40.9102 26.3415 40.9522 26.5627 40.8417 26.725L40.2539 26.3248ZM40.9047 26.6324C40.7942 26.7947 40.5731 26.8367 40.4107 26.7262C40.2484 26.6157 40.2064 26.3945 40.3169 26.2322L40.9047 26.6324ZM40.326 26.2189C40.4365 26.0566 40.6576 26.0146 40.82 26.1251C40.9823 26.2357 41.0243 26.4568 40.9138 26.6191L40.326 26.2189ZM40.9498 26.5662C40.8393 26.7285 40.6181 26.7705 40.4558 26.66C40.2935 26.5495 40.2515 26.3283 40.362 26.166L40.9498 26.5662ZM41.5006 23.8786C41.4176 23.7006 41.4947 23.489 41.6727 23.4061C41.8507 23.3232 42.0622 23.4002 42.1451 23.5782L41.5006 23.8786ZM42.1069 23.502C42.2001 23.6749 42.1357 23.8905 41.9629 23.9838C41.7901 24.0771 41.5744 24.0126 41.4811 23.8398L42.1069 23.502ZM41.4781 23.8344C41.3834 23.6623 41.4461 23.4461 41.6181 23.3514C41.7901 23.2567 42.0063 23.3193 42.101 23.4914L41.4781 23.8344ZM42.0768 23.4491C42.1773 23.6178 42.1219 23.836 41.9532 23.9365C41.7845 24.0369 41.5663 23.9816 41.4658 23.8129L42.0768 23.4491ZM32.4217 23.4666C32.2253 23.4666 32.0661 23.3075 32.0661 23.1111C32.0661 22.9147 32.2253 22.7555 32.4217 22.7555V23.4666ZM31.9297 22.7555C32.1261 22.7555 32.2853 22.9147 32.2853 23.1111C32.2853 23.3075 32.1261 23.4666 31.9297 23.4666V22.7555ZM31.8594 23.4666C31.6631 23.4666 31.5039 23.3075 31.5039 23.1111C31.5039 22.9147 31.6631 22.7555 31.8594 22.7555V23.4666ZM31.5783 22.7555C31.7747 22.7555 31.9339 22.9147 31.9339 23.1111C31.9339 23.3075 31.7747 23.4666 31.5783 23.4666V22.7555ZM22.5342 23.8129C22.4337 23.9816 22.2155 24.0369 22.0468 23.9365C21.878 23.836 21.8227 23.6178 21.9231 23.4491L22.5342 23.8129ZM21.8817 23.5236C21.9721 23.3492 22.1866 23.2811 22.361 23.3715C22.5353 23.4618 22.6034 23.6764 22.5131 23.8508L21.8817 23.5236ZM22.5103 23.8563C22.4214 24.0314 22.2074 24.1013 22.0323 24.0124C21.8572 23.9235 21.7873 23.7095 21.8762 23.5344L22.5103 23.8563ZM21.8548 23.5782C21.9378 23.4002 22.1493 23.3232 22.3273 23.4061C22.5053 23.489 22.5823 23.7006 22.4994 23.8786L21.8548 23.5782ZM23.638 26.166C23.7485 26.3283 23.7065 26.5495 23.5442 26.66C23.3819 26.7705 23.1607 26.7285 23.0502 26.5662L23.638 26.166ZM23.1132 26.6589C23.0027 26.4965 23.0447 26.2754 23.207 26.1648C23.3694 26.0543 23.5905 26.0963 23.701 26.2586L23.1132 26.6589ZM23.7101 26.2719C23.8206 26.4342 23.7786 26.6554 23.6163 26.7659C23.4539 26.8764 23.2328 26.8344 23.1223 26.6721L23.7101 26.2719ZM23.1583 26.725C23.0478 26.5627 23.0898 26.3415 23.2521 26.231C23.4144 26.1205 23.6356 26.1625 23.7461 26.3248L23.1583 26.725ZM19.3107 33.5807C19.207 33.7475 18.9877 33.7985 18.821 33.6948C18.6542 33.5911 18.6032 33.3718 18.7069 33.2051L19.3107 33.5807ZM18.4692 33.6C18.5679 33.4303 18.7856 33.3728 18.9553 33.4716C19.125 33.5703 19.1826 33.788 19.0838 33.9577L18.4692 33.6ZM19.0523 34.0121C18.9542 34.1822 18.7368 34.2407 18.5667 34.1426C18.3965 34.0446 18.3381 33.8272 18.4362 33.657L19.0523 34.0121ZM18.3065 33.8865C18.4017 33.7147 18.6181 33.6526 18.7898 33.7478C18.9616 33.8429 19.0237 34.0593 18.9285 34.2311L18.3065 33.8865ZM17.0667 41.4578C17.0667 43.2502 18.6329 44.7106 21.3035 45.7567C23.9422 46.7903 27.5066 47.3516 31.1569 47.4265L31.1423 48.1374C27.4419 48.0615 23.7871 47.4933 21.0442 46.4189C18.3332 45.3569 16.3555 43.7306 16.3555 41.4578H17.0667ZM32.1406 47.4349C32.1874 47.4347 32.2343 47.4345 32.2811 47.4341L32.286 48.1452C32.2383 48.1456 32.1907 48.1458 32.143 48.146L32.1406 47.4349ZM32.8431 47.4265C36.4934 47.3516 40.0578 46.7903 42.6965 45.7567C45.3671 44.7106 46.9333 43.2502 46.9333 41.4578H47.6444C47.6444 43.7306 45.6667 45.3569 42.9558 46.4189C40.2129 47.4933 36.558 48.0615 32.8576 48.1374L32.8431 47.4265ZM46.9333 41.4578C46.9333 38.8355 46.2578 36.3722 45.0715 34.2311L45.6935 33.8864C46.9367 36.1303 47.6444 38.7119 47.6444 41.4578H46.9333ZM44.8525 33.8494C44.8418 33.8314 44.8311 33.8134 44.8204 33.7954L45.4304 33.43C45.4417 33.4488 45.4529 33.4677 45.4641 33.4865L44.8525 33.8494ZM44.6893 33.5807C43.357 31.4391 41.4975 29.6594 39.2927 28.4231L39.6404 27.8028C41.9502 29.0979 43.8976 30.9619 45.2931 33.2051L44.6893 33.5807ZM39.1726 27.9129L40.2539 26.3248L40.8417 26.725L39.7605 28.3131L39.1726 27.9129ZM40.3169 26.2322L40.326 26.2189L40.9138 26.6191L40.9047 26.6324L40.3169 26.2322ZM40.362 26.166L41.4432 24.578L42.031 24.9782L40.9498 26.5662L40.362 26.166ZM41.4432 24.578C41.5965 24.3528 41.6008 24.0937 41.5006 23.8786L42.1451 23.5782C42.343 24.003 42.336 24.5302 42.031 24.9782L41.4432 24.578ZM41.4811 23.8398C41.4801 23.838 41.4791 23.8362 41.4781 23.8344L42.101 23.4914C42.103 23.4949 42.1049 23.4985 42.1069 23.502L41.4811 23.8398ZM41.4658 23.8129C41.3444 23.6089 41.1278 23.4666 40.8554 23.4666V22.7555C41.3973 22.7555 41.8371 23.0465 42.0768 23.4491L41.4658 23.8129ZM40.8554 23.4666H32.4217V22.7555H40.8554V23.4666ZM31.9297 23.4666H31.8594V22.7555H31.9297V23.4666ZM31.5783 23.4666H23.1446V22.7555H31.5783V23.4666ZM23.1446 23.4666C22.8722 23.4666 22.6556 23.6089 22.5342 23.8129L21.9231 23.4491C22.1628 23.0465 22.6026 22.7555 23.1446 22.7555V23.4666ZM22.5131 23.8508C22.5121 23.8526 22.5112 23.8544 22.5103 23.8563L21.8762 23.5344C21.878 23.5308 21.8798 23.5272 21.8817 23.5236L22.5131 23.8508ZM22.4994 23.8786C22.3991 24.0937 22.4035 24.3528 22.5567 24.578L21.9689 24.9782C21.664 24.5302 21.6569 24.003 21.8548 23.5782L22.4994 23.8786ZM22.5567 24.578L23.638 26.166L23.0502 26.5662L21.9689 24.9782L22.5567 24.578ZM23.701 26.2586L23.7101 26.2719L23.1223 26.6721L23.1132 26.6589L23.701 26.2586ZM23.7461 26.3248L24.8273 27.9129L24.2395 28.3131L23.1583 26.725L23.7461 26.3248ZM24.7073 28.4231C22.5024 29.6594 20.643 31.4391 19.3107 33.5807L18.7069 33.2051C20.1024 30.9619 22.0498 29.0979 24.3595 27.8028L24.7073 28.4231ZM19.0838 33.9577C19.0732 33.9758 19.0627 33.994 19.0523 34.0121L18.4362 33.657C18.4471 33.638 18.4581 33.619 18.4692 33.6L19.0838 33.9577ZM18.9285 34.2311C17.7422 36.3722 17.0667 38.8356 17.0667 41.4578H16.3555C16.3555 38.7119 17.0633 36.1303 18.3065 33.8865L18.9285 34.2311Z" fill="#264887"/>
<g filter="url(#filter1_i)">
<path fill-rule="evenodd" clip-rule="evenodd" d="M32 32C36.7128 32 40.5333 28.1795 40.5333 23.4667C40.5333 18.7539 36.7128 14.9333 32 14.9333C27.2872 14.9333 23.4667 18.7539 23.4667 23.4667C23.4667 28.1795 27.2872 32 32 32Z" fill="#B5D9F1"/>
</g>
<path d="M40.1778 23.4667C40.1778 27.9831 36.5165 31.6445 32 31.6445C27.4835 31.6445 23.8222 27.9831 23.8222 23.4667C23.8222 18.9502 27.4835 15.2889 32 15.2889C36.5165 15.2889 40.1778 18.9502 40.1778 23.4667Z" stroke="#264887" stroke-width="0.711111"/>
<g filter="url(#filter2_di)">
<mask id="path-7-inside-1" fill="white">
<path fill-rule="evenodd" clip-rule="evenodd" d="M36.6279 26.948L32 43.3778L43.8138 29.4966C44.3644 28.8497 43.9747 27.8501 43.1315 27.7465L40.4778 27.4207L42.4008 24.5225C42.8392 23.8618 42.429 22.9707 41.642 22.8741L34.8852 22.0444L36.6279 26.948Z"/>
</mask>
<path fill-rule="evenodd" clip-rule="evenodd" d="M36.6279 26.948L32 43.3778L43.8138 29.4966C44.3644 28.8497 43.9747 27.8501 43.1315 27.7465L40.4778 27.4207L42.4008 24.5225C42.8392 23.8618 42.429 22.9707 41.642 22.8741L34.8852 22.0444L36.6279 26.948Z" fill="white"/>
<path d="M32 43.3778L31.3155 43.185L32.5415 43.8387L32 43.3778ZM36.6279 26.948L37.3124 27.1408L37.3737 26.923L37.2979 26.7099L36.6279 26.948ZM43.8138 29.4966L44.3554 29.9575L44.3554 29.9575L43.8138 29.4966ZM43.1315 27.7465L43.0448 28.4524L43.1315 27.7465ZM40.4778 27.4207L39.8853 27.0276L39.2491 27.9863L40.3912 28.1265L40.4778 27.4207ZM42.4008 24.5225L42.9934 24.9157L42.4008 24.5225ZM41.642 22.8741L41.7287 22.1683L41.642 22.8741ZM34.8852 22.0444L34.9718 21.3386L33.8298 21.1984L34.2151 22.2826L34.8852 22.0444ZM32.6845 43.5706L37.3124 27.1408L35.9434 26.7552L31.3155 43.185L32.6845 43.5706ZM43.2723 29.0357L31.4585 42.9169L32.5415 43.8387L44.3554 29.9575L43.2723 29.0357ZM43.0448 28.4524C43.3259 28.4869 43.4558 28.8201 43.2723 29.0357L44.3554 29.9575C45.273 28.8793 44.6234 27.2133 43.2182 27.0407L43.0448 28.4524ZM40.3912 28.1265L43.0448 28.4524L43.2182 27.0407L40.5645 26.7149L40.3912 28.1265ZM41.8083 24.1294L39.8853 27.0276L41.0704 27.8139L42.9934 24.9157L41.8083 24.1294ZM41.5553 23.5799C41.8177 23.6121 41.9544 23.9091 41.8083 24.1294L42.9934 24.9157C43.724 23.8145 43.0404 22.3293 41.7287 22.1683L41.5553 23.5799ZM34.7985 22.7503L41.5553 23.5799L41.7287 22.1683L34.9718 21.3386L34.7985 22.7503ZM37.2979 26.7099L35.5552 21.8063L34.2151 22.2826L35.9578 27.1861L37.2979 26.7099Z" fill="#264887" mask="url(#path-7-inside-1)"/>
</g>
<mask id="path-9-inside-2" fill="white">
<path fill-rule="evenodd" clip-rule="evenodd" d="M27.1705 26.9481L32 43.3778L20.0077 29.5005C19.4498 28.855 19.8379 27.8483 20.6847 27.7444L23.3205 27.4207L21.3975 24.5226C20.9591 23.8619 21.3693 22.9708 22.1563 22.8742L28.9131 22.0446L27.1705 26.9481Z"/>
</mask>
<g filter="url(#filter3_i)">
<path fill-rule="evenodd" clip-rule="evenodd" d="M27.1705 26.9481L32 43.3778L20.0077 29.5005C19.4498 28.855 19.8379 27.8483 20.6847 27.7444L23.3205 27.4207L21.3975 24.5226C20.9591 23.8619 21.3693 22.9708 22.1563 22.8742L28.9131 22.0446L27.1705 26.9481Z" fill="white"/>
</g>
<path d="M32 43.3778L32.6822 43.1773L31.4619 43.8428L32 43.3778ZM27.1705 26.9481L26.4882 27.1486L26.4231 26.9273L26.5004 26.7099L27.1705 26.9481ZM20.0077 29.5005L20.5457 29.0356L20.0077 29.5005ZM20.6847 27.7444L20.7714 28.4502L20.6847 27.7444ZM23.3205 27.4207L23.913 27.0276L24.5491 27.9863L23.4071 28.1266L23.3205 27.4207ZM21.3975 24.5226L20.805 24.9158L21.3975 24.5226ZM28.9131 22.0446L28.8265 21.3387L29.9685 21.1985L29.5832 22.2827L28.9131 22.0446ZM31.3177 43.5784L26.4882 27.1486L27.8527 26.7475L32.6822 43.1773L31.3177 43.5784ZM20.5457 29.0356L32.538 42.9128L31.4619 43.8428L19.4696 29.9655L20.5457 29.0356ZM20.7714 28.4502C20.4891 28.4848 20.3598 28.8204 20.5457 29.0356L19.4696 29.9655C18.5399 28.8896 19.1868 27.2118 20.5981 27.0386L20.7714 28.4502ZM23.4071 28.1266L20.7714 28.4502L20.5981 27.0386L23.2338 26.7149L23.4071 28.1266ZM21.99 24.1295L23.913 27.0276L22.7279 27.8139L20.805 24.9158L21.99 24.1295ZM22.243 23.58C21.9806 23.6122 21.8439 23.9092 21.99 24.1295L20.805 24.9158C20.0743 23.8146 20.7579 22.3294 22.0697 22.1684L22.243 23.58ZM28.9998 22.7504L22.243 23.58L22.0697 22.1684L28.8265 21.3387L28.9998 22.7504ZM26.5004 26.7099L28.2431 21.8064L29.5832 22.2827L27.8405 27.1862L26.5004 26.7099Z" fill="#264887" mask="url(#path-9-inside-2)"/>
<mask id="path-11-inside-3" fill="white">
<path fill-rule="evenodd" clip-rule="evenodd" d="M36.4318 26.9287C38.697 26.9287 40.5333 25.119 40.5333 22.8866C40.5333 20.6542 38.697 18.8445 36.4318 18.8445C34.7788 18.8445 33.3542 19.8081 32.7049 21.1964H31.2951C30.6458 19.8081 29.2212 18.8445 27.5683 18.8445C25.303 18.8445 23.4667 20.6542 23.4667 22.8866C23.4667 25.119 25.303 26.9287 27.5683 26.9287C29.4816 26.9287 31.089 25.6376 31.5422 23.8911H32.4578C32.9111 25.6376 34.5184 26.9287 36.4318 26.9287Z"/>
</mask>
<path fill-rule="evenodd" clip-rule="evenodd" d="M36.4318 26.9287C38.697 26.9287 40.5333 25.119 40.5333 22.8866C40.5333 20.6542 38.697 18.8445 36.4318 18.8445C34.7788 18.8445 33.3542 19.8081 32.7049 21.1964H31.2951C30.6458 19.8081 29.2212 18.8445 27.5683 18.8445C25.303 18.8445 23.4667 20.6542 23.4667 22.8866C23.4667 25.119 25.303 26.9287 27.5683 26.9287C29.4816 26.9287 31.089 25.6376 31.5422 23.8911H32.4578C32.9111 25.6376 34.5184 26.9287 36.4318 26.9287Z" fill="#D32D27"/>
<path d="M32.7049 21.1964V21.9075H33.1573L33.349 21.4977L32.7049 21.1964ZM31.2951 21.1964L30.651 21.4977L30.8427 21.9075H31.2951V21.1964ZM31.5422 23.8911V23.18H30.992L30.8539 23.7125L31.5422 23.8911ZM32.4578 23.8911L33.1462 23.7125L33.008 23.18H32.4578V23.8911ZM39.8222 22.8866C39.8222 24.7165 38.3141 26.2176 36.4318 26.2176V27.6398C39.0799 27.6398 41.2445 25.5215 41.2445 22.8866H39.8222ZM36.4318 19.5556C38.3141 19.5556 39.8222 21.0567 39.8222 22.8866H41.2445C41.2445 20.2517 39.0799 18.1334 36.4318 18.1334V19.5556ZM33.349 21.4977C33.8839 20.3541 35.0607 19.5556 36.4318 19.5556V18.1334C34.4969 18.1334 32.8246 19.2621 32.0608 20.8951L33.349 21.4977ZM31.2951 21.9075H32.7049V20.4853H31.2951V21.9075ZM27.5683 19.5556C28.9393 19.5556 30.1161 20.3541 30.651 21.4977L31.9392 20.8951C31.1754 19.2621 29.5031 18.1334 27.5683 18.1334V19.5556ZM24.1778 22.8866C24.1778 21.0567 25.6859 19.5556 27.5683 19.5556V18.1334C24.9201 18.1334 22.7556 20.2517 22.7556 22.8866H24.1778ZM27.5683 26.2176C25.6859 26.2176 24.1778 24.7165 24.1778 22.8866H22.7556C22.7556 25.5215 24.9201 27.6398 27.5683 27.6398V26.2176ZM30.8539 23.7125C30.4817 25.1468 29.1562 26.2176 27.5683 26.2176V27.6398C29.807 27.6398 31.6963 26.1283 32.2305 24.0697L30.8539 23.7125ZM32.4578 23.18H31.5422V24.6022H32.4578V23.18ZM36.4318 26.2176C34.8438 26.2176 33.5184 25.1468 33.1462 23.7125L31.7695 24.0697C32.3037 26.1283 34.193 27.6398 36.4318 27.6398V26.2176Z" fill="#264887" mask="url(#path-11-inside-3)"/>
<mask id="path-13-inside-4" fill="white">
<path fill-rule="evenodd" clip-rule="evenodd" d="M26.5617 9.87722C27.4701 7.38207 30.999 7.38207 31.9074 9.87722L32 10.1316L32.0926 9.87722C33.001 7.38207 36.5298 7.38207 37.4382 9.87722L39.7032 16.0985C42.5909 16.7497 44.4444 17.7586 44.4444 18.8912C44.4444 20.8549 38.8729 22.4468 32 22.4468C25.1271 22.4468 19.5555 20.8549 19.5555 18.8912C19.5555 17.7586 21.4091 16.7497 24.2968 16.0985L26.5617 9.87722Z"/>
</mask>
<g filter="url(#filter4_i)">
<path fill-rule="evenodd" clip-rule="evenodd" d="M26.5617 9.87722C27.4701 7.38207 30.999 7.38207 31.9074 9.87722L32 10.1316L32.0926 9.87722C33.001 7.38207 36.5298 7.38207 37.4382 9.87722L39.7032 16.0985C42.5909 16.7497 44.4444 17.7586 44.4444 18.8912C44.4444 20.8549 38.8729 22.4468 32 22.4468C25.1271 22.4468 19.5555 20.8549 19.5555 18.8912C19.5555 17.7586 21.4091 16.7497 24.2968 16.0985L26.5617 9.87722Z" fill="white"/>
</g>
<path d="M31.9074 9.87722L31.2392 10.1205L31.9074 9.87722ZM26.5617 9.87722L25.8935 9.63395L26.5617 9.87722ZM32 10.1316L31.3318 10.3749L32 12.2103L32.6682 10.3749L32 10.1316ZM32.0926 9.87722L31.4244 9.63395V9.63395L32.0926 9.87722ZM37.4382 9.87722L38.1065 9.63395V9.63395L37.4382 9.87722ZM39.7032 16.0985L39.035 16.3418L39.1679 16.7068L39.5468 16.7922L39.7032 16.0985ZM24.2968 16.0985L24.4532 16.7922L24.8321 16.7068L24.965 16.3418L24.2968 16.0985ZM32.5756 9.63395C31.4401 6.51501 27.029 6.51502 25.8935 9.63395L27.2299 10.1205C27.9112 8.24913 30.5579 8.24913 31.2392 10.1205L32.5756 9.63395ZM32.6682 9.88835L32.5756 9.63395L31.2392 10.1205L31.3318 10.3749L32.6682 9.88835ZM32.6682 10.3749L32.7608 10.1205L31.4244 9.63395L31.3318 9.88835L32.6682 10.3749ZM32.7608 10.1205C33.4421 8.24913 36.0887 8.24913 36.77 10.1205L38.1065 9.63395C36.971 6.51501 32.5599 6.51502 31.4244 9.63395L32.7608 10.1205ZM36.77 10.1205L39.035 16.3418L40.3714 15.8553L38.1065 9.63395L36.77 10.1205ZM45.1555 18.8912C45.1555 17.9141 44.3744 17.1954 43.5118 16.6982C42.6003 16.1727 41.3375 15.7381 39.8596 15.4048L39.5468 16.7922C40.9566 17.1101 42.0644 17.5055 42.8016 17.9304C43.5877 18.3836 43.7333 18.7357 43.7333 18.8912H45.1555ZM32 23.1579C35.4832 23.1579 38.6631 22.7553 40.9949 22.0891C42.1559 21.7574 43.1472 21.349 43.8645 20.8644C44.5571 20.3966 45.1555 19.743 45.1555 18.8912H43.7333C43.7333 19.0212 43.6354 19.303 43.0684 19.6859C42.5263 20.0521 41.6951 20.4099 40.6042 20.7216C38.4319 21.3422 35.3897 21.7356 32 21.7356V23.1579ZM18.8444 18.8912C18.8444 19.743 19.4429 20.3966 20.1354 20.8644C20.8528 21.349 21.844 21.7574 23.0051 22.0891C25.3368 22.7553 28.5168 23.1579 32 23.1579V21.7356C28.6103 21.7356 25.568 21.3422 23.3958 20.7216C22.3048 20.4099 21.4736 20.0521 20.9315 19.6859C20.3646 19.303 20.2667 19.0212 20.2667 18.8912H18.8444ZM24.1403 15.4048C22.6624 15.7381 21.3997 16.1727 20.4881 16.6982C19.6256 17.1954 18.8444 17.9141 18.8444 18.8912H20.2667C20.2667 18.7357 20.4123 18.3836 21.1984 17.9304C21.9355 17.5055 23.0434 17.1101 24.4532 16.7922L24.1403 15.4048ZM25.8935 9.63395L23.6285 15.8553L24.965 16.3418L27.2299 10.1205L25.8935 9.63395Z" fill="#264887" mask="url(#path-13-inside-4)"/>
<path d="M30.1509 17.8276C29.5623 18.2099 28.7753 18.0426 28.393 17.454C28.0108 16.8654 28.1781 16.0784 28.7667 15.6962C29.3553 15.3139 30.1423 15.4812 30.5245 16.0698C30.9067 16.6584 30.7395 17.4454 30.1509 17.8276Z" stroke="#D32D27" stroke-width="0.711111"/>
<path d="M30.696 16.0129L34.5939 13.4815" stroke="#D32D27" stroke-width="0.711111" stroke-linecap="square"/>
<path d="M34.8433 13.6068L35.6306 14.8192" stroke="#D32D27" stroke-width="0.711111" stroke-linecap="square"/>
<path d="M32.9721 14.7558L33.4642 15.5135" stroke="#D32D27" stroke-width="0.711111" stroke-linecap="square"/>
<rect x="50.4026" y="38.0444" width="2.13333" height="2.13333" transform="rotate(-45 50.4026 38.0444)" stroke="#B5D9F1" stroke-width="0.711111" stroke-linecap="round" stroke-linejoin="round"/>
<path fill-rule="evenodd" clip-rule="evenodd" d="M13.5111 33.7779C14.1002 33.7779 14.5778 33.3003 14.5778 32.7112C14.5778 32.1221 14.1002 31.6445 13.5111 31.6445C12.922 31.6445 12.4445 32.1221 12.4445 32.7112C12.4445 33.3003 12.922 33.7779 13.5111 33.7779Z" stroke="#B5D9F1" stroke-width="0.711111" stroke-linecap="round" stroke-linejoin="round"/>
<rect x="11.7333" y="16" width="2.13333" height="2.13333" stroke="#B5D9F1" stroke-width="0.711111" stroke-linecap="round" stroke-linejoin="round"/>
<path d="M44.1618 12.1617L45.8232 13.8232" stroke="#B5D9F1" stroke-width="0.711111" stroke-linecap="round" stroke-linejoin="round"/>
<path d="M45.7647 12.1617L44.1032 13.8232" stroke="#B5D9F1" stroke-width="0.711111" stroke-linecap="round" stroke-linejoin="round"/>
<defs>
<filter id="filter0_i" x="16.3555" y="22.7556" width="31.2889" height="25.3904" filterUnits="userSpaceOnUse" color-interpolation-filters="sRGB">
<feFlood flood-opacity="0" result="BackgroundImageFix"/>
<feBlend mode="normal" in="SourceGraphic" in2="BackgroundImageFix" result="shape"/>
<feColorMatrix in="SourceAlpha" type="matrix" values="0 0 0 0 0 0 0 0 0 0 0 0 0 0 0 0 0 0 127 0" result="hardAlpha"/>
<feOffset dx="-2.13333" dy="-2.48889"/>
<feComposite in2="hardAlpha" operator="arithmetic" k2="-1" k3="1"/>
<feColorMatrix type="matrix" values="0 0 0 0 0.709804 0 0 0 0 0.85098 0 0 0 0 0.945098 0 0 0 1 0"/>
<feBlend mode="normal" in2="shape" result="effect1_innerShadow"/>
</filter>
<filter id="filter1_i" x="23.4667" y="14.9333" width="17.0667" height="17.0667" filterUnits="userSpaceOnUse" color-interpolation-filters="sRGB">
<feFlood flood-opacity="0" result="BackgroundImageFix"/>
<feBlend mode="normal" in="SourceGraphic" in2="BackgroundImageFix" result="shape"/>
<feColorMatrix in="SourceAlpha" type="matrix" values="0 0 0 0 0 0 0 0 0 0 0 0 0 0 0 0 0 0 127 0" result="hardAlpha"/>
<feOffset dx="2.13333" dy="-1.77778"/>
<feComposite in2="hardAlpha" operator="arithmetic" k2="-1" k3="1"/>
<feColorMatrix type="matrix" values="0 0 0 0 0.564706 0 0 0 0 0.776471 0 0 0 0 0.921569 0 0 0 1 0"/>
<feBlend mode="normal" in2="shape" result="effect1_innerShadow"/>
</filter>
<filter id="filter2_di" x="32" y="22.0444" width="13.1361" height="21.6889" filterUnits="userSpaceOnUse" color-interpolation-filters="sRGB">
<feFlood flood-opacity="0" result="BackgroundImageFix"/>
<feColorMatrix in="SourceAlpha" type="matrix" values="0 0 0 0 0 0 0 0 0 0 0 0 0 0 0 0 0 0 127 0"/>
<feOffset dx="1.06667" dy="0.355556"/>
<feColorMatrix type="matrix" values="0 0 0 0 0.709804 0 0 0 0 0.85098 0 0 0 0 0.945098 0 0 0 1 0"/>
<feBlend mode="normal" in2="BackgroundImageFix" result="effect1_dropShadow"/>
<feBlend mode="normal" in="SourceGraphic" in2="effect1_dropShadow" result="shape"/>
<feColorMatrix in="SourceAlpha" type="matrix" values="0 0 0 0 0 0 0 0 0 0 0 0 0 0 0 0 0 0 127 0" result="hardAlpha"/>
<feOffset dx="-1.77778" dy="0.355556"/>
<feComposite in2="hardAlpha" operator="arithmetic" k2="-1" k3="1"/>
<feColorMatrix type="matrix" values="0 0 0 0 0.709804 0 0 0 0 0.85098 0 0 0 0 0.945098 0 0 0 1 0"/>
<feBlend mode="normal" in2="shape" result="effect2_innerShadow"/>
</filter>
<filter id="filter3_i" x="19.057" y="21.988" width="12.943" height="22.6565" filterUnits="userSpaceOnUse" color-interpolation-filters="sRGB">
<feFlood flood-opacity="0" result="BackgroundImageFix"/>
<feBlend mode="normal" in="SourceGraphic" in2="BackgroundImageFix" result="shape"/>
<feColorMatrix in="SourceAlpha" type="matrix" values="0 0 0 0 0 0 0 0 0 0 0 0 0 0 0 0 0 0 127 0" result="hardAlpha"/>
<feOffset dy="3.55556"/>
<feComposite in2="hardAlpha" operator="arithmetic" k2="-1" k3="1"/>
<feColorMatrix type="matrix" values="0 0 0 0 0.709804 0 0 0 0 0.85098 0 0 0 0 0.945098 0 0 0 1 0"/>
<feBlend mode="normal" in2="shape" result="effect1_innerShadow"/>
</filter>
<filter id="filter4_i" x="19.5555" y="8.00586" width="24.8889" height="14.4409" filterUnits="userSpaceOnUse" color-interpolation-filters="sRGB">
<feFlood flood-opacity="0" result="BackgroundImageFix"/>
<feBlend mode="normal" in="SourceGraphic" in2="BackgroundImageFix" result="shape"/>
<feColorMatrix in="SourceAlpha" type="matrix" values="0 0 0 0 0 0 0 0 0 0 0 0 0 0 0 0 0 0 127 0" result="hardAlpha"/>
<feOffset dx="2.13333" dy="-1.77778"/>
<feComposite in2="hardAlpha" operator="arithmetic" k2="-1" k3="1"/>
<feColorMatrix type="matrix" values="0 0 0 0 0.709804 0 0 0 0 0.85098 0 0 0 0 0.945098 0 0 0 1 0"/>
<feBlend mode="normal" in2="shape" result="effect1_innerShadow"/>
</filter>
</defs>
</svg>
