<svg xmlns="http://www.w3.org/2000/svg" width="64" height="64" viewBox="0 0 64 64">
    <g fill="none" fill-rule="evenodd" transform="translate(15 8)">
        <path fill="#B5E1E3" d="M28 11.996C28 6.476 22.522 1 17 1 11.477 1 6 6.48 6 12.007V23h4V11.763c0-4.416 2.587-6.999 7-6.999 4.416 0 7 2.586 7 7v3.408l4.018 1.854-.018-5.03z"/>
        <path fill="#325D5D" fill-rule="nonzero" d="M27 11.996C27 6.476 22.522 2 17 2 11.477 2 7 6.48 7 12.007V23h2V11.763c0-4.416 3.587-7.999 8-7.999 4.416 0 8 3.586 8 8v2.408l2.018 1.854-.018-4.03zM23.003 17H24c.552 0 .686-.313.288-.71l-.578-.58c-.393-.392-.711-1.16-.711-1.716v-2.23a6.004 6.004 0 0 0-6-6c-3.307 0-6 2.686-6 6v11.473c0 .613.092 1.205.264 1.763H5.165A12.085 12.085 0 0 1 5 23.004V12.007C5 5.376 10.371 0 17 0c6.627 0 12 5.373 12 11.996v6.005A2 2 0 0 1 27.002 20h-2.004a2 2 0 0 1-1.996-2.001V17z"/>
        <rect width="32" height="22" x="1" y="24" stroke="#325D5D" stroke-width="2" rx="4"/>
        <path stroke="#325D5D" stroke-linecap="square" d="M1.5 32.5h31.145M1.5 35.5h31.145M1.5 38.5h31.145"/>
    </g>
</svg>
