<svg xmlns="http://www.w3.org/2000/svg" width="64" height="64" viewBox="0 0 64 64">
    <g fill="none" fill-rule="evenodd">
        <path fill="#325D5D" fill-rule="nonzero" d="M4 16v32c0 1.1.9 2 2.007 2h51.986A2.005 2.005 0 0 0 60 48V16c0-1.1-.9-2-2.007-2H6.007A2.005 2.005 0 0 0 4 16zm-2 0c0-2.21 1.796-4 4.007-4h51.986A4.007 4.007 0 0 1 62 16v32c0 2.21-1.796 4-4.007 4H6.007A4.007 4.007 0 0 1 2 48V16z"/>
        <path fill="#B5E1E3" d="M4 22h56v11H4zM8 44c0-1.105.887-2 1.998-2h4.004c1.103 0 1.998.888 1.998 2 0 1.105-.887 2-1.998 2H9.998A1.994 1.994 0 0 1 8 44zM19 44c0-1.105.9-2 1.992-2h7.016c1.1 0 1.992.888 1.992 2 0 1.105-.9 2-1.992 2h-7.016c-1.1 0-1.992-.888-1.992-2z"/>
    </g>
</svg>
