<svg xmlns="http://www.w3.org/2000/svg" width="64" height="64" viewBox="0 0 64 64">
    <g fill="none" fill-rule="evenodd">
        <path fill="#325D5D" fill-rule="nonzero" d="M44.009 58c1.6 0 2.991-1.71 2.991-3.91V10.91C47 8.71 45.61 7 44.009 7H20.99C19.391 7 18 8.71 18 10.91v43.18c0 2.2 1.39 3.91 2.991 3.91H44.01zm0 2H20.99C18.184 60 16 57.313 16 54.09V10.91C16 7.688 18.184 5 20.991 5H44.01C46.816 5 49 7.687 49 10.91v43.18c0 3.223-2.184 5.91-4.991 5.91z"/>
        <path fill="#B5E1E3" stroke="#325D5D" d="M20.5 10.997v36.006c0 .828.672 1.497 1.504 1.497h20.992c.836 0 1.504-.668 1.504-1.497V10.997c0-.828-.672-1.497-1.504-1.497H22.004c-.836 0-1.504.668-1.504 1.497z"/>
        <path stroke="#325D5D" d="M34.5 53.5a2 2 0 1 0-4 0 2 2 0 0 0 4 0z"/>
        <path fill="#E3F3F4" d="M32.095 3.16h4"/>
    </g>
</svg>
