<svg width="67" height="64" viewBox="0 0 67 64" fill="none" xmlns="http://www.w3.org/2000/svg">
<path fill-rule="evenodd" clip-rule="evenodd" d="M32.3555 64C50.0286 64 64.3555 49.6731 64.3555 32C64.3555 14.3269 50.0286 0 32.3555 0C14.6824 0 0.35553 14.3269 0.35553 32C0.35553 49.6731 14.6824 64 32.3555 64Z" fill="#ECF5FB"/>
<rect x="46.9333" y="2.84448" width="2.13333" height="2.13333" stroke="#B5D9F1" stroke-width="0.711111" stroke-linecap="round" stroke-linejoin="round"/>
<rect x="36.6959" y="8.69312" width="2.13333" height="2.13333" transform="rotate(-45 36.6959 8.69312)" stroke="#B5D9F1" stroke-width="0.711111" stroke-linecap="round" stroke-linejoin="round"/>
<path d="M41.3333 15.0222L43.3603 17.0492" stroke="#B5D9F1" stroke-width="0.711111" stroke-linecap="round" stroke-linejoin="round"/>
<path d="M43.2889 15.0222L41.2619 17.0492" stroke="#B5D9F1" stroke-width="0.711111" stroke-linecap="round" stroke-linejoin="round"/>
<path d="M0.711121 54.4H65.7778" stroke="#264887" stroke-width="0.711111" stroke-linecap="round" stroke-dasharray="0.36 2.13 58.31 1.78"/>
<g filter="url(#filter0_i)">
<path fill-rule="evenodd" clip-rule="evenodd" d="M0.35553 22.0445C0.35553 21.2591 0.99228 20.6223 1.77775 20.6223H30.9333C31.7188 20.6223 32.3555 21.2591 32.3555 22.0445V51.329C32.3555 52.1145 31.7188 52.7512 30.9333 52.7512H29.4908C29.1842 53.5095 28.4409 54.0444 27.5727 54.0444C26.7046 54.0444 25.9613 53.5095 25.6546 52.7512H7.72679C7.42011 53.5095 6.67687 54.0444 5.8087 54.0444C4.94052 54.0444 4.19728 53.5095 3.8906 52.7512H1.77775C0.99228 52.7512 0.35553 52.1145 0.35553 51.329V22.0445Z" fill="white"/>
</g>
<path d="M29.4908 52.7512V52.3957H29.2511L29.1612 52.6179L29.4908 52.7512ZM25.6546 52.7512L25.9843 52.6179L25.8944 52.3957H25.6546V52.7512ZM7.72679 52.7512V52.3957H7.48707L7.39718 52.6179L7.72679 52.7512ZM3.8906 52.7512L4.22021 52.6179L4.13033 52.3957H3.8906V52.7512ZM0.589548 20.7221C0.443517 20.8534 0.43156 21.0782 0.562843 21.2243C0.694126 21.3703 0.918933 21.3823 1.06496 21.251L0.589548 20.7221ZM1.0204 21.2934C1.15869 21.154 1.15777 20.9289 1.01835 20.7906C0.878929 20.6523 0.653805 20.6532 0.515521 20.7926L1.0204 21.2934ZM0.505279 20.803C0.368139 20.9436 0.370899 21.1687 0.511444 21.3058C0.651989 21.443 0.877097 21.4402 1.01424 21.2997L0.505279 20.803ZM0.984191 21.3317C1.11547 21.1857 1.10352 20.9609 0.957486 20.8296C0.811454 20.6983 0.586646 20.7103 0.455364 20.8563L0.984191 21.3317ZM-2.5779e-05 35.6902C-2.5779e-05 35.8866 0.159162 36.0457 0.35553 36.0457C0.551898 36.0457 0.711085 35.8866 0.711085 35.6902H-2.5779e-05ZM0.711085 36.7634C0.711085 36.5671 0.551898 36.4079 0.35553 36.4079C0.159162 36.4079 -2.5779e-05 36.5671 -2.5779e-05 36.7634H0.711085ZM-2.5779e-05 36.9168C-2.5779e-05 37.1131 0.159162 37.2723 0.35553 37.2723C0.551898 37.2723 0.711085 37.1131 0.711085 36.9168H-2.5779e-05ZM0.711085 37.6834C0.711085 37.487 0.551898 37.3278 0.35553 37.3278C0.159162 37.3278 -2.5779e-05 37.487 -2.5779e-05 37.6834H0.711085ZM0.455364 52.5172C0.586647 52.6632 0.811454 52.6752 0.957486 52.5439C1.10352 52.4126 1.11547 52.1878 0.984191 52.0418L0.455364 52.5172ZM1.02662 52.0864C0.8872 51.9481 0.662077 51.949 0.523792 52.0884C0.385508 52.2278 0.386428 52.453 0.525847 52.5912L1.02662 52.0864ZM0.536257 52.6015C0.676802 52.7386 0.901911 52.7359 1.03905 52.5953C1.17619 52.4548 1.17343 52.2297 1.03289 52.0925L0.536257 52.6015ZM1.06497 52.1226C0.918934 51.9913 0.694126 52.0032 0.562843 52.1493C0.431561 52.2953 0.443517 52.5201 0.589549 52.6514L1.06497 52.1226ZM2.76227 53.1068C2.95864 53.1068 3.11783 52.9476 3.11783 52.7512C3.11783 52.5549 2.95864 52.3957 2.76227 52.3957V53.1068ZM2.83971 52.3957C2.64334 52.3957 2.48415 52.5549 2.48415 52.7512C2.48415 52.9476 2.64334 53.1068 2.83971 53.1068V52.3957ZM2.85077 53.1068C3.04714 53.1068 3.20632 52.9476 3.20632 52.7512C3.20632 52.5549 3.04714 52.3957 2.85077 52.3957V53.1068ZM2.90608 52.3957C2.70971 52.3957 2.55052 52.5549 2.55052 52.7512C2.55052 52.9476 2.70971 53.1068 2.90608 53.1068V52.3957ZM4.37308 53.9292C4.53122 54.0456 4.75379 54.0118 4.8702 53.8537C4.98661 53.6955 4.95278 53.4729 4.79464 53.3565L4.37308 53.9292ZM4.85561 53.3994C4.69257 53.29 4.47167 53.3334 4.36223 53.4965C4.25278 53.6595 4.29623 53.8804 4.45927 53.9898L4.85561 53.3994ZM4.4718 53.9982C4.63552 54.1066 4.85614 54.0618 4.96457 53.8981C5.073 53.7344 5.02818 53.5137 4.86446 53.4053L4.4718 53.9982ZM4.90929 53.434C4.74228 53.3307 4.52316 53.3824 4.41987 53.5494C4.31657 53.7164 4.36821 53.9355 4.53522 54.0388L4.90929 53.434ZM7.08218 54.0388C7.24918 53.9355 7.30082 53.7164 7.19753 53.5494C7.09423 53.3824 6.87511 53.3307 6.7081 53.434L7.08218 54.0388ZM6.7706 53.3935C6.60824 53.5039 6.56616 53.7251 6.67662 53.8874C6.78707 54.0498 7.00823 54.0919 7.17059 53.9814L6.7706 53.3935ZM7.18301 53.9729C7.34468 53.8614 7.38539 53.64 7.27393 53.4784C7.16247 53.3167 6.94106 53.276 6.77939 53.3874L7.18301 53.9729ZM6.82275 53.3565C6.66461 53.4729 6.63078 53.6955 6.74719 53.8537C6.8636 54.0118 7.08617 54.0456 7.24431 53.9292L6.82275 53.3565ZM16.0806 53.1068C16.277 53.1068 16.4362 52.9476 16.4362 52.7512C16.4362 52.5549 16.277 52.3957 16.0806 52.3957V53.1068ZM16.7376 52.3957C16.5413 52.3957 16.3821 52.5549 16.3821 52.7512C16.3821 52.9476 16.5413 53.1068 16.7376 53.1068V52.3957ZM16.8315 53.1068C17.0279 53.1068 17.1871 52.9476 17.1871 52.7512C17.1871 52.5549 17.0279 52.3957 16.8315 52.3957V53.1068ZM17.3008 52.3957C17.1045 52.3957 16.9453 52.5549 16.9453 52.7512C16.9453 52.9476 17.1045 53.1068 17.3008 53.1068V52.3957ZM26.1371 53.9292C26.2953 54.0456 26.5178 54.0118 26.6342 53.8537C26.7507 53.6955 26.7168 53.4729 26.5587 53.3565L26.1371 53.9292ZM26.6196 53.3994C26.4566 53.29 26.2357 53.3334 26.1263 53.4965C26.0168 53.6595 26.0603 53.8804 26.2233 53.9898L26.6196 53.3994ZM26.2358 53.9982C26.3996 54.1066 26.6202 54.0618 26.7286 53.8981C26.837 53.7344 26.7922 53.5137 26.6285 53.4053L26.2358 53.9982ZM26.6733 53.434C26.5063 53.3307 26.2872 53.3824 26.1839 53.5494C26.0806 53.7164 26.1323 53.9355 26.2993 54.0388L26.6733 53.434ZM28.8462 54.0388C29.0132 53.9355 29.0649 53.7164 28.9616 53.5494C28.8583 53.3824 28.6391 53.3307 28.4721 53.434L28.8462 54.0388ZM28.5346 53.3935C28.3723 53.5039 28.3302 53.7251 28.4407 53.8874C28.5511 54.0498 28.7723 54.0919 28.9346 53.9814L28.5346 53.3935ZM28.947 53.9729C29.1087 53.8614 29.1494 53.64 29.038 53.4784C28.9265 53.3167 28.7051 53.276 28.5434 53.3874L28.947 53.9729ZM28.5868 53.3565C28.4286 53.4729 28.3948 53.6955 28.5112 53.8537C28.6276 54.0118 28.8502 54.0456 29.0084 53.9292L28.5868 53.3565ZM30.163 53.1068C30.3593 53.1068 30.5185 52.9476 30.5185 52.7512C30.5185 52.5549 30.3593 52.3957 30.163 52.3957V53.1068ZM30.2158 52.3957C30.0195 52.3957 29.8603 52.5549 29.8603 52.7512C29.8603 52.9476 30.0195 53.1068 30.2158 53.1068V52.3957ZM30.2234 53.1068C30.4198 53.1068 30.579 52.9476 30.579 52.7512C30.579 52.5549 30.4198 52.3957 30.2234 52.3957V53.1068ZM30.2612 52.3957C30.0648 52.3957 29.9056 52.5549 29.9056 52.7512C29.9056 52.9476 30.0648 53.1068 30.2612 53.1068V52.3957ZM32.1215 52.6514C32.2675 52.5201 32.2795 52.2953 32.1482 52.1493C32.0169 52.0032 31.7921 51.9913 31.6461 52.1226L32.1215 52.6514ZM31.6907 52.0801C31.5524 52.2196 31.5533 52.4447 31.6927 52.583C31.8321 52.7213 32.0573 52.7203 32.1955 52.5809L31.6907 52.0801ZM32.2058 52.5705C32.3429 52.43 32.3402 52.2049 32.1996 52.0677C32.0591 51.9306 31.834 51.9333 31.6968 52.0739L32.2058 52.5705ZM31.7269 52.0418C31.5956 52.1878 31.6075 52.4126 31.7536 52.5439C31.8996 52.6752 32.1244 52.6632 32.2557 52.5172L31.7269 52.0418ZM32.7111 37.6834C32.7111 37.487 32.5519 37.3278 32.3555 37.3278C32.1592 37.3278 32 37.487 32 37.6834H32.7111ZM32 36.6101C32 36.8065 32.1592 36.9657 32.3555 36.9657C32.5519 36.9657 32.7111 36.8065 32.7111 36.6101H32ZM32.7111 36.4568C32.7111 36.2604 32.5519 36.1012 32.3555 36.1012C32.1592 36.1012 32 36.2604 32 36.4568H32.7111ZM32 35.6902C32 35.8865 32.1592 36.0457 32.3555 36.0457C32.5519 36.0457 32.7111 35.8865 32.7111 35.6902H32ZM32.2557 20.8563C32.1244 20.7103 31.8996 20.6983 31.7536 20.8296C31.6075 20.9609 31.5956 21.1857 31.7269 21.3317L32.2557 20.8563ZM31.6844 21.2872C31.8239 21.4255 32.049 21.4246 32.1873 21.2851C32.3256 21.1457 32.3246 20.9206 32.1852 20.7823L31.6844 21.2872ZM32.1748 20.7721C32.0343 20.6349 31.8091 20.6377 31.672 20.7782C31.5349 20.9188 31.5376 21.1439 31.6782 21.281L32.1748 20.7721ZM31.6461 21.251C31.7921 21.3823 32.0169 21.3703 32.1482 21.2243C32.2795 21.0782 32.2675 20.8534 32.1215 20.7221L31.6461 21.251ZM17.3477 20.2668C17.1514 20.2668 16.9922 20.4259 16.9922 20.6223C16.9922 20.8187 17.1514 20.9779 17.3477 20.9779V20.2668ZM16.2792 20.9779C16.4756 20.9779 16.6348 20.8187 16.6348 20.6223C16.6348 20.4259 16.4756 20.2668 16.2792 20.2668V20.9779ZM16.1266 20.2668C15.9302 20.2668 15.771 20.4259 15.771 20.6223C15.771 20.8187 15.9302 20.9779 16.1266 20.9779V20.2668ZM15.3633 20.9779C15.5597 20.9779 15.7189 20.8187 15.7189 20.6223C15.7189 20.4259 15.5597 20.2668 15.3633 20.2668V20.9779ZM1.77775 20.2668C1.32124 20.2668 0.904177 20.4393 0.589548 20.7221L1.06496 21.251C1.25413 21.0809 1.50349 20.9779 1.77775 20.9779V20.2668ZM0.515521 20.7926C0.512093 20.7961 0.508679 20.7996 0.505279 20.803L1.01424 21.2997C1.01628 21.2976 1.01834 21.2955 1.0204 21.2934L0.515521 20.7926ZM0.455364 20.8563C0.172512 21.171 -2.5779e-05 21.588 -2.5779e-05 22.0445H0.711085C0.711085 21.7703 0.814131 21.5209 0.984191 21.3317L0.455364 20.8563ZM-2.5779e-05 22.0445V35.6902H0.711085V22.0445H-2.5779e-05ZM-2.5779e-05 36.7634V36.9168H0.711085V36.7634H-2.5779e-05ZM-2.5779e-05 37.6834V51.329H0.711085V37.6834H-2.5779e-05ZM-2.5779e-05 51.329C-2.5779e-05 51.7855 0.172512 52.2026 0.455364 52.5172L0.984191 52.0418C0.814131 51.8526 0.711085 51.6033 0.711085 51.329H-2.5779e-05ZM0.525847 52.5912C0.529303 52.5947 0.532773 52.5981 0.536257 52.6015L1.03289 52.0925C1.03079 52.0905 1.0287 52.0884 1.02662 52.0864L0.525847 52.5912ZM0.589549 52.6514C0.904177 52.9343 1.32124 53.1068 1.77775 53.1068V52.3957C1.50349 52.3957 1.25413 52.2926 1.06497 52.1226L0.589549 52.6514ZM1.77775 53.1068H2.76227V52.3957H1.77775V53.1068ZM2.83971 53.1068H2.85077V52.3957H2.83971V53.1068ZM2.90608 53.1068H3.8906V52.3957H2.90608V53.1068ZM3.56098 52.8846C3.73076 53.3043 4.0143 53.6651 4.37308 53.9292L4.79464 53.3565C4.54042 53.1694 4.33994 52.9139 4.22021 52.6179L3.56098 52.8846ZM4.45927 53.9898C4.46344 53.9926 4.46762 53.9954 4.4718 53.9982L4.86446 53.4053C4.86151 53.4034 4.85855 53.4014 4.85561 53.3994L4.45927 53.9898ZM4.53522 54.0388C4.90552 54.2678 5.34222 54.4 5.8087 54.4V53.6888C5.47813 53.6888 5.17044 53.5955 4.90929 53.434L4.53522 54.0388ZM5.8087 54.4C6.27517 54.4 6.71187 54.2678 7.08218 54.0388L6.7081 53.434C6.44695 53.5955 6.13926 53.6888 5.8087 53.6888V54.4ZM7.17059 53.9814C7.17474 53.9786 7.17888 53.9757 7.18301 53.9729L6.77939 53.3874C6.77646 53.3895 6.77354 53.3915 6.7706 53.3935L7.17059 53.9814ZM7.24431 53.9292C7.60309 53.6651 7.88663 53.3043 8.05641 52.8846L7.39718 52.6179C7.27745 52.9139 7.07697 53.1694 6.82275 53.3565L7.24431 53.9292ZM7.72679 53.1068H16.0806V52.3957H7.72679V53.1068ZM16.7376 53.1068H16.8315V52.3957H16.7376V53.1068ZM17.3008 53.1068H25.6546V52.3957H17.3008V53.1068ZM25.325 52.8846C25.4948 53.3043 25.7783 53.6651 26.1371 53.9292L26.5587 53.3565C26.3045 53.1694 26.104 52.9139 25.9843 52.6179L25.325 52.8846ZM26.2233 53.9898C26.2275 53.9926 26.2317 53.9954 26.2358 53.9982L26.6285 53.4053C26.6255 53.4034 26.6226 53.4014 26.6196 53.3994L26.2233 53.9898ZM26.2993 54.0388C26.6696 54.2678 27.1063 54.4 27.5727 54.4V53.6888C27.2422 53.6888 26.9345 53.5955 26.6733 53.434L26.2993 54.0388ZM27.5727 54.4C28.0392 54.4 28.4759 54.2678 28.8462 54.0388L28.4721 53.434C28.211 53.5955 27.9033 53.6888 27.5727 53.6888V54.4ZM28.9346 53.9814C28.9388 53.9786 28.9429 53.9757 28.947 53.9729L28.5434 53.3874C28.5405 53.3895 28.5376 53.3915 28.5346 53.3935L28.9346 53.9814ZM29.0084 53.9292C29.3671 53.6651 29.6507 53.3043 29.8204 52.8846L29.1612 52.6179C29.0415 52.9139 28.841 53.1694 28.5868 53.3565L29.0084 53.9292ZM29.4908 53.1068H30.163V52.3957H29.4908V53.1068ZM30.2158 53.1068H30.2234V52.3957H30.2158V53.1068ZM30.2612 53.1068H30.9333V52.3957H30.2612V53.1068ZM30.9333 53.1068C31.3898 53.1068 31.8069 52.9343 32.1215 52.6514L31.6461 52.1226C31.4569 52.2926 31.2076 52.3957 30.9333 52.3957V53.1068ZM32.1955 52.5809C32.199 52.5775 32.2024 52.574 32.2058 52.5705L31.6968 52.0739C31.6948 52.076 31.6927 52.0781 31.6907 52.0801L32.1955 52.5809ZM32.2557 52.5172C32.5385 52.2026 32.7111 51.7855 32.7111 51.329H32C32 51.6033 31.8969 51.8526 31.7269 52.0418L32.2557 52.5172ZM32.7111 51.329V37.6834H32V51.329H32.7111ZM32.7111 36.6101V36.4568H32V36.6101H32.7111ZM32.7111 35.6902V22.0445H32V35.6902H32.7111ZM32.7111 22.0445C32.7111 21.588 32.5385 21.171 32.2557 20.8563L31.7269 21.3317C31.8969 21.5209 32 21.7703 32 22.0445H32.7111ZM32.1852 20.7823C32.1818 20.7789 32.1783 20.7755 32.1748 20.7721L31.6782 21.281C31.6803 21.2831 31.6824 21.2851 31.6844 21.2872L32.1852 20.7823ZM32.1215 20.7221C31.8069 20.4393 31.3898 20.2668 30.9333 20.2668V20.9779C31.2076 20.9779 31.4569 21.0809 31.6461 21.251L32.1215 20.7221ZM30.9333 20.2668H17.3477V20.9779H30.9333V20.2668ZM16.2792 20.2668H16.1266V20.9779H16.2792V20.2668ZM15.3633 20.2668H1.77775V20.9779H15.3633V20.2668Z" fill="#264887"/>
<path fill-rule="evenodd" clip-rule="evenodd" d="M20.9901 34.2415C21.1682 33.527 21.8918 33.0922 22.6063 33.2703L55.7333 41.5298C56.4478 41.7079 56.8826 42.4316 56.7045 43.1461L54.9127 50.3325C54.7346 51.047 54.0109 51.4818 53.2964 51.3036L20.1695 43.0441C19.455 42.866 19.0201 42.1424 19.1983 41.4279L20.9901 34.2415Z" fill="white" stroke="#264887" stroke-width="0.711111"/>
<path fill-rule="evenodd" clip-rule="evenodd" d="M22.7013 36.4811C22.82 36.0048 23.3025 35.7149 23.7788 35.8337L26.9379 36.6213C27.4142 36.7401 27.7041 37.2225 27.5853 37.6989L26.7208 41.1662C26.602 41.6426 26.1196 41.9324 25.6433 41.8137L22.4842 41.026C22.0079 40.9073 21.718 40.4249 21.8368 39.9485L22.7013 36.4811Z" fill="#D32D27"/>
<g style="mix-blend-mode:multiply">
<path fill-rule="evenodd" clip-rule="evenodd" d="M29.022 38.4385C29.1482 37.9325 29.6607 37.6245 30.1668 37.7507L52.7543 43.3824C53.2604 43.5086 53.5683 44.0211 53.4422 44.5271C53.316 45.0332 52.8035 45.3411 52.2974 45.215L29.7099 39.5833C29.2038 39.4571 28.8959 38.9446 29.022 38.4385Z" fill="#B5D9F1"/>
</g>
<g style="mix-blend-mode:multiply">
<path fill-rule="evenodd" clip-rule="evenodd" d="M28.2605 41.493C28.3867 40.9869 28.8992 40.6789 29.4052 40.8051L41.9195 43.9253C42.4255 44.0514 42.7335 44.564 42.6073 45.07C42.4811 45.5761 41.9686 45.884 41.4626 45.7579L28.9483 42.6377C28.4423 42.5115 28.1343 41.999 28.2605 41.493Z" fill="#B5D9F1"/>
</g>
<path fill-rule="evenodd" clip-rule="evenodd" d="M26.6667 29.7777C26.6667 29.0413 27.2636 28.4443 28 28.4443H62.2002C62.9366 28.4443 63.5336 29.0413 63.5336 29.7777V37.2912C63.5336 38.0276 62.9366 38.6245 62.2002 38.6245H28C27.2636 38.6245 26.6667 38.0276 26.6667 37.2912V29.7777Z" fill="white" stroke="#264887" stroke-width="0.711111" stroke-linecap="round" stroke-dasharray="67.56 2.13 0.36 1.42"/>
<path fill-rule="evenodd" clip-rule="evenodd" d="M28.8724 31.5603C28.8724 31.0694 29.2703 30.6714 29.7613 30.6714H33.0251C33.516 30.6714 33.914 31.0694 33.914 31.5603V35.1907C33.914 35.6816 33.516 36.0796 33.0251 36.0796H29.7613C29.2703 36.0796 28.8724 35.6816 28.8724 35.1907V31.5603Z" fill="#D32D27"/>
<g style="mix-blend-mode:multiply">
<path fill-rule="evenodd" clip-rule="evenodd" d="M35.4895 31.9439C35.4895 31.4168 35.9168 30.9895 36.4439 30.9895H59.7432C60.2703 30.9895 60.6976 31.4168 60.6976 31.9439C60.6976 32.471 60.2703 32.8983 59.7432 32.8983H36.4439C35.9168 32.8983 35.4895 32.471 35.4895 31.9439Z" fill="#B5D9F1"/>
</g>
<g style="mix-blend-mode:multiply">
<path fill-rule="evenodd" clip-rule="evenodd" d="M35.4895 35.1253C35.4895 34.5982 35.9168 34.1709 36.4439 34.1709H49.3449C49.872 34.1709 50.2993 34.5982 50.2993 35.1253C50.2993 35.6524 49.872 36.0797 49.3449 36.0797H36.4439C35.9168 36.0797 35.4895 35.6524 35.4895 35.1253Z" fill="#B5D9F1"/>
</g>
<g filter="url(#filter1_i)">
<path fill-rule="evenodd" clip-rule="evenodd" d="M3.85474 24.5334C3.85474 24.1406 4.17311 23.8223 4.56585 23.8223H28.5776C28.9703 23.8223 29.2887 24.1406 29.2887 24.5334V48.5268C29.2887 48.9195 28.9703 49.2379 28.5776 49.2379H4.56585C4.17311 49.2379 3.85474 48.9195 3.85474 48.5268V24.5334Z" fill="white"/>
</g>
<path fill-rule="evenodd" clip-rule="evenodd" d="M3.85474 24.5334C3.85474 24.1406 4.17311 23.8223 4.56585 23.8223H28.5776C28.9703 23.8223 29.2887 24.1406 29.2887 24.5334V48.5268C29.2887 48.9195 28.9703 49.2379 28.5776 49.2379H4.56585C4.17311 49.2379 3.85474 48.9195 3.85474 48.5268V24.5334Z" stroke="#264887" stroke-width="0.711111" stroke-linecap="round" stroke-linejoin="round"/>
<g filter="url(#filter2_i)">
<path fill-rule="evenodd" clip-rule="evenodd" d="M2.48889 28.3061C2.48889 27.5257 3.12151 26.8931 3.90189 26.8931C4.68227 26.8931 5.31489 27.5257 5.31489 28.3061V31.4418C5.31489 32.2221 4.68227 32.8548 3.90189 32.8548C3.12151 32.8548 2.48889 32.2221 2.48889 31.4418V28.3061Z" fill="white"/>
</g>
<path fill-rule="evenodd" clip-rule="evenodd" d="M2.48889 28.3061C2.48889 27.5257 3.12151 26.8931 3.90189 26.8931C4.68227 26.8931 5.31489 27.5257 5.31489 28.3061V31.4418C5.31489 32.2221 4.68227 32.8548 3.90189 32.8548C3.12151 32.8548 2.48889 32.2221 2.48889 31.4418V28.3061Z" stroke="#264887" stroke-width="0.711111" stroke-linecap="round" stroke-linejoin="round"/>
<g filter="url(#filter3_i)">
<path fill-rule="evenodd" clip-rule="evenodd" d="M2.48889 42.9779C2.48889 42.1976 3.12151 41.5649 3.90189 41.5649C4.68227 41.5649 5.31489 42.1976 5.31489 42.9779V46.1136C5.31489 46.894 4.68227 47.5266 3.90189 47.5266C3.12151 47.5266 2.48889 46.894 2.48889 46.1136V42.9779Z" fill="white"/>
</g>
<path fill-rule="evenodd" clip-rule="evenodd" d="M2.48889 42.9779C2.48889 42.1976 3.12151 41.5649 3.90189 41.5649C4.68227 41.5649 5.31489 42.1976 5.31489 42.9779V46.1136C5.31489 46.894 4.68227 47.5266 3.90189 47.5266C3.12151 47.5266 2.48889 46.894 2.48889 46.1136V42.9779Z" stroke="#264887" stroke-width="0.711111" stroke-linecap="round" stroke-linejoin="round"/>
<path d="M16.3177 41.9207C19.0597 41.9207 21.2829 39.6994 21.2829 36.9588C21.2829 34.2182 19.0597 31.997 16.3177 31.997C13.5758 31.997 11.3526 34.2182 11.3526 36.9588C11.3526 39.6994 13.5758 41.9207 16.3177 41.9207Z" stroke="#264887" stroke-width="0.711111"/>
<path fill-rule="evenodd" clip-rule="evenodd" d="M17.0593 31.6317C17.0593 31.2737 16.7728 30.9875 16.4194 30.9875C16.0635 30.9875 15.7794 31.276 15.7794 31.6317V34.8119C14.9618 35.0814 14.3715 35.8532 14.3715 36.7633C14.3715 36.9383 14.3934 37.1083 14.4345 37.2705L11.6407 39.2322C11.3503 39.4361 11.2795 39.8366 11.4822 40.1269C11.6864 40.4193 12.0846 40.4874 12.3748 40.2836L15.1236 38.3535C15.4766 38.6431 15.9277 38.8168 16.4194 38.8168C16.9654 38.8168 17.4614 38.6026 17.8285 38.2533L20.7199 40.2835C21.0103 40.4874 21.4097 40.4172 21.6125 40.1268C21.8166 39.8345 21.7442 39.4359 21.454 39.2322L18.4374 37.114C18.457 37 18.4672 36.8828 18.4672 36.7633C18.4672 35.8532 17.8769 35.0814 17.0593 34.8119V31.6317Z" fill="#D22D27"/>
<defs>
<filter id="filter0_i" x="0" y="20.2668" width="32.7111" height="34.1332" filterUnits="userSpaceOnUse" color-interpolation-filters="sRGB">
<feFlood flood-opacity="0" result="BackgroundImageFix"/>
<feBlend mode="normal" in="SourceGraphic" in2="BackgroundImageFix" result="shape"/>
<feColorMatrix in="SourceAlpha" type="matrix" values="0 0 0 0 0 0 0 0 0 0 0 0 0 0 0 0 0 0 127 0" result="hardAlpha"/>
<feOffset dy="-1.42222"/>
<feComposite in2="hardAlpha" operator="arithmetic" k2="-1" k3="1"/>
<feColorMatrix type="matrix" values="0 0 0 0 0.760784 0 0 0 0 0.878431 0 0 0 0 0.956863 0 0 0 1 0"/>
<feBlend mode="normal" in2="shape" result="effect1_innerShadow"/>
</filter>
<filter id="filter1_i" x="3.49921" y="23.4668" width="26.1451" height="26.1267" filterUnits="userSpaceOnUse" color-interpolation-filters="sRGB">
<feFlood flood-opacity="0" result="BackgroundImageFix"/>
<feBlend mode="normal" in="SourceGraphic" in2="BackgroundImageFix" result="shape"/>
<feColorMatrix in="SourceAlpha" type="matrix" values="0 0 0 0 0 0 0 0 0 0 0 0 0 0 0 0 0 0 127 0" result="hardAlpha"/>
<feOffset dx="2.13333" dy="-2.13333"/>
<feComposite in2="hardAlpha" operator="arithmetic" k2="-1" k3="1"/>
<feColorMatrix type="matrix" values="0 0 0 0 0.709804 0 0 0 0 0.85098 0 0 0 0 0.945098 0 0 0 1 0"/>
<feBlend mode="normal" in2="shape" result="effect1_innerShadow"/>
</filter>
<filter id="filter2_i" x="2.13336" y="26.5376" width="3.53711" height="6.6728" filterUnits="userSpaceOnUse" color-interpolation-filters="sRGB">
<feFlood flood-opacity="0" result="BackgroundImageFix"/>
<feBlend mode="normal" in="SourceGraphic" in2="BackgroundImageFix" result="shape"/>
<feColorMatrix in="SourceAlpha" type="matrix" values="0 0 0 0 0 0 0 0 0 0 0 0 0 0 0 0 0 0 127 0" result="hardAlpha"/>
<feOffset dx="1.06667" dy="-1.42222"/>
<feComposite in2="hardAlpha" operator="arithmetic" k2="-1" k3="1"/>
<feColorMatrix type="matrix" values="0 0 0 0 0.709804 0 0 0 0 0.85098 0 0 0 0 0.945098 0 0 0 1 0"/>
<feBlend mode="normal" in2="shape" result="effect1_innerShadow"/>
</filter>
<filter id="filter3_i" x="2.13336" y="41.2095" width="3.53711" height="6.6728" filterUnits="userSpaceOnUse" color-interpolation-filters="sRGB">
<feFlood flood-opacity="0" result="BackgroundImageFix"/>
<feBlend mode="normal" in="SourceGraphic" in2="BackgroundImageFix" result="shape"/>
<feColorMatrix in="SourceAlpha" type="matrix" values="0 0 0 0 0 0 0 0 0 0 0 0 0 0 0 0 0 0 127 0" result="hardAlpha"/>
<feOffset dx="1.06667" dy="-1.42222"/>
<feComposite in2="hardAlpha" operator="arithmetic" k2="-1" k3="1"/>
<feColorMatrix type="matrix" values="0 0 0 0 0.709804 0 0 0 0 0.85098 0 0 0 0 0.945098 0 0 0 1 0"/>
<feBlend mode="normal" in2="shape" result="effect1_innerShadow"/>
</filter>
</defs>
</svg>
