<svg width="125" height="125" viewBox="0 0 125 125" fill="none" xmlns="http://www.w3.org/2000/svg">
<path fill-rule="evenodd" clip-rule="evenodd" d="M62.5 125C97.0178 125 125 97.0178 125 62.5C125 27.9822 97.0178 0 62.5 0C27.9822 0 0 27.9822 0 62.5C0 97.0178 27.9822 125 62.5 125Z" fill="#ECF5FB"/>
<path d="M38.1944 102.778H87.5" stroke="#B5D9F1" stroke-width="2" stroke-linecap="round" stroke-linejoin="round"/>
<g filter="url(#filter0_i)">
<path fill-rule="evenodd" clip-rule="evenodd" d="M47.9168 54.9081C38.8001 60.02 32.6389 69.7766 32.6389 80.9722C32.6389 97.464 92.3611 97.464 92.3611 80.9722C92.3611 69.7766 86.1999 60.02 77.0832 54.9081L80.5425 49.8272C81.8985 47.8357 80.4721 45.1389 78.0627 45.1389H46.9373C44.528 45.1389 43.1016 47.8357 44.4575 49.8272L47.9168 54.9081Z" fill="white"/>
</g>
<path d="M47.9168 54.9081L48.7434 54.3453L49.3573 55.2469L48.4059 55.7803L47.9168 54.9081ZM77.0832 54.9081L76.5941 55.7803L75.6427 55.2469L76.2566 54.3453L77.0832 54.9081ZM80.5425 49.8272L79.7159 49.2644L80.5425 49.8272ZM44.4575 49.8272L45.2841 49.2644V49.2644L44.4575 49.8272ZM60.8596 92.3243C61.4118 92.3356 61.8503 92.7924 61.8389 93.3446C61.8276 93.8967 61.3708 94.3352 60.8186 94.3238L60.8596 92.3243ZM62.7803 94.3406C62.2281 94.3425 61.7788 93.8963 61.7769 93.344C61.7751 92.7917 62.2212 92.3425 62.7735 92.3406L62.7803 94.3406ZM63.047 92.3392C63.5993 92.3354 64.0501 92.7801 64.0538 93.3323C64.0576 93.8846 63.613 94.3354 63.0607 94.3391L63.047 92.3392ZM64.1814 94.3238C63.6292 94.3352 63.1724 93.8967 63.1611 93.3446C63.1497 92.7924 63.5882 92.3356 64.1404 92.3243L64.1814 94.3238ZM87.7629 67.0057C87.4953 66.5226 87.6699 65.914 88.153 65.6463C88.6361 65.3786 89.2447 65.5533 89.5124 66.0364L87.7629 67.0057ZM89.0599 65.2474C89.3417 65.7224 89.1851 66.3359 88.7101 66.6177C88.2351 66.8995 87.6216 66.7429 87.3398 66.2679L89.0599 65.2474ZM87.2777 66.1636C86.9939 65.6898 87.1479 65.0757 87.6217 64.7919C88.0955 64.5081 88.7096 64.6621 88.9934 65.1359L87.2777 66.1636ZM88.7226 64.6922C89.0143 65.1612 88.8706 65.7778 88.4017 66.0696C87.9328 66.3613 87.3161 66.2177 87.0244 65.7487L88.7226 64.6922ZM77.9039 51.9259C78.2147 51.4693 78.8367 51.3512 79.2933 51.662C79.7498 51.9729 79.8679 52.5949 79.5571 53.0514L77.9039 51.9259ZM79.6532 52.9103C79.3423 53.3668 78.7203 53.4849 78.2638 53.1741C77.8073 52.8633 77.6891 52.2412 78 51.7847L79.6532 52.9103ZM78.0137 51.7646C78.3245 51.308 78.9466 51.1899 79.4031 51.5007C79.8596 51.8116 79.9777 52.4336 79.6669 52.8901L78.0137 51.7646ZM79.7218 52.8095C79.411 53.266 78.7889 53.3841 78.3324 53.0733C77.8759 52.7625 77.7578 52.1404 78.0686 51.6839L79.7218 52.8095ZM79.8772 47.2974C79.6439 46.7968 79.8606 46.2019 80.3612 45.9686C80.8618 45.7353 81.4568 45.9521 81.69 46.4527L79.8772 47.2974ZM81.5824 46.2384C81.8447 46.7245 81.6634 47.3311 81.1774 47.5934C80.6914 47.8557 80.0847 47.6744 79.8224 47.1884L81.5824 46.2384ZM79.8141 47.1731C79.5477 46.6893 79.7239 46.0811 80.2077 45.8147C80.6915 45.5484 81.2996 45.7246 81.566 46.2084L79.8141 47.1731ZM81.4979 46.0895C81.7805 46.564 81.6248 47.1778 81.1502 47.4603C80.6757 47.7428 80.062 47.5871 79.7794 47.1126L81.4979 46.0895ZM63.2411 46.1389C62.6888 46.1389 62.2411 45.6911 62.2411 45.1389C62.2411 44.5866 62.6888 44.1389 63.2411 44.1389V46.1389ZM62.3765 44.1389C62.9288 44.1389 63.3765 44.5866 63.3765 45.1389C63.3765 45.6911 62.9288 46.1389 62.3765 46.1389V44.1389ZM62.253 46.1389C61.7007 46.1389 61.253 45.6911 61.253 45.1389C61.253 44.5866 61.7007 44.1389 62.253 44.1389V46.1389ZM61.7589 44.1389C62.3112 44.1389 62.7589 44.5866 62.7589 45.1389C62.7589 45.6911 62.3112 46.1389 61.7589 46.1389V44.1389ZM45.2206 47.1126C44.9381 47.5871 44.3243 47.7428 43.8498 47.4603C43.3752 47.1778 43.2196 46.564 43.5021 46.0895L45.2206 47.1126ZM43.3856 46.299C43.6397 45.8086 44.2432 45.6171 44.7335 45.8712C45.2239 46.1253 45.4154 46.7288 45.1613 47.2192L43.3856 46.299ZM45.1534 47.2347C44.9034 47.7272 44.3015 47.9238 43.809 47.6738C43.3166 47.4238 43.12 46.8219 43.3699 46.3295L45.1534 47.2347ZM43.31 46.4527C43.5433 45.9521 44.1382 45.7353 44.6388 45.9686C45.1394 46.2019 45.3561 46.7968 45.1229 47.2974L43.31 46.4527ZM46.9314 51.6839C47.2422 52.1404 47.1241 52.7625 46.6676 53.0733C46.2111 53.3841 45.589 53.266 45.2782 52.8095L46.9314 51.6839ZM45.3743 52.9506C45.0635 52.4941 45.1816 51.872 45.6381 51.5612C46.0946 51.2504 46.7167 51.3685 47.0275 51.825L45.3743 52.9506ZM47.0412 51.8452C47.3521 52.3017 47.2339 52.9238 46.7774 53.2346C46.3209 53.5454 45.6989 53.4273 45.388 52.9708L47.0412 51.8452ZM45.4429 53.0514C45.1321 52.5949 45.2502 51.9729 45.7068 51.662C46.1633 51.3512 46.7853 51.4693 47.0961 51.9258L45.4429 53.0514ZM37.9756 65.7487C37.6839 66.2177 37.0673 66.3613 36.5983 66.0696C36.1294 65.7778 35.9857 65.1612 36.2774 64.6922L37.9756 65.7487ZM35.8085 65.4714C36.0863 64.994 36.6985 64.8322 37.1758 65.11C37.6531 65.3878 37.8149 66 37.5371 66.4773L35.8085 65.4714ZM37.4762 66.5824C37.2005 67.0609 36.589 67.2253 36.1105 66.9495C35.632 66.6737 35.4677 66.0623 35.7434 65.5838L37.4762 66.5824ZM35.4876 66.0364C35.7553 65.5533 36.3639 65.3786 36.847 65.6463C37.3301 65.914 37.5047 66.5226 37.2371 67.0057L35.4876 66.0364ZM33.6389 80.9722C33.6389 84.2666 36.5211 87.0476 41.7199 89.0841C46.8287 91.0852 53.7516 92.1784 60.8596 92.3243L60.8186 94.3238C53.5698 94.1751 46.3926 93.0624 40.9904 90.9463C35.6784 88.8655 31.6389 85.6178 31.6389 80.9722H33.6389ZM62.7735 92.3406C62.8647 92.3403 62.9559 92.3398 63.047 92.3392L63.0607 94.3391C62.9672 94.3398 62.8738 94.3403 62.7803 94.3406L62.7735 92.3406ZM64.1404 92.3243C71.2484 92.1784 78.1713 91.0852 83.2801 89.0841C88.4789 87.0476 91.3611 84.2666 91.3611 80.9722H93.3611C93.3611 85.6178 89.3216 88.8655 84.0096 90.9463C78.6074 93.0624 71.4302 94.1751 64.1814 94.3238L64.1404 92.3243ZM91.3611 80.9722C91.3611 75.9038 90.0555 71.1433 87.7629 67.0057L89.5124 66.0364C91.965 70.463 93.3611 75.5561 93.3611 80.9722H91.3611ZM87.3398 66.2679C87.3192 66.2331 87.2985 66.1984 87.2777 66.1636L88.9934 65.1359C89.0157 65.173 89.0378 65.2102 89.0599 65.2474L87.3398 66.2679ZM87.0244 65.7487C84.4494 61.6096 80.8555 58.1697 76.5941 55.7803L77.5723 54.0359C82.1285 56.5906 85.9698 60.2674 88.7226 64.6922L87.0244 65.7487ZM76.2566 54.3453L77.9039 51.9259L79.5571 53.0514L77.9098 55.4709L76.2566 54.3453ZM78 51.7847L78.0137 51.7646L79.6669 52.8901L79.6532 52.9103L78 51.7847ZM78.0686 51.6839L79.7159 49.2644L81.3691 50.39L79.7218 52.8095L78.0686 51.6839ZM79.7159 49.2644C80.147 48.6312 80.1592 47.9026 79.8772 47.2974L81.69 46.4527C82.2466 47.6472 82.2269 49.1302 81.3691 50.39L79.7159 49.2644ZM79.8224 47.1884C79.8197 47.1833 79.8169 47.1782 79.8141 47.1731L81.566 46.2084C81.5715 46.2184 81.577 46.2284 81.5824 46.2384L79.8224 47.1884ZM79.7794 47.1126C79.4379 46.5389 78.8287 46.1389 78.0627 46.1389V44.1389C79.5868 44.1389 80.8238 44.9571 81.4979 46.0895L79.7794 47.1126ZM78.0627 46.1389H63.2411V44.1389H78.0627V46.1389ZM62.3765 46.1389H62.253V44.1389H62.3765V46.1389ZM61.7589 46.1389H46.9373V44.1389H61.7589V46.1389ZM46.9373 46.1389C46.1713 46.1389 45.5622 46.5389 45.2206 47.1126L43.5021 46.0895C44.1763 44.9571 45.4132 44.1389 46.9373 44.1389V46.1389ZM45.1613 47.2192C45.1586 47.2244 45.156 47.2295 45.1534 47.2347L43.3699 46.3295C43.3751 46.3193 43.3803 46.3091 43.3856 46.299L45.1613 47.2192ZM45.1229 47.2974C44.8408 47.9026 44.853 48.6312 45.2841 49.2644L43.6309 50.39C42.7732 49.1302 42.7534 47.6472 43.31 46.4527L45.1229 47.2974ZM45.2841 49.2644L46.9314 51.6839L45.2782 52.8095L43.6309 50.39L45.2841 49.2644ZM47.0275 51.825L47.0412 51.8452L45.388 52.9708L45.3743 52.9506L47.0275 51.825ZM47.0961 51.9258L48.7434 54.3453L47.0902 55.4709L45.4429 53.0514L47.0961 51.9258ZM48.4059 55.7803C44.1446 58.1697 40.5507 61.6096 37.9756 65.7487L36.2774 64.6922C39.0302 60.2674 42.8715 56.5906 47.4278 54.0359L48.4059 55.7803ZM37.5371 66.4773C37.5168 66.5123 37.4965 66.5473 37.4762 66.5824L35.7434 65.5838C35.7651 65.5462 35.7868 65.5088 35.8085 65.4714L37.5371 66.4773ZM37.2371 67.0057C34.9445 71.1433 33.6389 75.9038 33.6389 80.9722H31.6389C31.6389 75.5561 33.035 70.463 35.4876 66.0364L37.2371 67.0057Z" fill="#264887"/>
<g filter="url(#filter1_i)">
<path fill-rule="evenodd" clip-rule="evenodd" d="M62.5 62.5C71.7048 62.5 79.1667 55.038 79.1667 45.8333C79.1667 36.6285 71.7048 29.1666 62.5 29.1666C53.2953 29.1666 45.8333 36.6285 45.8333 45.8333C45.8333 55.038 53.2953 62.5 62.5 62.5Z" fill="#B5D9F1"/>
</g>
<path d="M78.1667 45.8333C78.1667 54.4858 71.1525 61.5 62.5 61.5C53.8475 61.5 46.8333 54.4858 46.8333 45.8333C46.8333 37.1808 53.8475 30.1666 62.5 30.1666C71.1525 30.1666 78.1667 37.1808 78.1667 45.8333Z" stroke="#264887" stroke-width="2"/>
<g filter="url(#filter2_di)">
<mask id="path-7-inside-1" fill="white">
<path fill-rule="evenodd" clip-rule="evenodd" d="M71.5388 52.6328L62.5 84.7222L84.4705 58.907C86.019 57.0875 84.9229 54.2762 82.5515 53.985L79.0582 53.5561L81.9941 49.1315C83.2271 47.2732 82.0734 44.767 79.8599 44.4952L68.1351 43.0556L71.5388 52.6328Z"/>
</mask>
<path fill-rule="evenodd" clip-rule="evenodd" d="M71.5388 52.6328L62.5 84.7222L84.4705 58.907C86.019 57.0875 84.9229 54.2762 82.5515 53.985L79.0582 53.5561L81.9941 49.1315C83.2271 47.2732 82.0734 44.767 79.8599 44.4952L68.1351 43.0556L71.5388 52.6328Z" fill="white"/>
<path d="M62.5 84.7222L60.5749 84.18L64.0231 86.0185L62.5 84.7222ZM71.5388 52.6328L73.4639 53.1751L73.6364 52.5626L73.4234 51.9631L71.5388 52.6328ZM84.4705 58.907L85.9935 60.2032L85.9935 60.2032L84.4705 58.907ZM79.0582 53.5561L77.3917 52.4503L75.6026 55.1468L78.8145 55.5412L79.0582 53.5561ZM81.9941 49.1315L83.6606 50.2372L83.6606 50.2372L81.9941 49.1315ZM68.1351 43.0556L68.3788 41.0705L65.1669 40.6761L66.2506 43.7253L68.1351 43.0556ZM64.4251 85.2645L73.4639 53.1751L69.6137 52.0906L60.5749 84.18L64.4251 85.2645ZM82.9474 57.6107L60.9769 83.426L64.0231 86.0185L85.9935 60.2032L82.9474 57.6107ZM82.3077 55.9701C83.0982 56.0671 83.4636 57.0043 82.9474 57.6107L85.9935 60.2032C88.5744 57.1708 86.7475 52.4852 82.7952 51.9999L82.3077 55.9701ZM78.8145 55.5412L82.3077 55.9701L82.7952 51.9999L79.302 51.571L78.8145 55.5412ZM80.3275 48.0257L77.3917 52.4503L80.7248 54.6618L83.6606 50.2372L80.3275 48.0257ZM79.6162 46.4803C80.354 46.5709 80.7385 47.4063 80.3275 48.0257L83.6606 50.2372C85.7156 47.1401 83.7928 42.9631 80.1036 42.5101L79.6162 46.4803ZM67.8914 45.0407L79.6162 46.4803L80.1036 42.5101L68.3788 41.0705L67.8914 45.0407ZM73.4234 51.9631L70.0196 42.3858L66.2506 43.7253L69.6543 53.3026L73.4234 51.9631Z" fill="#264887" mask="url(#path-7-inside-1)"/>
</g>
<mask id="path-9-inside-2" fill="white">
<path fill-rule="evenodd" clip-rule="evenodd" d="M53.0673 52.6328L62.5 84.7222L40.2008 58.918C38.6319 57.1025 39.7234 54.2712 42.105 53.9788L45.5479 53.5561L42.6121 49.1314C41.3791 47.2732 42.5327 44.7669 44.7462 44.4952L56.471 43.0555L53.0673 52.6328Z"/>
</mask>
<g filter="url(#filter3_i)">
<path fill-rule="evenodd" clip-rule="evenodd" d="M53.0673 52.6328L62.5 84.7222L40.2008 58.918C38.6319 57.1025 39.7234 54.2712 42.105 53.9788L45.5479 53.5561L42.6121 49.1314C41.3791 47.2732 42.5327 44.7669 44.7462 44.4952L56.471 43.0555L53.0673 52.6328Z" fill="white"/>
</g>
<path d="M62.5 84.7222L64.4188 84.1582L60.9868 86.0299L62.5 84.7222ZM53.0673 52.6328L51.1485 53.1968L50.9655 52.5744L51.1828 51.963L53.0673 52.6328ZM40.2008 58.918L41.714 57.6103L41.714 57.6103L40.2008 58.918ZM42.105 53.9788L41.8613 51.9937L42.105 53.9788ZM45.5479 53.5561L47.2144 52.4503L49.0036 55.1468L45.7916 55.5411L45.5479 53.5561ZM42.6121 49.1314L40.9456 50.2372L40.9456 50.2372L42.6121 49.1314ZM56.471 43.0555L56.2273 41.0704L59.4392 40.6761L58.3555 43.7253L56.471 43.0555ZM60.5812 85.2862L51.1485 53.1968L54.9861 52.0687L64.4188 84.1582L60.5812 85.2862ZM41.714 57.6103L64.0133 83.4145L60.9868 86.0299L38.6875 60.2257L41.714 57.6103ZM42.3488 55.9639C41.5549 56.0613 41.1911 57.0051 41.714 57.6103L38.6875 60.2257C36.0727 57.1999 37.892 52.4811 41.8613 51.9937L42.3488 55.9639ZM45.7916 55.5411L42.3488 55.9639L41.8613 51.9937L45.3041 51.571L45.7916 55.5411ZM44.2786 48.0257L47.2144 52.4503L43.8814 54.6618L40.9456 50.2372L44.2786 48.0257ZM44.99 46.4803C44.2521 46.5708 43.8676 47.4062 44.2786 48.0257L40.9456 50.2372C38.8905 47.1401 40.8133 42.963 44.5025 42.5101L44.99 46.4803ZM56.7148 45.0406L44.99 46.4803L44.5025 42.5101L56.2273 41.0704L56.7148 45.0406ZM51.1828 51.963L54.5865 42.3858L58.3555 43.7253L54.9518 53.3025L51.1828 51.963Z" fill="#264887" mask="url(#path-9-inside-2)"/>
<mask id="path-11-inside-3" fill="white">
<path fill-rule="evenodd" clip-rule="evenodd" d="M61.6058 46.6623C60.7206 50.0733 57.5813 52.595 53.8442 52.595C49.4199 52.595 45.8333 49.0604 45.8333 44.7003C45.8333 40.3401 49.4199 36.8055 53.8442 36.8055C57.0727 36.8055 59.855 38.6876 61.1233 41.3991H63.8767C65.145 38.6876 67.9274 36.8055 71.1558 36.8055C75.5801 36.8055 79.1667 40.3401 79.1667 44.7003C79.1667 49.0604 75.5801 52.595 71.1558 52.595C67.4187 52.595 64.2794 50.0733 63.3942 46.6623H61.6058Z"/>
</mask>
<path fill-rule="evenodd" clip-rule="evenodd" d="M61.6058 46.6623C60.7206 50.0733 57.5813 52.595 53.8442 52.595C49.4199 52.595 45.8333 49.0604 45.8333 44.7003C45.8333 40.3401 49.4199 36.8055 53.8442 36.8055C57.0727 36.8055 59.855 38.6876 61.1233 41.3991H63.8767C65.145 38.6876 67.9274 36.8055 71.1558 36.8055C75.5801 36.8055 79.1667 40.3401 79.1667 44.7003C79.1667 49.0604 75.5801 52.595 71.1558 52.595C67.4187 52.595 64.2794 50.0733 63.3942 46.6623H61.6058Z" fill="#D32D27"/>
<path d="M61.6058 46.6623V44.6623H60.0586L59.6699 46.1599L61.6058 46.6623ZM61.1233 41.3991L59.3117 42.2465L59.8508 43.3991H61.1233V41.3991ZM63.8767 41.3991V43.3991H65.1492L65.6883 42.2465L63.8767 41.3991ZM63.3942 46.6623L65.3301 46.1599L64.9415 44.6623H63.3942V46.6623ZM59.6699 46.1599C59.0126 48.693 56.6661 50.595 53.8442 50.595V54.595C58.4965 54.595 62.4287 51.4535 63.5417 47.1646L59.6699 46.1599ZM53.8442 50.595C50.4969 50.595 47.8333 47.9284 47.8333 44.7003H43.8333C43.8333 50.1924 48.343 54.595 53.8442 54.595V50.595ZM47.8333 44.7003C47.8333 41.4721 50.4969 38.8055 53.8442 38.8055V34.8055C48.343 34.8055 43.8333 39.2081 43.8333 44.7003H47.8333ZM53.8442 38.8055C56.2798 38.8055 58.3653 40.2232 59.3117 42.2465L62.9349 40.5518C61.3447 37.152 57.8655 34.8055 53.8442 34.8055V38.8055ZM61.1233 43.3991H63.8767V39.3991H61.1233V43.3991ZM65.6883 42.2465C66.6347 40.2232 68.7202 38.8055 71.1558 38.8055V34.8055C67.1345 34.8055 63.6553 37.152 62.0651 40.5518L65.6883 42.2465ZM71.1558 38.8055C74.5031 38.8055 77.1667 41.4721 77.1667 44.7003H81.1667C81.1667 39.2081 76.657 34.8055 71.1558 34.8055V38.8055ZM77.1667 44.7003C77.1667 47.9284 74.5031 50.595 71.1558 50.595V54.595C76.657 54.595 81.1667 50.1924 81.1667 44.7003H77.1667ZM71.1558 50.595C68.334 50.595 65.9874 48.693 65.3301 46.1599L61.4583 47.1646C62.5713 51.4535 66.5035 54.595 71.1558 54.595V50.595ZM63.3942 44.6623H61.6058V48.6623H63.3942V44.6623Z" fill="#264887" mask="url(#path-11-inside-3)"/>
<mask id="path-13-inside-4" fill="white">
<path fill-rule="evenodd" clip-rule="evenodd" d="M62.5 22.3943C58.5999 18.8294 51.6575 19.8981 49.5814 25.6005L47.4546 31.4423C41.8146 32.714 38.1944 34.6846 38.1944 36.8967C38.1944 40.732 49.0764 43.8412 62.5 43.8412C75.9236 43.8412 86.8056 40.732 86.8056 36.8967C86.8056 34.6846 83.1854 32.714 77.5454 31.4423L75.4185 25.6005C73.3425 19.8981 66.4001 18.8294 62.5 22.3943Z"/>
</mask>
<g filter="url(#filter4_i)">
<path fill-rule="evenodd" clip-rule="evenodd" d="M62.5 22.3943C58.5999 18.8294 51.6575 19.8981 49.5814 25.6005L47.4546 31.4423C41.8146 32.714 38.1944 34.6846 38.1944 36.8967C38.1944 40.732 49.0764 43.8412 62.5 43.8412C75.9236 43.8412 86.8056 40.732 86.8056 36.8967C86.8056 34.6846 83.1854 32.714 77.5454 31.4423L75.4185 25.6005C73.3425 19.8981 66.4001 18.8294 62.5 22.3943Z" fill="white"/>
</g>
<path d="M62.5 22.3943L61.1506 23.8705L62.5 25.1039L63.8493 23.8705L62.5 22.3943ZM49.5814 25.6005L47.7021 24.9163L49.5814 25.6005ZM47.4546 31.4423L47.8946 33.3933L48.9602 33.153L49.334 32.1265L47.4546 31.4423ZM77.5454 31.4423L75.666 32.1265L76.0397 33.153L77.1054 33.3933L77.5454 31.4423ZM75.4185 25.6005L73.5392 26.2847V26.2847L75.4185 25.6005ZM63.8494 20.9181C59 16.4855 50.3118 17.7482 47.7021 24.9163L51.4608 26.2847C53.0032 22.048 58.1998 21.1733 61.1506 23.8705L63.8494 20.9181ZM47.7021 24.9163L45.5753 30.7581L49.334 32.1265L51.4608 26.2847L47.7021 24.9163ZM47.0147 29.4913C44.0989 30.1488 41.5661 31.0146 39.7107 32.0841C37.9932 33.0742 36.1944 34.6352 36.1944 36.8967H40.1944C40.1944 36.8958 40.1944 36.8928 40.1958 36.886C40.1973 36.8788 40.2012 36.8633 40.2113 36.8387C40.232 36.7883 40.2803 36.6964 40.3879 36.5665C40.6129 36.2951 41.0268 35.9425 41.7084 35.5496C43.0731 34.7629 45.1704 34.0076 47.8946 33.3933L47.0147 29.4913ZM36.1944 36.8967C36.1944 38.8706 37.5784 40.307 38.985 41.2571C40.4613 42.2544 42.4662 43.0737 44.7639 43.7302C49.3867 45.051 55.6567 45.8412 62.5 45.8412V41.8412C55.9198 41.8412 50.037 41.0768 45.8628 39.8841C43.7621 39.2839 42.2075 38.6069 41.224 37.9425C40.7362 37.613 40.4581 37.3327 40.3142 37.1317C40.2457 37.036 40.2164 36.9707 40.2044 36.9369C40.1985 36.9201 40.1962 36.9096 40.1953 36.9047C40.1945 36.9 40.1944 36.8977 40.1944 36.8967H36.1944ZM62.5 45.8412C69.3433 45.8412 75.6133 45.051 80.2361 43.7302C82.5338 43.0737 84.5387 42.2544 86.015 41.2571C87.4216 40.307 88.8056 38.8706 88.8056 36.8967H84.8056C84.8056 36.8977 84.8055 36.9 84.8047 36.9047C84.8038 36.9096 84.8016 36.9201 84.7956 36.9369C84.7836 36.9707 84.7543 37.036 84.6858 37.1317C84.5419 37.3327 84.2638 37.613 83.776 37.9425C82.7925 38.6069 81.2379 39.2839 79.1372 39.8841C74.963 41.0768 69.0802 41.8412 62.5 41.8412V45.8412ZM88.8056 36.8967C88.8056 34.6352 87.0068 33.0742 85.2893 32.0841C83.4339 31.0146 80.9011 30.1488 77.9853 29.4913L77.1054 33.3933C79.8296 34.0076 81.9269 34.7629 83.2916 35.5496C83.9732 35.9425 84.3871 36.2951 84.6121 36.5665C84.7197 36.6964 84.768 36.7883 84.7887 36.8387C84.7988 36.8633 84.8027 36.8788 84.8042 36.886C84.8056 36.8928 84.8056 36.8958 84.8056 36.8967H88.8056ZM73.5392 26.2847L75.666 32.1265L79.4247 30.7581L77.2979 24.9163L73.5392 26.2847ZM63.8493 23.8705C66.8002 21.1733 71.9968 22.048 73.5392 26.2847L77.2979 24.9163C74.6882 17.7482 66 16.4855 61.1507 20.9181L63.8493 23.8705Z" fill="#264887" mask="url(#path-13-inside-4)"/>
<path d="M58.722 34.5634C57.7139 35.218 56.366 34.9315 55.7114 33.9235C55.0567 32.9154 55.3432 31.5675 56.3513 30.9128C57.3594 30.2582 58.7073 30.5447 59.3619 31.5528C60.0166 32.5608 59.7301 33.9087 58.722 34.5634Z" stroke="#D32D27" stroke-width="2"/>
<path d="M59.9531 31.2751L67.5663 26.331" stroke="#D32D27" stroke-width="2" stroke-linecap="square"/>
<path d="M68.0533 26.5758L69.591 28.9438" stroke="#D32D27" stroke-width="2" stroke-linecap="square"/>
<path d="M64.3986 28.8195L65.3597 30.2995" stroke="#D32D27" stroke-width="2" stroke-linecap="square"/>
<rect width="4.16666" height="4.16666" transform="matrix(0.707107 -0.707106 0.707107 0.707106 98.4426 74.3055)" stroke="#B5D9F1" stroke-width="2" stroke-linecap="round" stroke-linejoin="round"/>
<path fill-rule="evenodd" clip-rule="evenodd" d="M26.3889 65.9722C27.5395 65.9722 28.4722 65.0395 28.4722 63.8889C28.4722 62.7383 27.5395 61.8055 26.3889 61.8055C25.2383 61.8055 24.3056 62.7383 24.3056 63.8889C24.3056 65.0395 25.2383 65.9722 26.3889 65.9722Z" stroke="#B5D9F1" stroke-width="2" stroke-linecap="round" stroke-linejoin="round"/>
<rect x="22.9167" y="31.25" width="4.16667" height="4.16667" stroke="#B5D9F1" stroke-width="2" stroke-linecap="round" stroke-linejoin="round"/>
<path d="M86.2534 23.7534L89.4985 26.9984" stroke="#B5D9F1" stroke-width="2" stroke-linecap="round" stroke-linejoin="round"/>
<path d="M89.3841 23.7534L86.1391 26.9984" stroke="#B5D9F1" stroke-width="2" stroke-linecap="round" stroke-linejoin="round"/>
<defs>
<filter id="filter0_i" x="31.6389" y="44.1389" width="61.7222" height="50.2017" filterUnits="userSpaceOnUse" color-interpolation-filters="sRGB">
<feFlood flood-opacity="0" result="BackgroundImageFix"/>
<feBlend mode="normal" in="SourceGraphic" in2="BackgroundImageFix" result="shape"/>
<feColorMatrix in="SourceAlpha" type="matrix" values="0 0 0 0 0 0 0 0 0 0 0 0 0 0 0 0 0 0 127 0" result="hardAlpha"/>
<feOffset dx="-6" dy="-7"/>
<feComposite in2="hardAlpha" operator="arithmetic" k2="-1" k3="1"/>
<feColorMatrix type="matrix" values="0 0 0 0 0.709804 0 0 0 0 0.85098 0 0 0 0 0.945098 0 0 0 1 0"/>
<feBlend mode="normal" in2="shape" result="effect1_innerShadow"/>
</filter>
<filter id="filter1_i" x="45.8333" y="29.1666" width="33.3333" height="33.3333" filterUnits="userSpaceOnUse" color-interpolation-filters="sRGB">
<feFlood flood-opacity="0" result="BackgroundImageFix"/>
<feBlend mode="normal" in="SourceGraphic" in2="BackgroundImageFix" result="shape"/>
<feColorMatrix in="SourceAlpha" type="matrix" values="0 0 0 0 0 0 0 0 0 0 0 0 0 0 0 0 0 0 127 0" result="hardAlpha"/>
<feOffset dx="6" dy="-5"/>
<feComposite in2="hardAlpha" operator="arithmetic" k2="-1" k3="1"/>
<feColorMatrix type="matrix" values="0 0 0 0 0.564706 0 0 0 0 0.776471 0 0 0 0 0.921569 0 0 0 1 0"/>
<feBlend mode="normal" in2="shape" result="effect1_innerShadow"/>
</filter>
<filter id="filter2_di" x="62.5" y="42.9928" width="27.142" height="45.0646" filterUnits="userSpaceOnUse" color-interpolation-filters="sRGB">
<feFlood flood-opacity="0" result="BackgroundImageFix"/>
<feColorMatrix in="SourceAlpha" type="matrix" values="0 0 0 0 0 0 0 0 0 0 0 0 0 0 0 0 0 0 127 0"/>
<feOffset dx="3" dy="1"/>
<feColorMatrix type="matrix" values="0 0 0 0 0.709804 0 0 0 0 0.85098 0 0 0 0 0.945098 0 0 0 1 0"/>
<feBlend mode="normal" in2="BackgroundImageFix" result="effect1_dropShadow"/>
<feBlend mode="normal" in="SourceGraphic" in2="effect1_dropShadow" result="shape"/>
<feColorMatrix in="SourceAlpha" type="matrix" values="0 0 0 0 0 0 0 0 0 0 0 0 0 0 0 0 0 0 127 0" result="hardAlpha"/>
<feOffset dx="-5" dy="1"/>
<feComposite in2="hardAlpha" operator="arithmetic" k2="-1" k3="1"/>
<feColorMatrix type="matrix" values="0 0 0 0 0.709804 0 0 0 0 0.85098 0 0 0 0 0.945098 0 0 0 1 0"/>
<feBlend mode="normal" in2="shape" result="effect2_innerShadow"/>
</filter>
<filter id="filter3_i" x="39.467" y="43.0555" width="23.033" height="41.6667" filterUnits="userSpaceOnUse" color-interpolation-filters="sRGB">
<feFlood flood-opacity="0" result="BackgroundImageFix"/>
<feBlend mode="normal" in="SourceGraphic" in2="BackgroundImageFix" result="shape"/>
<feColorMatrix in="SourceAlpha" type="matrix" values="0 0 0 0 0 0 0 0 0 0 0 0 0 0 0 0 0 0 127 0" result="hardAlpha"/>
<feOffset dy="10"/>
<feComposite in2="hardAlpha" operator="arithmetic" k2="-1" k3="1"/>
<feColorMatrix type="matrix" values="0 0 0 0 0.709804 0 0 0 0 0.85098 0 0 0 0 0.945098 0 0 0 1 0"/>
<feBlend mode="normal" in2="shape" result="effect1_innerShadow"/>
</filter>
<filter id="filter4_i" x="38.1944" y="20.3373" width="48.6111" height="23.5039" filterUnits="userSpaceOnUse" color-interpolation-filters="sRGB">
<feFlood flood-opacity="0" result="BackgroundImageFix"/>
<feBlend mode="normal" in="SourceGraphic" in2="BackgroundImageFix" result="shape"/>
<feColorMatrix in="SourceAlpha" type="matrix" values="0 0 0 0 0 0 0 0 0 0 0 0 0 0 0 0 0 0 127 0" result="hardAlpha"/>
<feOffset dx="6" dy="-5"/>
<feComposite in2="hardAlpha" operator="arithmetic" k2="-1" k3="1"/>
<feColorMatrix type="matrix" values="0 0 0 0 0.709804 0 0 0 0 0.85098 0 0 0 0 0.945098 0 0 0 1 0"/>
<feBlend mode="normal" in2="shape" result="effect1_innerShadow"/>
</filter>
</defs>
</svg>
