<svg width="36" height="47" viewBox="0 0 36 47" fill="none" xmlns="http://www.w3.org/2000/svg">
<path d="M0 0H32C34.2091 0 36 1.79086 36 4V43C36 45.2091 34.2091 47 32 47H0V0Z" fill="#41536B"/>
<g clip-path="url(#clip0)">
<g clip-path="url(#clip1)">
<path d="M13 24C12.9997 23.7819 13.046 23.5663 13.1356 23.3675C13.2253 23.1688 13.3563 22.9914 13.52 22.8473L20.9547 16.3066C21.201 16.0999 21.5185 15.9978 21.8392 16.0221C22.1599 16.0464 22.4583 16.1952 22.6707 16.4367C22.8831 16.6782 22.9926 16.9932 22.9758 17.3143C22.959 17.6355 22.8171 17.9373 22.5807 18.1553L16.0793 23.8746C16.0615 23.8903 16.0472 23.9096 16.0374 23.9312C16.0276 23.9528 16.0225 23.9762 16.0225 24C16.0225 24.0237 16.0276 24.0472 16.0374 24.0688C16.0472 24.0904 16.0615 24.1097 16.0793 24.1253L22.5807 29.8446C22.7064 29.9501 22.8097 30.0797 22.8847 30.2257C22.9596 30.3717 23.0046 30.5312 23.017 30.6949C23.0294 30.8585 23.009 31.023 22.9569 31.1786C22.9048 31.3342 22.8221 31.4779 22.7138 31.6011C22.6054 31.7243 22.4734 31.8247 22.3257 31.8962C22.178 31.9677 22.0175 32.0089 21.8536 32.0175C21.6897 32.0261 21.5258 32.0019 21.3714 31.9462C21.217 31.8905 21.0753 31.8045 20.9547 31.6933L13.5227 25.1546C13.3586 25.0103 13.2272 24.8327 13.137 24.6336C13.0469 24.4345 13.0002 24.2185 13 24Z" fill="white"/>
</g>
</g>
<defs>
<clipPath id="clip0">
<rect width="16" height="16" fill="white" transform="translate(10 16)"/>
</clipPath>
<clipPath id="clip1">
<rect width="16" height="16" fill="white" transform="translate(26 16) rotate(90)"/>
</clipPath>
</defs>
</svg>
