<svg width="8" height="6" viewBox="0 0 8 6" fill="none" xmlns="http://www.w3.org/2000/svg">
<path d="M4.00001 0.500007C4.10904 0.499872 4.21685 0.522994 4.31623 0.567828C4.41562 0.612663 4.50429 0.67818 4.57635 0.760007L7.84668 4.47734C7.95004 4.60052 8.00111 4.75926 7.98896 4.9196C7.97681 5.07995 7.90241 5.22917 7.78166 5.33538C7.66092 5.44158 7.50342 5.49632 7.34283 5.48791C7.18225 5.47949 7.03133 5.40858 6.92235 5.29034L4.06268 2.03967C4.05486 2.03075 4.04522 2.0236 4.03442 2.0187C4.02361 2.0138 4.01188 2.01127 4.00001 2.01127C3.98815 2.01127 3.97642 2.0138 3.96561 2.0187C3.95481 2.0236 3.94517 2.03075 3.93735 2.03967L1.07768 5.29034C1.02494 5.3532 0.960158 5.40488 0.887154 5.44234C0.81415 5.47981 0.734394 5.5023 0.652573 5.5085C0.570751 5.5147 0.488516 5.50448 0.4107 5.47845C0.332885 5.45241 0.261058 5.41108 0.199444 5.35689C0.13783 5.30269 0.0876708 5.23673 0.0519147 5.16287C0.0161581 5.08902 -0.00447369 5.00876 -0.00876808 4.92682C-0.0130625 4.84487 -0.000933647 4.7629 0.026907 4.68571C0.0547471 4.60852 0.0977359 4.53768 0.153347 4.47734L3.42268 0.76134C3.49486 0.679311 3.58367 0.613584 3.68322 0.568526C3.78276 0.523468 3.89075 0.500111 4.00001 0.500007Z" fill="#41536B"/>
</svg>
