<svg width="64" height="64" viewBox="0 0 64 64" fill="none" xmlns="http://www.w3.org/2000/svg">
<path fill-rule="evenodd" clip-rule="evenodd" d="M32 64C49.6731 64 64 49.6731 64 32C64 14.3269 49.6731 0 32 0C14.3269 0 0 14.3269 0 32C0 49.6731 14.3269 64 32 64Z" fill="#EBF5FB"/>
<g clip-path="url(#clip0)">
<g filter="url(#filter0_i)">
<path fill-rule="evenodd" clip-rule="evenodd" d="M50.8444 15.6444C50.8444 14.8589 50.2077 14.2222 49.4222 14.2222H14.5778C13.7923 14.2222 13.1555 14.8589 13.1555 15.6444V46.9333C13.1555 47.7188 13.7923 48.3555 14.5778 48.3555H49.4222C50.2077 48.3555 50.8444 47.7188 50.8444 46.9333V15.6444Z" fill="white"/>
</g>
<path fill-rule="evenodd" clip-rule="evenodd" d="M50.8444 15.6444C50.8444 14.8589 50.2077 14.2222 49.4222 14.2222H14.5778C13.7923 14.2222 13.1555 14.8589 13.1555 15.6444V46.9333C13.1555 47.7188 13.7923 48.3555 14.5778 48.3555H49.4222C50.2077 48.3555 50.8444 47.7188 50.8444 46.9333V15.6444Z" stroke="#1C315F" stroke-width="0.711111" stroke-linecap="round" stroke-dasharray="133.33 2.49 0.36 1.42"/>
<rect x="17.4222" y="18.8443" width="29.1556" height="4.62222" rx="0.711111" fill="white" stroke="#1C315F" stroke-width="0.711111"/>
<path d="M19.2993 21.7582C19.2993 21.4388 19.3757 21.1957 19.5284 21.0291C19.6812 20.8624 19.8988 20.7791 20.1812 20.7791C20.4613 20.7791 20.6778 20.8636 20.8305 21.0326C20.9856 21.1992 21.0632 21.4411 21.0632 21.7582C21.0632 22.0707 20.9856 22.3126 20.8305 22.4839C20.6754 22.6552 20.459 22.7409 20.1812 22.7409C19.9034 22.7409 19.687 22.6576 19.5319 22.4909C19.3768 22.3219 19.2993 22.0777 19.2993 21.7582ZM21.9729 21.7582C21.9729 21.4388 22.0493 21.1957 22.2021 21.0291C22.3548 20.8624 22.5724 20.7791 22.8548 20.7791C23.1349 20.7791 23.3514 20.8636 23.5041 21.0326C23.6592 21.1992 23.7368 21.4411 23.7368 21.7582C23.7368 22.0707 23.6592 22.3126 23.5041 22.4839C23.3491 22.6552 23.1326 22.7409 22.8548 22.7409C22.5771 22.7409 22.3606 22.6576 22.2055 22.4909C22.0504 22.3219 21.9729 22.0777 21.9729 21.7582ZM24.6465 21.7582C24.6465 21.4388 24.7229 21.1957 24.8757 21.0291C25.0284 20.8624 25.246 20.7791 25.5284 20.7791C25.8085 20.7791 26.025 20.8636 26.1778 21.0326C26.3328 21.1992 26.4104 21.4411 26.4104 21.7582C26.4104 22.0707 26.3328 22.3126 26.1778 22.4839C26.0227 22.6552 25.8062 22.7409 25.5284 22.7409C25.2507 22.7409 25.0342 22.6576 24.8791 22.4909C24.7241 22.3219 24.6465 22.0777 24.6465 21.7582ZM27.3201 21.7582C27.3201 21.4388 27.3965 21.1957 27.5493 21.0291C27.7021 20.8624 27.9197 20.7791 28.2021 20.7791C28.4822 20.7791 28.6986 20.8636 28.8514 21.0326C29.0065 21.1992 29.084 21.4411 29.084 21.7582C29.084 22.0707 29.0065 22.3126 28.8514 22.4839C28.6963 22.6552 28.4798 22.7409 28.2021 22.7409C27.9243 22.7409 27.7078 22.6576 27.5528 22.4909C27.3977 22.3219 27.3201 22.0777 27.3201 21.7582ZM29.9937 21.7582C29.9937 21.4388 30.0701 21.1957 30.2229 21.0291C30.3757 20.8624 30.5933 20.7791 30.8757 20.7791C31.1558 20.7791 31.3722 20.8636 31.525 21.0326C31.6801 21.1992 31.7576 21.4411 31.7576 21.7582C31.7576 22.0707 31.6801 22.3126 31.525 22.4839C31.3699 22.6552 31.1534 22.7409 30.8757 22.7409C30.5979 22.7409 30.3815 22.6576 30.2264 22.4909C30.0713 22.3219 29.9937 22.0777 29.9937 21.7582ZM32.6673 21.7582C32.6673 21.4388 32.7437 21.1957 32.8965 21.0291C33.0493 20.8624 33.2669 20.7791 33.5493 20.7791C33.8294 20.7791 34.0458 20.8636 34.1986 21.0326C34.3537 21.1992 34.4312 21.4411 34.4312 21.7582C34.4312 22.0707 34.3537 22.3126 34.1986 22.4839C34.0435 22.6552 33.8271 22.7409 33.5493 22.7409C33.2715 22.7409 33.0551 22.6576 32.9 22.4909C32.7449 22.3219 32.6673 22.0777 32.6673 21.7582Z" fill="#D22D27"/>
<rect x="17.4222" y="25.2445" width="29.1556" height="4.62222" rx="0.711111" fill="white" stroke="#1C315F" stroke-width="0.711111"/>
<rect x="17.4222" y="31.6444" width="13.5111" height="4.62222" rx="0.711111" fill="white" stroke="#1C315F" stroke-width="0.711111"/>
<rect x="33.0666" y="31.6444" width="13.5111" height="4.62222" rx="0.711111" fill="white" stroke="#1C315F" stroke-width="0.711111"/>
<path d="M19.3819 26.0833H19.7541V28.8638H19.3819V26.0833Z" fill="#86C1E9"/>
<rect x="17.0666" y="38.0444" width="29.5111" height="5.68889" rx="1.06667" fill="#86C1E9"/>
</g>
<path d="M19.5556 53.3333H44.8" stroke="#C2E0F4" stroke-width="0.711111" stroke-linecap="round" stroke-dasharray="0.36 2.13 58.31 1.78"/>
<rect x="5.95818" y="35.2" width="2.13333" height="2.13333" transform="rotate(-45 5.95818 35.2)" stroke="#C2E0F4" stroke-width="0.711111" stroke-linecap="round" stroke-linejoin="round"/>
<path fill-rule="evenodd" clip-rule="evenodd" d="M21.3333 8.88895C21.9224 8.88895 22.4 8.41139 22.4 7.82228C22.4 7.23318 21.9224 6.75562 21.3333 6.75562C20.7442 6.75562 20.2667 7.23318 20.2667 7.82228C20.2667 8.41139 20.7442 8.88895 21.3333 8.88895Z" stroke="#C2E0F4" stroke-width="0.711111"/>
<path d="M54.8284 26.0284L56.4899 27.6899" stroke="#C2E0F4" stroke-width="0.568889" stroke-linecap="round"/>
<path d="M56.4313 26.0284L54.7699 27.6899" stroke="#C2E0F4" stroke-width="0.568889" stroke-linecap="round"/>
<defs>
<filter id="filter0_i" x="12.8" y="13.8667" width="38.4" height="34.8444" filterUnits="userSpaceOnUse" color-interpolation-filters="sRGB">
<feFlood flood-opacity="0" result="BackgroundImageFix"/>
<feBlend mode="normal" in="SourceGraphic" in2="BackgroundImageFix" result="shape"/>
<feColorMatrix in="SourceAlpha" type="matrix" values="0 0 0 0 0 0 0 0 0 0 0 0 0 0 0 0 0 0 127 0" result="hardAlpha"/>
<feOffset dx="-2.13333" dy="-2.48889"/>
<feComposite in2="hardAlpha" operator="arithmetic" k2="-1" k3="1"/>
<feColorMatrix type="matrix" values="0 0 0 0 0.760784 0 0 0 0 0.878431 0 0 0 0 0.956863 0 0 0 1 0"/>
<feBlend mode="normal" in2="shape" result="effect1_innerShadow"/>
</filter>
<clipPath id="clip0">
<rect width="37.6889" height="34.1333" fill="white" transform="translate(13.1556 14.2222)"/>
</clipPath>
</defs>
</svg>
