<svg xmlns="http://www.w3.org/2000/svg" width="64" height="64" viewBox="0 0 64 64">
    <g fill="none" fill-rule="evenodd">
        <path fill="#B5E1E3" d="M23 22v2l2 4 2.953 1.136L32 27l4 2 4-2 1-5z"/>
        <path stroke="#325D5D" stroke-width="2" d="M40.151 24.87c-.015.037-.07.192-.145.415-.103.31-.168.5-.2.589-.04.103-.113.27-.232.528a5.55 5.55 0 0 1-.289.57 30.26 30.26 0 0 1-.252.394c-.188.29-.383.51-.625.664-.084.053-.197.13-.338.23-.258.182-.537.31-.833.376-.178.04-.377.079-.599.117a4.847 4.847 0 0 1-.833.07c-.803 0-1.496-.148-2.07-.46-.573-.313-1.008-.715-1.278-1.214A5.835 5.835 0 0 1 32 26.071c-.11.36-.262.719-.457 1.078-.27.5-.705.901-1.278 1.213-.574.313-1.267.46-2.07.46-.29 0-.568-.023-.833-.069-.222-.038-.421-.077-.6-.117a2.306 2.306 0 0 1-.832-.376c-.14-.1-.254-.177-.338-.23-.242-.155-.437-.375-.625-.664a30.26 30.26 0 0 1-.252-.394 5.55 5.55 0 0 1-.29-.57 9.134 9.134 0 0 1-.23-.528 22.261 22.261 0 0 1-.201-.59c-.074-.222-.13-.377-.145-.415a1.465 1.465 0 0 1-.346-.36l-.104-.155-.04-.183a8.268 8.268 0 0 1-.126-.836l-.032-.293.131-.264c.08-.16.173-.3.295-.422l.083-.074c.458-.367 1.279-.436 3.216-.436 1.33 0 2.895.179 4.782.553.02.005.125.015.292.015.167 0 .273-.01.374-.035 1.805-.354 3.37-.533 4.7-.533 1.937 0 2.758.069 3.216.436l.083.074c.122.123.214.262.295.422l.131.264-.032.293c-.04.357-.08.632-.126.836l-.04.183-.104.155a1.465 1.465 0 0 1-.346.36zm5.967 2.438h-5.746l.451-1.323a9.479 9.479 0 0 0 .49-3.918l-.076-.886.87-.18c1.669-.344 2.903-.718 3.685-1.106.569-.282.753-.48.753-.51 0-.022-.212-.238-.844-.536-.857-.405-2.203-.797-4.02-1.161l-.605-.121-.163-.596c-.289-1.057-.731-2.21-1.327-3.456-.586-1.225-1.176-2.18-1.758-2.861-.391-.453-.802-.654-1.294-.654-.324 0-.935.226-1.768.705-1.11.639-2.01.972-2.766.972-.755 0-1.655-.333-2.766-.972-.833-.479-1.444-.705-1.768-.705-.492 0-.903.2-1.291.65-.585.684-1.175 1.64-1.76 2.865-.597 1.247-1.04 2.4-1.328 3.456l-.163.596-.605.12c-1.817.365-3.163.757-4.02 1.162-.632.298-.844.514-.844.536 0 .03.184.228.753.51.782.388 2.016.762 3.685 1.106l.882.183-.09.896c-.033.33-.049.588-.049.766 0 1.042.18 2.086.54 3.137l.454 1.325h-5.687l2.219 5.435-.837.412c-.826.405-1.556.989-2.197 1.757a9.95 9.95 0 0 0-1.559 2.544c-.389.932-.708 1.985-.956 3.161a25.704 25.704 0 0 0-.495 3.266A39.644 39.644 0 0 0 14 46.996c0 1.92.555 3.368 1.658 4.412C16.775 52.466 18.273 53 20.206 53h23.588c1.933 0 3.43-.534 4.548-1.592C49.445 50.364 50 48.916 50 46.996c0-1.352-.07-2.654-.21-3.905a27.864 27.864 0 0 0-.756-3.955c-.348-1.33-.888-2.515-1.62-3.56-.71-1.018-1.558-1.78-2.546-2.298l-.774-.406 2.024-5.564z"/>
        <g stroke="#325D5D" stroke-width="2" transform="rotate(-30 87.507 -20.553)">
            <circle cx="4.5" cy="4.5" r="3.5"/>
            <path stroke-linecap="square" d="M8.5 4h9.055M14 4.5v3M17 4.5v5"/>
        </g>
    </g>
</svg>
