<svg width="66" height="64" viewBox="0 0 66 64" fill="none" xmlns="http://www.w3.org/2000/svg">
<path fill-rule="evenodd" clip-rule="evenodd" d="M33 64C50.6731 64 65 49.6731 65 32C65 14.3269 50.6731 0 33 0C15.3269 0 1 14.3269 1 32C1 49.6731 15.3269 64 33 64Z" fill="#ECF5FB"/>
<path d="M1 53.5084H65" stroke="#264887" stroke-width="0.711111" stroke-linecap="round" stroke-dasharray="0.36 2.13 58.31 1.78"/>
<path fill-rule="evenodd" clip-rule="evenodd" d="M21.002 48.497C21.0633 48.1586 21.3579 47.9126 21.7017 47.9126H30.3091C30.6529 47.9126 30.9475 48.1586 31.0088 48.497L31.7645 52.6704C31.8436 53.1067 31.5083 53.5082 31.0648 53.5082H20.946C20.5025 53.5082 20.1672 53.1067 20.2463 52.6704L21.002 48.497Z" fill="#90C6EB" stroke="#264887" stroke-width="0.711111"/>
<g filter="url(#filter0_i)">
<path fill-rule="evenodd" clip-rule="evenodd" d="M4.14754 20.6573C4.14754 19.8719 4.78429 19.2351 5.56976 19.2351H46.4412C47.2266 19.2351 47.8634 19.8719 47.8634 20.6573V47.8894C47.8634 48.6749 47.2266 49.3116 46.4412 49.3116H5.56976C4.78429 49.3116 4.14754 48.6749 4.14754 47.8894V20.6573Z" fill="white"/>
</g>
<path fill-rule="evenodd" clip-rule="evenodd" d="M4.14754 20.6573C4.14754 19.8719 4.78429 19.2351 5.56976 19.2351H46.4412C47.2266 19.2351 47.8634 19.8719 47.8634 20.6573V47.8894C47.8634 48.6749 47.2266 49.3116 46.4412 49.3116H5.56976C4.78429 49.3116 4.14754 48.6749 4.14754 47.8894V20.6573Z" stroke="#264887" stroke-width="0.711111" stroke-linecap="round" stroke-dasharray="67.56 2.49 0.36 1.78"/>
<path fill-rule="evenodd" clip-rule="evenodd" d="M6.94535 21.6831H45.4153V45.8609H6.94535V21.6831Z" fill="#90C6EB" stroke="#264887" stroke-width="0.711111"/>
<path d="M11.4918 26.9408C11.4918 26.5481 11.8102 26.2297 12.2029 26.2297H41.9064C42.2991 26.2297 42.6175 26.5481 42.6175 26.9408V43.3663H11.4918V26.9408Z" fill="white" stroke="#264887" stroke-width="0.711111"/>
<rect x="12.1913" y="29.3772" width="6.64481" height="13.2896" fill="#90C6EB" stroke="#90C6EB" stroke-width="0.711111"/>
<rect x="19.8852" y="29.3772" width="21.6831" height="2.44809" fill="#90C6EB"/>
<path fill-rule="evenodd" clip-rule="evenodd" d="M13.0444 28.1743C12.8395 27.9694 12.8395 27.6374 13.0444 27.4325C13.2493 27.2276 13.5813 27.2276 13.7862 27.4325C13.9911 27.6374 13.9911 27.9694 13.7862 28.1743C13.5813 28.3792 13.2493 28.3792 13.0444 28.1743Z" fill="#D32D27"/>
<path fill-rule="evenodd" clip-rule="evenodd" d="M15.5349 28.1743C15.33 28.3792 14.9979 28.3792 14.793 28.1743C14.5881 27.9694 14.5881 27.6374 14.793 27.4325C14.9979 27.2276 15.33 27.2276 15.5349 27.4325C15.7397 27.6374 15.7397 27.9694 15.5349 28.1743Z" fill="#D32D27"/>
<path fill-rule="evenodd" clip-rule="evenodd" d="M17.2835 28.1743C17.0786 28.3792 16.7465 28.3792 16.5416 28.1743C16.3368 27.9694 16.3368 27.6374 16.5416 27.4325C16.7465 27.2276 17.0786 27.2276 17.2835 27.4325C17.4884 27.6374 17.4884 27.9694 17.2835 28.1743Z" fill="#D32D27"/>
<rect x="27.5792" y="37.7705" width="5.94536" height="3.14754" rx="0.355556" fill="#90C6EB"/>
<path fill-rule="evenodd" clip-rule="evenodd" d="M20.235 38.1261C20.235 37.9297 20.3942 37.7705 20.5905 37.7705H25.8248C26.0211 37.7705 26.1803 37.9297 26.1803 38.1261V40.5625C26.1803 40.7589 26.0211 40.918 25.8248 40.918H20.5905C20.3942 40.918 20.235 40.7589 20.235 40.5625V38.1261Z" fill="#90C6EB"/>
<path fill-rule="evenodd" clip-rule="evenodd" d="M20.235 33.9295C20.235 33.7332 20.3942 33.574 20.5905 33.574H25.8248C26.0211 33.574 26.1803 33.7332 26.1803 33.9295V36.366C26.1803 36.5623 26.0211 36.7215 25.8248 36.7215H20.5905C20.3942 36.7215 20.235 36.5623 20.235 36.366V33.9295Z" fill="#90C6EB"/>
<rect x="27.5792" y="33.574" width="5.94536" height="3.14754" rx="0.355556" fill="#90C6EB"/>
<rect x="34.9235" y="33.574" width="5.94536" height="3.14754" rx="0.355556" fill="#90C6EB"/>
<path fill-rule="evenodd" clip-rule="evenodd" d="M40.5191 33.2474C40.5191 32.4619 41.1559 31.8252 41.9413 31.8252H55.1843C55.9698 31.8252 56.6066 32.4619 56.6066 33.2474V52.086C56.6066 52.8715 55.9698 53.5083 55.1843 53.5083H41.9413C41.1559 53.5083 40.5191 52.8715 40.5191 52.086V33.2474Z" fill="#90C6EB" stroke="#264887" stroke-width="0.711111"/>
<path fill-rule="evenodd" clip-rule="evenodd" d="M49.1086 51.9558C48.9037 52.1607 48.5717 52.1607 48.3668 51.9558C48.1619 51.7509 48.1619 51.4189 48.3668 51.214C48.5717 51.0091 48.9037 51.0091 49.1086 51.214C49.3135 51.4189 49.3135 51.7509 49.1086 51.9558Z" fill="#D32D27"/>
<mask id="mask0" mask-type="alpha" maskUnits="userSpaceOnUse" x="40" y="32" width="17" height="18">
<path fill-rule="evenodd" clip-rule="evenodd" d="M40.8397 32.9561H56.2353V49.3116H40.8397V32.9561Z" fill="white"/>
</mask>
<g mask="url(#mask0)">
<path fill-rule="evenodd" clip-rule="evenodd" d="M33.5886 45.4351L57.4111 35.323L58.6409 38.2203L34.8184 48.3324L33.5886 45.4351Z" fill="white"/>
<path fill-rule="evenodd" clip-rule="evenodd" d="M33.8619 49.9258L57.6844 39.8137L58.3676 41.4234L34.5451 51.5354L33.8619 49.9258Z" fill="white"/>
</g>
<path fill-rule="evenodd" clip-rule="evenodd" d="M35.8444 38.7556H45.8V53.3334H35.8444V38.7556Z" fill="#86C1E9"/>
<mask id="mask1" mask-type="alpha" maskUnits="userSpaceOnUse" x="35" y="38" width="11" height="16">
<path fill-rule="evenodd" clip-rule="evenodd" d="M35.8444 38.7556H45.8V53.3334H35.8444V38.7556Z" fill="white"/>
</mask>
<g mask="url(#mask1)">
<path fill-rule="evenodd" clip-rule="evenodd" d="M23.8568 47.718L61.5316 31.4404L63.4765 36.1043L25.8018 52.3819L23.8568 47.718Z" fill="white"/>
<path fill-rule="evenodd" clip-rule="evenodd" d="M24.289 54.9469L61.9638 38.6694L63.0443 41.2604L25.3695 57.538L24.289 54.9469Z" fill="white"/>
</g>
<rect x="35.623" y="38.47" width="10.4918" height="15.0383" rx="1.42222" stroke="#264887" stroke-width="0.711111"/>
<path fill-rule="evenodd" clip-rule="evenodd" d="M41.3622 52.4512C41.1573 52.6561 40.8252 52.6561 40.6203 52.4512C40.4154 52.2463 40.4154 51.9142 40.6203 51.7093C40.8252 51.5044 41.1573 51.5044 41.3622 51.7093C41.5671 51.9142 41.5671 52.2463 41.3622 52.4512Z" fill="#D32D27"/>
<rect x="53.459" y="38.8198" width="5.2459" height="14.6885" rx="1.42222" fill="#90C6EB" stroke="#264887" stroke-width="0.711111"/>
<g filter="url(#filter1_i)">
<rect x="51.7104" y="41.9673" width="8.74317" height="8.74317" rx="1.42222" fill="white"/>
</g>
<rect x="51.7104" y="41.9673" width="8.74317" height="8.74317" rx="1.42222" stroke="#264887" stroke-width="0.711111" stroke-linecap="round" stroke-dasharray="27.38 2.49 0.36 1.78"/>
<rect x="53.8087" y="44.0657" width="4.54645" height="4.54645" rx="0.711111" fill="#86C1E9" stroke="#3C4862" stroke-width="0.711111"/>
<path fill-rule="evenodd" clip-rule="evenodd" d="M58.3552 45.9729L53.8087 47.9027V46.0031L58.3552 44.0732V45.9729Z" fill="white"/>
<rect x="53.8087" y="44.0657" width="4.54645" height="4.54645" rx="0.711111" stroke="#264887" stroke-width="0.711111"/>
<rect x="61.153" y="45.115" width="0.349727" height="2.44809" rx="0.174863" fill="#D32D27" stroke="#D32D27" stroke-width="0.711111"/>
<path fill-rule="evenodd" clip-rule="evenodd" d="M18.1366 5.94528C18.9092 5.94528 19.5355 5.31896 19.5355 4.54637C19.5355 3.77377 18.9092 3.14746 18.1366 3.14746C17.364 3.14746 16.7377 3.77377 16.7377 4.54637C16.7377 5.31896 17.364 5.94528 18.1366 5.94528Z" stroke="#B5D9F1" stroke-width="0.711111"/>
<rect x="49.9618" y="12.9399" width="2.44809" height="2.44809" stroke="#B5D9F1" stroke-width="0.711111" stroke-linecap="round" stroke-linejoin="round"/>
<rect x="26.1803" y="13.272" width="2.44809" height="2.44809" transform="rotate(-45 26.1803 13.272)" stroke="#B5D9F1" stroke-width="0.711111" stroke-linecap="round" stroke-linejoin="round"/>
<path d="M37.459 6.73221L39.4528 8.72596" stroke="#B5D9F1" stroke-width="0.711111" stroke-linecap="round"/>
<path d="M39.3825 6.73221L37.3888 8.72596" stroke="#B5D9F1" stroke-width="0.711111" stroke-linecap="round"/>
<defs>
<filter id="filter0_i" x="3.79198" y="18.8796" width="44.427" height="30.7876" filterUnits="userSpaceOnUse" color-interpolation-filters="sRGB">
<feFlood flood-opacity="0" result="BackgroundImageFix"/>
<feBlend mode="normal" in="SourceGraphic" in2="BackgroundImageFix" result="shape"/>
<feColorMatrix in="SourceAlpha" type="matrix" values="0 0 0 0 0 0 0 0 0 0 0 0 0 0 0 0 0 0 127 0" result="hardAlpha"/>
<feOffset dx="-2.84444" dy="-2.84444"/>
<feComposite in2="hardAlpha" operator="arithmetic" k2="-1" k3="1"/>
<feColorMatrix type="matrix" values="0 0 0 0 0.709804 0 0 0 0 0.85098 0 0 0 0 0.945098 0 0 0 1 0"/>
<feBlend mode="normal" in2="shape" result="effect1_innerShadow"/>
</filter>
<filter id="filter1_i" x="51.3548" y="41.6118" width="9.45428" height="9.45428" filterUnits="userSpaceOnUse" color-interpolation-filters="sRGB">
<feFlood flood-opacity="0" result="BackgroundImageFix"/>
<feBlend mode="normal" in="SourceGraphic" in2="BackgroundImageFix" result="shape"/>
<feColorMatrix in="SourceAlpha" type="matrix" values="0 0 0 0 0 0 0 0 0 0 0 0 0 0 0 0 0 0 127 0" result="hardAlpha"/>
<feOffset dx="-1.77778" dy="-1.77778"/>
<feComposite in2="hardAlpha" operator="arithmetic" k2="-1" k3="1"/>
<feColorMatrix type="matrix" values="0 0 0 0 0.760784 0 0 0 0 0.878431 0 0 0 0 0.956863 0 0 0 1 0"/>
<feBlend mode="normal" in2="shape" result="effect1_innerShadow"/>
</filter>
</defs>
</svg>
