<svg width="64" height="64" viewBox="0 0 64 64" fill="none" xmlns="http://www.w3.org/2000/svg">
<path fill-rule="evenodd" clip-rule="evenodd" d="M32 64C49.6731 64 64 49.6731 64 32C64 14.3269 49.6731 0 32 0C14.3269 0 0 14.3269 0 32C0 49.6731 14.3269 64 32 64Z" fill="#EBF5FB"/>
<mask id="mask0" mask-type="alpha" maskUnits="userSpaceOnUse" x="0" y="0" width="64" height="64">
<path fill-rule="evenodd" clip-rule="evenodd" d="M32 64C49.6731 64 64 49.6731 64 32C64 14.3269 49.6731 0 32 0C14.3269 0 0 14.3269 0 32C0 49.6731 14.3269 64 32 64Z" fill="white"/>
</mask>
<g mask="url(#mask0)">
<path d="M33.3306 44.4444C33.3262 44.4983 33.3216 44.5574 33.3167 44.6215C33.2893 44.986 33.2562 45.5122 33.2334 46.1624C33.1877 47.4621 33.1828 49.2597 33.3464 51.251C33.6523 54.9735 34.5519 59.4441 36.9399 62.5778H36.9384H36.9097H36.8811H36.8525H36.8241H36.7957H36.7675H36.7393H36.7113H36.6833H36.6554H36.6276H36.5999H36.5723H36.5448H36.5174H36.49H36.4628H36.4356H36.4086H36.3816H36.3547H36.3279H36.3012H36.2745H36.248H36.2215H36.1951H36.1689H36.1427H36.1165H36.0905H36.0645H36.0387H36.0129H35.9872H35.9615H35.936H35.9105H35.8851H35.8598H35.8346H35.8095H35.7844H35.7594H35.7345H35.7097H35.6849H35.6602H35.6356H35.6111H35.5866H35.5623H35.5379H35.5137H35.4896H35.4655H35.4415H35.4175H35.3937H35.3699H35.3461H35.3225H35.2989H35.2754H35.2519H35.2286H35.2053H35.182H35.1589H35.1357H35.1127H35.0897H35.0668H35.044H35.0212H34.9985H34.9759H34.9533H34.9308H34.9083H34.8859H34.8636H34.8413H34.8191H34.797H34.7749H34.7529H34.7309H34.709H34.6872H34.6654H34.6437H34.622H34.6004H34.5788H34.5574H34.5359H34.5145H34.4932H34.4719H34.4507H34.4295H34.4084H34.3874H34.3663H34.3454H34.3245H34.3036H34.2828H34.2621H34.2414H34.2207H34.2001H34.1796H34.1591H34.1386H34.1182H34.0979H34.0776H34.0573H34.0371H34.0169H33.9968H33.9767H33.9567H33.9367H33.9167H33.8968H33.8769H33.8571H33.8373H33.8176H33.7979H33.7782H33.7586H33.739H33.7195H33.7H33.6806H33.6611H33.6417H33.6224H33.6031H33.5838H33.5646H33.5454H33.5262H33.5071H33.488H33.4689H33.4499H33.4309H33.4119H33.393H33.3741H33.3553H33.3364H33.3176H33.2988H33.2801H33.2614H33.2427H33.224H33.2054H33.1868H33.1682H33.1497H33.1312H33.1127H33.0942H33.0758H33.0574H33.039H33.0206H33.0023H32.9839H32.9656H32.9474H32.9291H32.9109H32.8927H32.8745H32.8563H32.8382H32.82H32.8019H32.7838H32.7658H32.7477H32.7297H32.7116H32.6936H32.6757H32.6577H32.6397H32.6218H32.6039H32.5859H32.568H32.5502H32.5323H32.5144H32.4966H32.4787H32.4609H32.4431H32.4253H32.4075H32.3897H32.3719H32.3542H32.3364H32.3186H32.3009H32.2832H32.2654H32.2477H32.23H32.2123H32.1946H32.1769H32.1592H32.1415H32.1238H32.1061H32.0884H32.0707H32.053H32.0354H32.0177H32H31.9823H31.9646H31.947H31.9293H31.9116H31.8939H31.8762H31.8585H31.8408H31.8231H31.8054H31.7877H31.77H31.7523H31.7346H31.7168H31.6991H31.6814H31.6636H31.6458H31.6281H31.6103H31.5925H31.5747H31.5569H31.5391H31.5213H31.5034H31.4856H31.4677H31.4498H31.432H31.4141H31.3961H31.3782H31.3603H31.3423H31.3243H31.3064H31.2884H31.2703H31.2523H31.2342H31.2162H31.1981H31.18H31.1618H31.1437H31.1255H31.1073H31.0891H31.0709H31.0526H31.0344H31.0161H30.9977H30.9794H30.961H30.9426H30.9242H30.9058H30.8873H30.8688H30.8503H30.8318H30.8132H30.7946H30.776H30.7573H30.7386H30.7199H30.7012H30.6824H30.6636H30.6447H30.6259H30.607H30.5881H30.5691H30.5501H30.5311H30.512H30.4929H30.4738H30.4546H30.4354H30.4162H30.3969H30.3776H30.3583H30.3389H30.3195H30.3H30.2805H30.261H30.2414H30.2218H30.2021H30.1824H30.1627H30.1429H30.1231H30.1032H30.0833H30.0633H30.0434H30.0233H30.0032H29.9831H29.9629H29.9427H29.9224H29.9021H29.8818H29.8614H29.8409H29.8204H29.7999H29.7793H29.7586H29.7379H29.7172H29.6964H29.6755H29.6546H29.6337H29.6126H29.5916H29.5705H29.5493H29.5281H29.5068H29.4855H29.4641H29.4427H29.4212H29.3996H29.378H29.3563H29.3346H29.3128H29.291H29.2691H29.2471H29.2251H29.203H29.1809H29.1587H29.1364H29.1141H29.0917H29.0692H29.0467H29.0241H29.0015H28.9788H28.956H28.9332H28.9103H28.8873H28.8643H28.8411H28.818H28.7947H28.7714H28.7481H28.7246H28.7011H28.6775H28.6539H28.6301H28.6063H28.5825H28.5585H28.5345H28.5104H28.4863H28.4621H28.4377H28.4134H28.3889H28.3644H28.3398H28.3151H28.2903H28.2655H28.2406H28.2156H28.1905H28.1654H28.1402H28.1149H28.0895H28.064H28.0385H28.0128H27.9871H27.9613H27.9355H27.9095H27.8835H27.8573H27.8311H27.8049H27.7785H27.752H27.7255H27.6988H27.6721H27.6453H27.6184H27.5914H27.5644H27.5372H27.51H27.4826H27.4552H27.4277H27.4001H27.3724H27.3446H27.3167H27.2887H27.2607H27.2325H27.2043H27.1759H27.1475H27.1189H27.0903H27.078C29.4545 59.5514 30.3489 55.0895 30.6536 51.3503C30.8172 49.3425 30.8123 47.5201 30.7666 46.1999C30.7438 45.5395 30.7107 45.004 30.6833 44.6329C30.6782 44.5644 30.6734 44.5015 30.6688 44.4444H33.3306Z" fill="white" stroke="#264887" stroke-width="0.711111"/>
<mask id="path-4-inside-1" fill="white">
<path fill-rule="evenodd" clip-rule="evenodd" d="M37.1099 56.5521C37.1969 56.3209 37.2444 56.0707 37.2444 55.8094C37.2444 54.6383 36.2893 53.689 35.1111 53.689C33.9329 53.689 32.9778 54.6383 32.9778 55.8094C32.9778 56.6482 33.4679 57.3733 34.179 57.7172C34.092 57.9483 34.0444 58.1986 34.0444 58.4599C34.0444 58.6537 34.0706 58.8415 34.1196 59.0198C32.7738 59.1965 31.6714 60.1404 31.272 61.3951C31.0878 61.4146 30.9078 61.4485 30.7334 61.4957C30.5501 61.2323 30.3083 61.0123 30.0268 60.8539C30.0385 60.7644 30.0444 60.673 30.0444 60.5803C30.0444 60.1438 29.9118 59.7382 29.6843 59.401C30.5153 59.1112 31.1111 58.3246 31.1111 57.3996C31.1111 56.2286 30.156 55.2792 28.9778 55.2792C27.7996 55.2792 26.8444 56.2286 26.8444 57.3996C26.8444 57.8361 26.9771 58.2418 27.2046 58.5789C26.547 58.8083 26.0367 59.3487 25.8523 60.0226C25.2233 59.3853 24.347 58.99 23.3778 58.99C22.1673 58.99 21.1016 59.6067 20.4816 60.5413C20.2634 60.2436 19.91 60.0502 19.5111 60.0502C18.8484 60.0502 18.3111 60.5842 18.3111 61.2429C18.3111 61.5591 18.4349 61.8466 18.637 62.06C18.1155 62.4466 17.7778 63.0645 17.7778 63.7608C17.7778 63.9445 17.8013 64.1228 17.8454 64.2927C17.2132 64.3266 16.7111 64.8469 16.7111 65.4837C16.7111 66.1424 17.2484 66.6764 17.9111 66.6764C18.4933 66.6764 18.9786 66.2644 19.088 65.7177C19.3413 65.823 19.6194 65.8812 19.9111 65.8812C20.4944 65.8812 21.023 65.6486 21.4081 65.2715C21.9675 65.6561 22.6462 65.8813 23.3778 65.8813C24.2152 65.8813 24.9833 65.5862 25.5825 65.0948C25.7497 65.5535 26.1919 65.8813 26.7111 65.8813C27.3739 65.8813 27.9111 65.3473 27.9111 64.6885C27.9111 64.6353 27.9076 64.5829 27.9008 64.5314C27.9903 64.5836 28.0839 64.6294 28.1811 64.6683C28.1789 64.719 28.1778 64.7699 28.1778 64.8211C28.1778 66.7241 29.7299 68.2667 31.6444 68.2667C33.1941 68.2667 34.5063 67.256 34.9502 65.8617C35.29 65.8256 35.6151 65.7407 35.9182 65.6143C35.9837 66.2116 36.4928 66.6764 37.1111 66.6764C37.6933 66.6764 38.1786 66.2644 38.288 65.7177C38.5413 65.823 38.8194 65.8812 39.1111 65.8812C39.6944 65.8812 40.223 65.6486 40.6081 65.2715C41.1675 65.6561 41.8462 65.8813 42.5778 65.8813C43.5095 65.8813 44.3553 65.516 44.9782 64.9217C44.9779 64.9323 44.9778 64.943 44.9778 64.9537C44.9778 65.6124 45.515 66.1464 46.1778 66.1464C46.8405 66.1464 47.3778 65.6124 47.3778 64.9537C47.3778 64.2949 46.8405 63.7609 46.1778 63.7609C46.0247 63.7609 45.8784 63.7894 45.7438 63.8413C45.937 63.4121 46.0444 62.9363 46.0444 62.4357C46.0444 62.4134 46.0442 62.3911 46.0438 62.3689C46.9643 62.1338 47.6444 61.3034 47.6444 60.3152C47.6444 59.1441 46.6893 58.1948 45.5111 58.1948C44.7539 58.1948 44.0888 58.5869 43.7102 59.178C43.3553 59.0562 42.9743 58.99 42.5778 58.99C41.3673 58.99 40.3016 59.6067 39.6816 60.5413C39.5979 60.4271 39.4943 60.3282 39.3759 60.2498C39.3771 60.2276 39.3778 60.2052 39.3778 60.1827C39.3778 59.5459 38.8756 59.0257 38.2434 58.9918C38.2876 58.8218 38.3111 58.6436 38.3111 58.4599C38.3111 57.621 37.821 56.896 37.1099 56.5521ZM42.3111 57.5322C42.3111 58.1909 41.7739 58.7249 41.1111 58.7249C40.4484 58.7249 39.9111 58.1909 39.9111 57.5322C39.9111 56.8735 40.4484 56.3395 41.1111 56.3395C41.7739 56.3395 42.3111 56.8735 42.3111 57.5322ZM24.5778 58.1948C25.2405 58.1948 25.7778 57.6608 25.7778 57.0021C25.7778 56.3434 25.2405 55.8094 24.5778 55.8094C23.915 55.8094 23.3778 56.3434 23.3778 57.0021C23.3778 57.6608 23.915 58.1948 24.5778 58.1948Z"/>
</mask>
<path fill-rule="evenodd" clip-rule="evenodd" d="M37.1099 56.5521C37.1969 56.3209 37.2444 56.0707 37.2444 55.8094C37.2444 54.6383 36.2893 53.689 35.1111 53.689C33.9329 53.689 32.9778 54.6383 32.9778 55.8094C32.9778 56.6482 33.4679 57.3733 34.179 57.7172C34.092 57.9483 34.0444 58.1986 34.0444 58.4599C34.0444 58.6537 34.0706 58.8415 34.1196 59.0198C32.7738 59.1965 31.6714 60.1404 31.272 61.3951C31.0878 61.4146 30.9078 61.4485 30.7334 61.4957C30.5501 61.2323 30.3083 61.0123 30.0268 60.8539C30.0385 60.7644 30.0444 60.673 30.0444 60.5803C30.0444 60.1438 29.9118 59.7382 29.6843 59.401C30.5153 59.1112 31.1111 58.3246 31.1111 57.3996C31.1111 56.2286 30.156 55.2792 28.9778 55.2792C27.7996 55.2792 26.8444 56.2286 26.8444 57.3996C26.8444 57.8361 26.9771 58.2418 27.2046 58.5789C26.547 58.8083 26.0367 59.3487 25.8523 60.0226C25.2233 59.3853 24.347 58.99 23.3778 58.99C22.1673 58.99 21.1016 59.6067 20.4816 60.5413C20.2634 60.2436 19.91 60.0502 19.5111 60.0502C18.8484 60.0502 18.3111 60.5842 18.3111 61.2429C18.3111 61.5591 18.4349 61.8466 18.637 62.06C18.1155 62.4466 17.7778 63.0645 17.7778 63.7608C17.7778 63.9445 17.8013 64.1228 17.8454 64.2927C17.2132 64.3266 16.7111 64.8469 16.7111 65.4837C16.7111 66.1424 17.2484 66.6764 17.9111 66.6764C18.4933 66.6764 18.9786 66.2644 19.088 65.7177C19.3413 65.823 19.6194 65.8812 19.9111 65.8812C20.4944 65.8812 21.023 65.6486 21.4081 65.2715C21.9675 65.6561 22.6462 65.8813 23.3778 65.8813C24.2152 65.8813 24.9833 65.5862 25.5825 65.0948C25.7497 65.5535 26.1919 65.8813 26.7111 65.8813C27.3739 65.8813 27.9111 65.3473 27.9111 64.6885C27.9111 64.6353 27.9076 64.5829 27.9008 64.5314C27.9903 64.5836 28.0839 64.6294 28.1811 64.6683C28.1789 64.719 28.1778 64.7699 28.1778 64.8211C28.1778 66.7241 29.7299 68.2667 31.6444 68.2667C33.1941 68.2667 34.5063 67.256 34.9502 65.8617C35.29 65.8256 35.6151 65.7407 35.9182 65.6143C35.9837 66.2116 36.4928 66.6764 37.1111 66.6764C37.6933 66.6764 38.1786 66.2644 38.288 65.7177C38.5413 65.823 38.8194 65.8812 39.1111 65.8812C39.6944 65.8812 40.223 65.6486 40.6081 65.2715C41.1675 65.6561 41.8462 65.8813 42.5778 65.8813C43.5095 65.8813 44.3553 65.516 44.9782 64.9217C44.9779 64.9323 44.9778 64.943 44.9778 64.9537C44.9778 65.6124 45.515 66.1464 46.1778 66.1464C46.8405 66.1464 47.3778 65.6124 47.3778 64.9537C47.3778 64.2949 46.8405 63.7609 46.1778 63.7609C46.0247 63.7609 45.8784 63.7894 45.7438 63.8413C45.937 63.4121 46.0444 62.9363 46.0444 62.4357C46.0444 62.4134 46.0442 62.3911 46.0438 62.3689C46.9643 62.1338 47.6444 61.3034 47.6444 60.3152C47.6444 59.1441 46.6893 58.1948 45.5111 58.1948C44.7539 58.1948 44.0888 58.5869 43.7102 59.178C43.3553 59.0562 42.9743 58.99 42.5778 58.99C41.3673 58.99 40.3016 59.6067 39.6816 60.5413C39.5979 60.4271 39.4943 60.3282 39.3759 60.2498C39.3771 60.2276 39.3778 60.2052 39.3778 60.1827C39.3778 59.5459 38.8756 59.0257 38.2434 58.9918C38.2876 58.8218 38.3111 58.6436 38.3111 58.4599C38.3111 57.621 37.821 56.896 37.1099 56.5521ZM42.3111 57.5322C42.3111 58.1909 41.7739 58.7249 41.1111 58.7249C40.4484 58.7249 39.9111 58.1909 39.9111 57.5322C39.9111 56.8735 40.4484 56.3395 41.1111 56.3395C41.7739 56.3395 42.3111 56.8735 42.3111 57.5322ZM24.5778 58.1948C25.2405 58.1948 25.7778 57.6608 25.7778 57.0021C25.7778 56.3434 25.2405 55.8094 24.5778 55.8094C23.915 55.8094 23.3778 56.3434 23.3778 57.0021C23.3778 57.6608 23.915 58.1948 24.5778 58.1948Z" fill="white"/>
<path d="M37.1099 56.5521L36.4444 56.3016L36.2156 56.9095L36.8003 57.1923L37.1099 56.5521ZM34.179 57.7172L34.8445 57.9676L35.0733 57.3598L34.4886 57.077L34.179 57.7172ZM34.1196 59.0198L34.2121 59.7249L35.0216 59.6187L34.8053 58.8314L34.1196 59.0198ZM31.272 61.3951L31.3471 62.1022L31.8088 62.0532L31.9496 61.6108L31.272 61.3951ZM30.7334 61.4957L30.1497 61.9019L30.4356 62.3126L30.9187 62.1822L30.7334 61.4957ZM30.0268 60.8539L29.3216 60.7625L29.2599 61.2385L29.6783 61.4738L30.0268 60.8539ZM29.6843 59.401L29.4502 58.7295L28.5787 59.0335L29.0948 59.7986L29.6843 59.401ZM27.2046 58.5789L27.4387 59.2504L28.3102 58.9465L27.7941 58.1813L27.2046 58.5789ZM25.8523 60.0226L25.3463 60.5221L26.2128 61.3999L26.5383 60.2102L25.8523 60.0226ZM20.4816 60.5413L19.9081 60.9617L20.5107 61.7837L21.0742 60.9344L20.4816 60.5413ZM18.637 62.06L19.0604 62.6313L19.7048 62.1537L19.1534 61.5712L18.637 62.06ZM17.8454 64.2927L17.8835 65.0028L18.7526 64.9562L18.5337 64.1139L17.8454 64.2927ZM19.088 65.7177L19.3612 65.0611L18.5608 64.7282L18.3907 65.5781L19.088 65.7177ZM21.4081 65.2715L21.811 64.6855L21.3288 64.354L20.9106 64.7634L21.4081 65.2715ZM25.5825 65.0948L26.2506 64.8513L25.9072 63.9089L25.1316 64.5449L25.5825 65.0948ZM27.9008 64.5314L28.2587 63.917L27.0055 63.1871L27.1958 64.6248L27.9008 64.5314ZM28.1811 64.6683L28.8916 64.6995L28.9137 64.1956L28.4454 64.0081L28.1811 64.6683ZM34.9502 65.8617L34.8752 65.1545L34.4135 65.2035L34.2726 65.646L34.9502 65.8617ZM35.9182 65.6143L36.6251 65.5368L36.5216 64.5921L35.6445 64.958L35.9182 65.6143ZM38.288 65.7177L38.5612 65.0611L37.7608 64.7281L37.5907 65.5781L38.288 65.7177ZM40.6081 65.2715L41.011 64.6855L40.5288 64.354L40.1106 64.7634L40.6081 65.2715ZM44.9782 64.9217L45.6891 64.9405L45.7348 63.2168L44.4873 64.4072L44.9782 64.9217ZM45.7438 63.8413L45.0954 63.5494L44.3851 65.1276L45.9997 64.5048L45.7438 63.8413ZM46.0438 62.3689L45.8678 61.68L45.3221 61.8194L45.3328 62.3825L46.0438 62.3689ZM43.7102 59.178L43.4793 59.8506L44.0077 60.032L44.309 59.5616L43.7102 59.178ZM39.6816 60.5413L39.1081 60.9617L39.7107 61.7837L40.2742 60.9344L39.6816 60.5413ZM39.3759 60.2498L38.6659 60.2102L38.6432 60.6173L38.9831 60.8426L39.3759 60.2498ZM38.2434 58.9918L37.5552 58.8129L37.3363 59.6553L38.2054 59.7019L38.2434 58.9918ZM36.5333 55.8094C36.5333 55.9838 36.5017 56.1493 36.4444 56.3016L37.7755 56.8025C37.8921 56.4926 37.9556 56.1576 37.9556 55.8094H36.5333ZM35.1111 54.4001C35.9007 54.4001 36.5333 55.0351 36.5333 55.8094H37.9556C37.9556 54.2415 36.678 52.9779 35.1111 52.9779V54.4001ZM33.6889 55.8094C33.6889 55.0351 34.3216 54.4001 35.1111 54.4001V52.9779C33.5443 52.9779 32.2667 54.2415 32.2667 55.8094H33.6889ZM34.4886 57.077C34.012 56.8466 33.6889 56.3635 33.6889 55.8094H32.2667C32.2667 56.933 32.9237 57.9001 33.8694 58.3574L34.4886 57.077ZM34.7556 58.4599C34.7556 58.2855 34.7872 58.12 34.8445 57.9676L33.5134 57.4667C33.3968 57.7767 33.3333 58.1117 33.3333 58.4599H34.7556ZM34.8053 58.8314C34.773 58.7138 34.7556 58.5894 34.7556 58.4599H33.3333C33.3333 58.718 33.3682 58.9691 33.4339 59.2082L34.8053 58.8314ZM31.9496 61.6108C32.2661 60.6165 33.1423 59.8653 34.2121 59.7249L34.0271 58.3148C32.4053 58.5276 31.0766 59.6644 30.5944 61.1794L31.9496 61.6108ZM30.9187 62.1822C31.0573 62.1448 31.2003 62.1178 31.3471 62.1022L31.1969 60.6879C30.9752 60.7115 30.7584 60.7523 30.548 60.8091L30.9187 62.1822ZM29.6783 61.4738C29.8662 61.5794 30.0276 61.7265 30.1497 61.9019L31.317 61.0894C31.0725 60.7382 30.7505 60.4451 30.3754 60.2341L29.6783 61.4738ZM29.3333 60.5803C29.3333 60.6424 29.3293 60.7032 29.3216 60.7625L30.732 60.9454C30.7476 60.8256 30.7556 60.7037 30.7556 60.5803H29.3333ZM29.0948 59.7986C29.2456 60.0223 29.3333 60.2902 29.3333 60.5803H30.7556C30.7556 59.9975 30.5779 59.4541 30.2739 59.0033L29.0948 59.7986ZM30.4 57.3996C30.4 58.0105 30.0066 58.5355 29.4502 58.7295L29.9185 60.0724C31.024 59.6869 31.8222 58.6386 31.8222 57.3996H30.4ZM28.9778 55.9904C29.7673 55.9904 30.4 56.6254 30.4 57.3996H31.8222C31.8222 55.8318 30.5446 54.5681 28.9778 54.5681V55.9904ZM27.5556 57.3996C27.5556 56.6254 28.1882 55.9904 28.9778 55.9904V54.5681C27.4109 54.5681 26.1333 55.8318 26.1333 57.3996H27.5556ZM27.7941 58.1813C27.6432 57.9577 27.5556 57.6897 27.5556 57.3996H26.1333C26.1333 57.9825 26.311 58.5258 26.615 58.9766L27.7941 58.1813ZM26.5383 60.2102C26.6601 59.7649 26.9995 59.4036 27.4387 59.2504L26.9704 57.9075C26.0945 58.213 25.4133 58.9325 25.1664 59.8349L26.5383 60.2102ZM23.3778 59.7011C24.1497 59.7011 24.8458 60.0152 25.3463 60.5221L26.3584 59.523C25.6007 58.7555 24.5442 58.2789 23.3778 58.2789V59.7011ZM21.0742 60.9344C21.5674 60.191 22.4143 59.7011 23.3778 59.7011V58.2789C21.9202 58.2789 20.6359 59.0224 19.8891 60.1481L21.0742 60.9344ZM19.5111 60.7613C19.6749 60.7613 19.8187 60.8398 19.9081 60.9617L21.0551 60.1208C20.7081 59.6474 20.1451 59.3391 19.5111 59.3391V60.7613ZM19.0222 61.2429C19.0222 60.981 19.237 60.7613 19.5111 60.7613V59.3391C18.4597 59.3391 17.6 60.1874 17.6 61.2429H19.0222ZM19.1534 61.5712C19.071 61.4841 19.0222 61.3696 19.0222 61.2429H17.6C17.6 61.7486 17.7989 62.209 18.1205 62.5489L19.1534 61.5712ZM18.4889 63.7608C18.4889 63.3003 18.7112 62.8901 19.0604 62.6313L18.2135 61.4887C17.5197 62.003 17.0667 62.8287 17.0667 63.7608H18.4889ZM18.5337 64.1139C18.5046 64.0018 18.4889 63.8836 18.4889 63.7608H17.0667C17.0667 64.0054 17.098 64.2437 17.1572 64.4716L18.5337 64.1139ZM17.4222 65.4837C17.4222 65.2306 17.6229 65.0168 17.8835 65.0028L17.8074 63.5826C16.8036 63.6364 16 64.4631 16 65.4837H17.4222ZM17.9111 65.9653C17.637 65.9653 17.4222 65.7456 17.4222 65.4837H16C16 66.5392 16.8597 67.3875 17.9111 67.3875V65.9653ZM18.3907 65.5781C18.3471 65.796 18.1507 65.9653 17.9111 65.9653V67.3875C18.8358 67.3875 19.6101 66.7327 19.7853 65.8572L18.3907 65.5781ZM19.9111 65.1701C19.7147 65.1701 19.5293 65.1311 19.3612 65.0611L18.8149 66.3742C19.1533 66.515 19.524 66.5924 19.9111 66.5924V65.1701ZM20.9106 64.7634C20.6535 65.0152 20.3016 65.1701 19.9111 65.1701V66.5924C20.6872 66.5924 21.3925 66.282 21.9056 65.7796L20.9106 64.7634ZM23.3778 65.1702C22.7943 65.1702 22.2554 64.991 21.811 64.6855L21.0053 65.8575C21.6796 66.3211 22.4981 66.5924 23.3778 66.5924V65.1702ZM25.1316 64.5449C24.6552 64.9356 24.0453 65.1702 23.3778 65.1702V66.5924C24.3852 66.5924 25.3115 66.2367 26.0334 65.6447L25.1316 64.5449ZM24.9144 65.3383C25.1814 66.0709 25.8858 66.5924 26.7111 66.5924V65.1702C26.498 65.1702 26.318 65.0361 26.2506 64.8513L24.9144 65.3383ZM26.7111 66.5924C27.7625 66.5924 28.6222 65.7441 28.6222 64.6885H27.2C27.2 64.9505 26.9852 65.1702 26.7111 65.1702V66.5924ZM28.6222 64.6885C28.6222 64.6039 28.6166 64.5203 28.6057 64.4381L27.1958 64.6248C27.1986 64.6454 27.2 64.6666 27.2 64.6885H28.6222ZM28.4454 64.0081C28.3807 63.9822 28.3184 63.9517 28.2587 63.917L27.5429 65.1459C27.6622 65.2154 27.7871 65.2765 27.9168 65.3285L28.4454 64.0081ZM28.8889 64.8211C28.8889 64.7803 28.8898 64.7398 28.8916 64.6995L27.4707 64.6371C27.468 64.6981 27.4667 64.7595 27.4667 64.8211H28.8889ZM31.6444 67.5556C30.1185 67.5556 28.8889 66.3273 28.8889 64.8211H27.4667C27.4667 67.1209 29.3412 68.9778 31.6444 68.9778V67.5556ZM34.2726 65.646C33.9207 66.7515 32.878 67.5556 31.6444 67.5556V68.9778C33.5103 68.9778 35.092 67.7606 35.6278 66.0774L34.2726 65.646ZM35.6445 64.958C35.4038 65.0584 35.1456 65.1258 34.8752 65.1545L35.0253 66.5688C35.4344 66.5254 35.8263 66.4231 36.192 66.2706L35.6445 64.958ZM37.1111 65.9653C36.8561 65.9653 36.6511 65.774 36.6251 65.5368L35.2113 65.6917C35.3162 66.6491 36.1295 67.3875 37.1111 67.3875V65.9653ZM37.5907 65.5781C37.5471 65.796 37.3507 65.9653 37.1111 65.9653V67.3875C38.0358 67.3875 38.8101 66.7327 38.9853 65.8572L37.5907 65.5781ZM39.1111 65.1701C38.9147 65.1701 38.7293 65.1311 38.5612 65.0611L38.0149 66.3742C38.3533 66.515 38.724 66.5924 39.1111 66.5924V65.1701ZM40.1106 64.7634C39.8535 65.0152 39.5016 65.1701 39.1111 65.1701V66.5924C39.8872 66.5924 40.5925 66.282 41.1056 65.7796L40.1106 64.7634ZM42.5778 65.1702C41.9943 65.1702 41.4554 64.991 41.011 64.6855L40.2053 65.8575C40.8796 66.3211 41.6981 66.5924 42.5778 66.5924V65.1702ZM44.4873 64.4072C43.9918 64.88 43.32 65.1702 42.5778 65.1702V66.5924C43.6989 66.5924 44.7188 66.1521 45.4691 65.4361L44.4873 64.4072ZM45.6889 64.9537C45.6889 64.9494 45.6889 64.945 45.6891 64.9405L44.2673 64.9028C44.2669 64.9196 44.2667 64.9365 44.2667 64.9537H45.6889ZM46.1778 65.4353C45.9037 65.4353 45.6889 65.2156 45.6889 64.9537H44.2667C44.2667 66.0092 45.1264 66.8575 46.1778 66.8575V65.4353ZM46.6667 64.9537C46.6667 65.2156 46.4519 65.4353 46.1778 65.4353V66.8575C47.2292 66.8575 48.0889 66.0092 48.0889 64.9537H46.6667ZM46.1778 64.472C46.4519 64.472 46.6667 64.6917 46.6667 64.9537H48.0889C48.0889 63.8981 47.2292 63.0498 46.1778 63.0498V64.472ZM45.9997 64.5048C46.0539 64.4839 46.1136 64.472 46.1778 64.472V63.0498C45.9359 63.0498 45.7029 63.0949 45.4879 63.1778L45.9997 64.5048ZM45.3333 62.4357C45.3333 62.8337 45.2481 63.2101 45.0954 63.5494L46.3923 64.1332C46.6259 63.6141 46.7556 63.039 46.7556 62.4357H45.3333ZM45.3328 62.3825C45.3332 62.4002 45.3333 62.4179 45.3333 62.4357H46.7556C46.7556 62.4088 46.7553 62.3821 46.7548 62.3554L45.3328 62.3825ZM46.9333 60.3152C46.9333 60.968 46.4837 61.5226 45.8678 61.68L46.2198 63.0579C47.4448 62.745 48.3556 61.6389 48.3556 60.3152H46.9333ZM45.5111 58.9059C46.3007 58.9059 46.9333 59.5409 46.9333 60.3152H48.3556C48.3556 58.7473 47.078 57.4837 45.5111 57.4837V58.9059ZM44.309 59.5616C44.5617 59.1671 45.0051 58.9059 45.5111 58.9059V57.4837C44.5027 57.4837 43.6159 58.0068 43.1114 58.7945L44.309 59.5616ZM42.5778 59.7011C42.8947 59.7011 43.1978 59.7539 43.4793 59.8506L43.9411 58.5055C43.5129 58.3584 43.0539 58.2789 42.5778 58.2789V59.7011ZM40.2742 60.9344C40.7674 60.191 41.6143 59.7011 42.5778 59.7011V58.2789C41.1202 58.2789 39.8359 59.0224 39.0891 60.1481L40.2742 60.9344ZM38.9831 60.8426C39.0316 60.8747 39.074 60.9152 39.1081 60.9617L40.2551 60.1208C40.1218 59.939 39.957 59.7818 39.7687 59.657L38.9831 60.8426ZM38.6667 60.1827C38.6667 60.192 38.6664 60.2011 38.6659 60.2102L40.0859 60.2894C40.0879 60.2541 40.0889 60.2185 40.0889 60.1827H38.6667ZM38.2054 59.7019C38.466 59.7158 38.6667 59.9297 38.6667 60.1827H40.0889C40.0889 59.1622 39.2853 58.3355 38.2815 58.2817L38.2054 59.7019ZM37.6 58.4599C37.6 58.5827 37.5843 58.7008 37.5552 58.8129L38.9317 59.1706C38.9909 58.9428 39.0222 58.7045 39.0222 58.4599H37.6ZM36.8003 57.1923C37.2769 57.4227 37.6 57.9058 37.6 58.4599H39.0222C39.0222 57.3363 38.3652 56.3692 37.4195 55.9119L36.8003 57.1923ZM41.1111 59.4361C42.1625 59.4361 43.0222 58.5877 43.0222 57.5322H41.6C41.6 57.7941 41.3852 58.0138 41.1111 58.0138V59.4361ZM39.2 57.5322C39.2 58.5877 40.0597 59.4361 41.1111 59.4361V58.0138C40.837 58.0138 40.6222 57.7941 40.6222 57.5322H39.2ZM41.1111 55.6284C40.0597 55.6284 39.2 56.4767 39.2 57.5322H40.6222C40.6222 57.2703 40.837 57.0506 41.1111 57.0506V55.6284ZM43.0222 57.5322C43.0222 56.4767 42.1625 55.6284 41.1111 55.6284V57.0506C41.3852 57.0506 41.6 57.2703 41.6 57.5322H43.0222ZM25.0667 57.0021C25.0667 57.264 24.8519 57.4837 24.5778 57.4837V58.9059C25.6292 58.9059 26.4889 58.0576 26.4889 57.0021H25.0667ZM24.5778 56.5205C24.8519 56.5205 25.0667 56.7402 25.0667 57.0021H26.4889C26.4889 55.9466 25.6292 55.0983 24.5778 55.0983V56.5205ZM24.0889 57.0021C24.0889 56.7402 24.3037 56.5205 24.5778 56.5205V55.0983C23.5264 55.0983 22.6667 55.9466 22.6667 57.0021H24.0889ZM24.5778 57.4837C24.3037 57.4837 24.0889 57.264 24.0889 57.0021H22.6667C22.6667 58.0576 23.5264 58.9059 24.5778 58.9059V57.4837Z" fill="#264887" mask="url(#path-4-inside-1)"/>
</g>
<g filter="url(#filter0_i)">
<path fill-rule="evenodd" clip-rule="evenodd" d="M31.8222 45.9242C32.3885 45.9242 32.9319 45.5605 33.4363 44.8924L38.6798 48.8932C39.1478 49.2503 39.8222 48.9166 39.8222 48.3279V46.2795C39.8222 45.5397 39.534 44.829 39.0187 44.2981L35.2843 40.4516C36.1129 37.2515 36.6222 32.9052 36.6222 28.1176C36.6222 18.2833 31.8222 10.311 31.8222 10.311C31.8222 10.311 27.0222 18.2833 27.0222 28.1176C27.0222 32.9052 27.5315 37.2515 28.3601 40.4516L24.6258 44.2981C24.1105 44.829 23.8222 45.5397 23.8222 46.2795V48.3279C23.8222 48.9166 24.4967 49.2503 24.9647 48.8932L30.2081 44.8924C30.7126 45.5605 31.2559 45.9242 31.8222 45.9242Z" fill="white"/>
</g>
<path d="M33.4363 44.8924L33.652 44.6098C33.5768 44.5524 33.4818 44.5273 33.3881 44.5402C33.2943 44.553 33.2096 44.6027 33.1526 44.6782L33.4363 44.8924ZM38.6798 48.8932L38.4641 49.1759L38.4641 49.1759L38.6798 48.8932ZM39.0187 44.2981L38.7635 44.5458H38.7635L39.0187 44.2981ZM35.2843 40.4516L34.9401 40.3624C34.909 40.4825 34.9428 40.6102 35.0292 40.6992L35.2843 40.4516ZM31.8222 10.311L32.1268 10.1276C32.0625 10.0208 31.9469 9.95548 31.8222 9.95548C31.6975 9.95548 31.5819 10.0208 31.5176 10.1276L31.8222 10.311ZM28.3601 40.4516L28.6153 40.6992C28.7017 40.6102 28.7354 40.4825 28.7043 40.3624L28.3601 40.4516ZM24.6258 44.2981L24.8809 44.5458H24.8809L24.6258 44.2981ZM24.9647 48.8932L25.1804 49.1759L25.1804 49.1759L24.9647 48.8932ZM30.2081 44.8924L30.4919 44.6782C30.4349 44.6027 30.3501 44.553 30.2564 44.5402C30.1626 44.5273 30.0677 44.5524 29.9924 44.6098L30.2081 44.8924ZM32.5629 45.2881C32.4057 45.4057 32.3735 45.6285 32.4911 45.7858C32.6087 45.943 32.8315 45.9752 32.9888 45.8576L32.5629 45.2881ZM32.9435 45.8907C33.1032 45.7764 33.1401 45.5543 33.0258 45.3946C32.9115 45.2349 32.6894 45.1981 32.5297 45.3124L32.9435 45.8907ZM32.525 45.3158C32.3649 45.4295 32.3274 45.6515 32.4412 45.8116C32.555 45.9716 32.7769 46.0091 32.937 45.8954L32.525 45.3158ZM32.9107 45.9138C33.0721 45.802 33.1124 45.5805 33.0006 45.4191C32.8889 45.2576 32.6674 45.2174 32.5059 45.3291L32.9107 45.9138ZM31.1385 45.3291C30.9771 45.2174 30.7556 45.2576 30.6438 45.4191C30.532 45.5805 30.5723 45.802 30.7338 45.9138L31.1385 45.3291ZM30.6878 45.8813C30.8468 45.9965 31.0691 45.961 31.1844 45.802C31.2996 45.643 31.2641 45.4207 31.1052 45.3055L30.6878 45.8813ZM31.1004 45.302C30.9417 45.1863 30.7193 45.2211 30.6036 45.3797C30.4879 45.5384 30.5227 45.7608 30.6813 45.8765L31.1004 45.302ZM30.6557 45.8576C30.8129 45.9752 31.0357 45.943 31.1533 45.7858C31.2709 45.6285 31.2388 45.4057 31.0815 45.2881L30.6557 45.8576ZM27.4807 46.5262C27.3246 46.6453 27.2946 46.8685 27.4137 47.0246C27.5329 47.1807 27.756 47.2107 27.9121 47.0916L27.4807 46.5262ZM27.7838 47.1895C27.9399 47.0704 27.9699 46.8473 27.8507 46.6911C27.7316 46.535 27.5085 46.505 27.3524 46.6241L27.7838 47.1895ZM27.3341 46.6381C27.1779 46.7572 27.148 46.9804 27.2671 47.1365C27.3862 47.2926 27.6093 47.3226 27.7654 47.2035L27.3341 46.6381ZM27.6921 47.2594C27.8482 47.1403 27.8782 46.9172 27.7591 46.7611C27.64 46.605 27.4168 46.575 27.2607 46.6941L27.6921 47.2594ZM24.3911 48.6537C24.2113 48.5747 24.0015 48.6564 23.9225 48.8362C23.8435 49.016 23.9252 49.2258 24.105 49.3048L24.3911 48.6537ZM24.0529 49.2802C24.2282 49.3686 24.442 49.2982 24.5305 49.1228C24.6189 48.9475 24.5484 48.7337 24.3731 48.6453L24.0529 49.2802ZM24.3706 48.644C24.1959 48.5542 23.9816 48.6231 23.8918 48.7977C23.8021 48.9724 23.8709 49.1867 24.0456 49.2765L24.3706 48.644ZM24.0165 49.261C24.1884 49.356 24.4047 49.2937 24.4997 49.1218C24.5947 48.95 24.5324 48.7336 24.3606 48.6386L24.0165 49.261ZM24.1778 47.3466C24.1778 47.1503 24.0186 46.9911 23.8222 46.9911C23.6259 46.9911 23.4667 47.1503 23.4667 47.3466H24.1778ZM23.4667 47.2965C23.4667 47.4929 23.6259 47.6521 23.8222 47.6521C24.0186 47.6521 24.1778 47.4929 24.1778 47.2965H23.4667ZM24.1778 47.2893C24.1778 47.093 24.0186 46.9338 23.8222 46.9338C23.6259 46.9338 23.4667 47.093 23.4667 47.2893H24.1778ZM23.4667 47.2607C23.4667 47.4571 23.6259 47.6162 23.8222 47.6162C24.0186 47.6162 24.1778 47.4571 24.1778 47.2607H23.4667ZM24.3454 45.3815C24.4163 45.1983 24.3252 44.9924 24.1421 44.9216C23.959 44.8507 23.7531 44.9418 23.6822 45.1249L24.3454 45.3815ZM23.7045 45.0688C23.6302 45.2506 23.7174 45.4582 23.8991 45.5325C24.0809 45.6068 24.2885 45.5196 24.3628 45.3378L23.7045 45.0688ZM24.3653 45.3316C24.4401 45.1501 24.3535 44.9423 24.172 44.8675C23.9904 44.7927 23.7826 44.8793 23.7078 45.0608L24.3653 45.3316ZM23.7211 45.029C23.6444 45.2098 23.7287 45.4185 23.9094 45.4952C24.0902 45.572 24.2989 45.4877 24.3757 45.3069L23.7211 45.029ZM26.6697 42.7032C26.8065 42.5623 26.8032 42.3372 26.6623 42.2004C26.5214 42.0637 26.2963 42.067 26.1595 42.2079L26.6697 42.7032ZM26.2509 42.1137C26.1141 42.2546 26.1175 42.4797 26.2584 42.6165C26.3992 42.7533 26.6243 42.75 26.7611 42.6091L26.2509 42.1137ZM26.7742 42.5956C26.911 42.4547 26.9076 42.2296 26.7667 42.0928C26.6259 41.9561 26.4008 41.9594 26.264 42.1003L26.7742 42.5956ZM26.3162 42.0465C26.1794 42.1874 26.1827 42.4125 26.3236 42.5493C26.4645 42.686 26.6896 42.6827 26.8264 42.5418L26.3162 42.0465ZM27.7024 34.5491C27.6818 34.3538 27.5069 34.2121 27.3116 34.2327C27.1163 34.2532 26.9746 34.4282 26.9952 34.6234L27.7024 34.5491ZM26.964 34.3188C26.9834 34.5142 27.1576 34.6568 27.353 34.6374C27.5484 34.6179 27.691 34.4438 27.6716 34.2484L26.964 34.3188ZM27.6673 34.2053C27.648 34.0099 27.474 33.8671 27.2786 33.8864C27.0832 33.9057 26.9404 34.0798 26.9597 34.2752L27.6673 34.2053ZM26.9427 34.1006C26.9614 34.296 27.135 34.4394 27.3305 34.4207C27.5259 34.402 27.6693 34.2284 27.6506 34.0329L26.9427 34.1006ZM28.5661 19.3869C28.6164 19.1971 28.5033 19.0025 28.3135 18.9522C28.1236 18.9019 27.929 19.015 27.8787 19.2048L28.5661 19.3869ZM27.9986 18.7627C27.9461 18.9519 28.057 19.1479 28.2462 19.2003C28.4354 19.2528 28.6314 19.1419 28.6838 18.9527L27.9986 18.7627ZM28.7013 18.8898C28.7541 18.7006 28.6436 18.5045 28.4544 18.4517C28.2653 18.399 28.0692 18.5095 28.0164 18.6986L28.7013 18.8898ZM28.0883 18.4442C28.0343 18.633 28.1435 18.8298 28.3323 18.8839C28.5211 18.9379 28.7179 18.8286 28.772 18.6398L28.0883 18.4442ZM34.8725 18.6398C34.9265 18.8286 35.1233 18.9379 35.3121 18.8839C35.5009 18.8298 35.6102 18.633 35.5561 18.4442L34.8725 18.6398ZM35.6806 18.8887C35.6287 18.6993 35.4332 18.5878 35.2438 18.6396C35.0544 18.6915 34.9429 18.887 34.9947 19.0764L35.6806 18.8887ZM35.0116 19.1382C35.0631 19.3277 35.2585 19.4395 35.448 19.388C35.6374 19.3365 35.7493 19.1411 35.6977 18.9516L35.0116 19.1382ZM35.7657 19.2048C35.7154 19.015 35.5208 18.9019 35.331 18.9522C35.1412 19.0025 35.028 19.1971 35.0783 19.3869L35.7657 19.2048ZM35.9939 34.0329C35.9752 34.2284 36.1185 34.402 36.314 34.4207C36.5095 34.4394 36.6831 34.296 36.7017 34.1006L35.9939 34.0329ZM36.6717 34.4058C36.6915 34.2104 36.5491 34.036 36.3537 34.0163C36.1584 33.9965 35.984 34.1389 35.9642 34.3343L36.6717 34.4058ZM35.9599 34.3771C35.94 34.5725 36.0822 34.747 36.2776 34.7669C36.4729 34.7868 36.6474 34.6446 36.6673 34.4492L35.9599 34.3771ZM36.6493 34.6234C36.6698 34.4282 36.5282 34.2532 36.3329 34.2327C36.1376 34.2121 35.9626 34.3538 35.9421 34.5491L36.6493 34.6234ZM36.818 42.5418C36.9548 42.6827 37.1799 42.686 37.3208 42.5493C37.4617 42.4125 37.465 42.1874 37.3282 42.0465L36.818 42.5418ZM37.4196 42.1406C37.2829 41.9997 37.0578 41.9964 36.9169 42.1332C36.776 42.27 36.7726 42.4951 36.9094 42.636L37.4196 42.1406ZM36.9225 42.6494C37.0593 42.7903 37.2844 42.7936 37.4253 42.6569C37.5662 42.5201 37.5695 42.295 37.4327 42.1541L36.9225 42.6494ZM37.4849 42.2079C37.3481 42.067 37.123 42.0637 36.9822 42.2004C36.8413 42.3372 36.8379 42.5623 36.9747 42.7032L37.4849 42.2079ZM39.2688 45.3069C39.3455 45.4877 39.5542 45.572 39.735 45.4952C39.9158 45.4185 40.0001 45.2098 39.9233 45.029L39.2688 45.3069ZM39.9464 45.0848C39.8731 44.9026 39.666 44.8144 39.4838 44.8877C39.3016 44.961 39.2134 45.1681 39.2867 45.3503L39.9464 45.0848ZM39.2892 45.3565C39.362 45.5389 39.5689 45.6277 39.7513 45.5549C39.9336 45.482 40.0224 45.2752 39.9496 45.0928L39.2892 45.3565ZM39.9622 45.1249C39.8914 44.9418 39.6855 44.8507 39.5023 44.9216C39.3192 44.9924 39.2282 45.1983 39.299 45.3815L39.9622 45.1249ZM39.4667 47.2607C39.4667 47.4571 39.6259 47.6162 39.8222 47.6162C40.0186 47.6162 40.1778 47.4571 40.1778 47.2607H39.4667ZM40.1778 47.3108C40.1778 47.1145 40.0186 46.9553 39.8222 46.9553C39.6259 46.9553 39.4667 47.1145 39.4667 47.3108H40.1778ZM39.4667 47.318C39.4667 47.5144 39.6259 47.6735 39.8222 47.6735C40.0186 47.6735 40.1778 47.5144 40.1778 47.318H39.4667ZM40.1778 47.3466C40.1778 47.1503 40.0186 46.9911 39.8222 46.9911C39.6259 46.9911 39.4667 47.1503 39.4667 47.3466H40.1778ZM39.2839 48.6386C39.112 48.7336 39.0497 48.95 39.1447 49.1218C39.2397 49.2937 39.4561 49.356 39.6279 49.261L39.2839 48.6386ZM39.5768 49.2875C39.7535 49.2017 39.8271 48.989 39.7414 48.8124C39.6556 48.6357 39.4429 48.562 39.2663 48.6478L39.5768 49.2875ZM39.2637 48.649C39.0864 48.7334 39.0111 48.9456 39.0955 49.1229C39.1799 49.3002 39.3921 49.3755 39.5694 49.2911L39.2637 48.649ZM39.5395 49.3048C39.7192 49.2258 39.8009 49.016 39.7219 48.8362C39.6429 48.6564 39.4332 48.5747 39.2534 48.6537L39.5395 49.3048ZM36.3837 46.6941C36.2276 46.575 36.0045 46.605 35.8854 46.7611C35.7662 46.9172 35.7962 47.1403 35.9524 47.2594L36.3837 46.6941ZM35.824 47.1615C35.9801 47.2806 36.2033 47.2506 36.3224 47.0945C36.4415 46.9384 36.4115 46.7153 36.2554 46.5962L35.824 47.1615ZM36.237 46.5822C36.0809 46.4631 35.8578 46.4931 35.7387 46.6492C35.6196 46.8053 35.6496 47.0284 35.8057 47.1475L36.237 46.5822ZM35.7324 47.0916C35.8885 47.2107 36.1116 47.1807 36.2307 47.0246C36.3498 46.8685 36.3198 46.6453 36.1637 46.5262L35.7324 47.0916ZM33.1526 44.6782C32.9537 44.9415 32.756 45.1437 32.5629 45.2881L32.9888 45.8576C33.2483 45.6635 33.4918 45.409 33.7201 45.1067L33.1526 44.6782ZM32.5297 45.3124C32.5281 45.3135 32.5266 45.3146 32.525 45.3158L32.937 45.8954C32.9392 45.8938 32.9413 45.8922 32.9435 45.8907L32.5297 45.3124ZM32.5059 45.3291C32.266 45.4952 32.0391 45.5687 31.8222 45.5687V46.2798C32.2108 46.2798 32.5762 46.1453 32.9107 45.9138L32.5059 45.3291ZM31.8222 45.5687C31.6054 45.5687 31.3784 45.4952 31.1385 45.3291L30.7338 45.9138C31.0682 46.1453 31.4336 46.2798 31.8222 46.2798V45.5687ZM31.1052 45.3055C31.1036 45.3043 31.102 45.3032 31.1004 45.302L30.6813 45.8765C30.6835 45.8781 30.6856 45.8797 30.6878 45.8813L31.1052 45.3055ZM31.0815 45.2881C30.8884 45.1437 30.6907 44.9415 30.4919 44.6782L29.9244 45.1067C30.1527 45.409 30.3961 45.6635 30.6557 45.8576L31.0815 45.2881ZM29.9924 44.6098L27.4807 46.5262L27.9121 47.0916L30.4238 45.1751L29.9924 44.6098ZM27.3524 46.6241L27.3341 46.6381L27.7654 47.2035L27.7838 47.1895L27.3524 46.6241ZM27.2607 46.6941L24.749 48.6105L25.1804 49.1759L27.6921 47.2594L27.2607 46.6941ZM24.749 48.6105C24.6363 48.6965 24.5043 48.7035 24.3911 48.6537L24.105 49.3048C24.4355 49.45 24.8455 49.4314 25.1804 49.1759L24.749 48.6105ZM24.3731 48.6453C24.3723 48.6448 24.3714 48.6444 24.3706 48.644L24.0456 49.2765C24.048 49.2777 24.0504 49.279 24.0529 49.2802L24.3731 48.6453ZM24.3606 48.6386C24.2523 48.5788 24.1778 48.4696 24.1778 48.3279H23.4667C23.4667 48.7491 23.7005 49.0863 24.0165 49.261L24.3606 48.6386ZM24.1778 48.3279V47.3466H23.4667V48.3279H24.1778ZM24.1778 47.2965V47.2893H23.4667V47.2965H24.1778ZM24.1778 47.2607V46.2795H23.4667V47.2607H24.1778ZM24.1778 46.2795C24.1778 45.9695 24.2356 45.6653 24.3454 45.3815L23.6822 45.1249C23.541 45.4898 23.4667 45.8809 23.4667 46.2795H24.1778ZM24.3628 45.3378C24.3636 45.3358 24.3645 45.3337 24.3653 45.3316L23.7078 45.0608C23.7067 45.0635 23.7056 45.0662 23.7045 45.0688L24.3628 45.3378ZM24.3757 45.3069C24.4946 45.0268 24.665 44.7682 24.8809 44.5458L24.3707 44.0505C24.093 44.3364 23.874 44.6689 23.7211 45.029L24.3757 45.3069ZM24.8809 44.5458L26.6697 42.7032L26.1595 42.2079L24.3707 44.0505L24.8809 44.5458ZM26.7611 42.6091L26.7742 42.5956L26.264 42.1003L26.2509 42.1137L26.7611 42.6091ZM26.8264 42.5418L28.6153 40.6992L28.105 40.2039L26.3162 42.0465L26.8264 42.5418ZM28.7043 40.3624C28.276 38.7081 27.9324 36.7372 27.7024 34.5491L26.9952 34.6234C27.2281 36.8387 27.577 38.8454 28.0159 40.5407L28.7043 40.3624ZM27.6716 34.2484C27.6702 34.234 27.6687 34.2197 27.6673 34.2053L26.9597 34.2752C26.9611 34.2897 26.9625 34.3043 26.964 34.3188L27.6716 34.2484ZM27.6506 34.0329C27.474 32.1843 27.3778 30.1931 27.3778 28.1176H26.6667C26.6667 30.2147 26.7639 32.2285 26.9427 34.1006L27.6506 34.0329ZM27.3778 28.1176C27.3778 24.945 27.8833 21.9647 28.5661 19.3869L27.8787 19.2048C27.1838 21.8282 26.6667 24.8707 26.6667 28.1176H27.3778ZM28.6838 18.9527C28.6897 18.9317 28.6955 18.9107 28.7013 18.8898L28.0164 18.6986C28.0104 18.72 28.0045 18.7413 27.9986 18.7627L28.6838 18.9527ZM28.772 18.6398C29.474 16.1867 30.3147 14.1466 30.9795 12.7207C31.3119 12.008 31.6 11.4493 31.8044 11.0697C31.9066 10.88 31.9879 10.735 32.0433 10.6381C32.071 10.5896 32.0922 10.5532 32.1063 10.5291C32.1134 10.517 32.1187 10.5081 32.1221 10.5023C32.1238 10.4994 32.1251 10.4973 32.1259 10.496C32.1263 10.4953 32.1266 10.4949 32.1267 10.4946C32.1268 10.4945 32.1268 10.4944 32.1269 10.4944C32.1269 10.4944 32.1269 10.4944 32.1269 10.4944C32.1268 10.4944 32.1268 10.4944 31.8222 10.311C31.5176 10.1276 31.5176 10.1277 31.5175 10.1278C31.5175 10.1278 31.5174 10.1279 31.5174 10.128C31.5173 10.1282 31.5172 10.1284 31.517 10.1287C31.5167 10.1292 31.5162 10.1299 31.5157 10.1309C31.5146 10.1327 31.513 10.1354 31.5109 10.1389C31.5068 10.1458 31.5008 10.1559 31.493 10.1691C31.4775 10.1955 31.4549 10.2344 31.4258 10.2853C31.3676 10.3872 31.2835 10.5373 31.1783 10.7325C30.9681 11.1229 30.6737 11.6939 30.335 12.4202C29.6579 13.8725 28.8026 15.9479 28.0883 18.4442L28.772 18.6398ZM31.8222 10.311C31.5176 10.4944 31.5176 10.4944 31.5176 10.4944C31.5176 10.4944 31.5176 10.4944 31.5176 10.4944C31.5176 10.4944 31.5176 10.4945 31.5177 10.4946C31.5179 10.4949 31.5182 10.4953 31.5185 10.496C31.5193 10.4973 31.5206 10.4994 31.5223 10.5023C31.5258 10.5081 31.5311 10.517 31.5381 10.5291C31.5522 10.5532 31.5735 10.5896 31.6012 10.6381C31.6566 10.735 31.7378 10.88 31.84 11.0697C32.0445 11.4493 32.3326 12.008 32.6649 12.7207C33.3297 14.1466 34.1705 16.1867 34.8725 18.6398L35.5561 18.4442C34.8418 15.9479 33.9865 13.8725 33.3094 12.4202C32.9707 11.6939 32.6764 11.1229 32.4661 10.7325C32.3609 10.5373 32.2768 10.3872 32.2186 10.2853C32.1895 10.2344 32.1669 10.1955 32.1514 10.1691C32.1436 10.1559 32.1377 10.1458 32.1335 10.1389C32.1315 10.1354 32.1299 10.1327 32.1288 10.1309C32.1282 10.1299 32.1278 10.1292 32.1274 10.1287C32.1273 10.1284 32.1271 10.1282 32.127 10.128C32.127 10.1279 32.1269 10.1278 32.1269 10.1278C32.1269 10.1277 32.1268 10.1276 31.8222 10.311ZM34.9947 19.0764C35.0003 19.097 35.0059 19.1176 35.0116 19.1382L35.6977 18.9516C35.692 18.9306 35.6863 18.9096 35.6806 18.8887L34.9947 19.0764ZM35.0783 19.3869C35.7612 21.9647 36.2667 24.945 36.2667 28.1176H36.9778C36.9778 24.8707 36.4606 21.8282 35.7657 19.2048L35.0783 19.3869ZM36.2667 28.1176C36.2667 30.1931 36.1704 32.1843 35.9939 34.0329L36.7017 34.1006C36.8806 32.2285 36.9778 30.2147 36.9778 28.1176H36.2667ZM35.9642 34.3343C35.9628 34.3485 35.9613 34.3628 35.9599 34.3771L36.6673 34.4492C36.6688 34.4347 36.6703 34.4203 36.6717 34.4058L35.9642 34.3343ZM35.9421 34.5491C35.712 36.7372 35.3685 38.7081 34.9401 40.3624L35.6285 40.5407C36.0675 38.8454 36.4164 36.8387 36.6493 34.6234L35.9421 34.5491ZM35.0292 40.6992L36.818 42.5418L37.3282 42.0465L35.5394 40.2039L35.0292 40.6992ZM36.9094 42.636L36.9225 42.6494L37.4327 42.1541L37.4196 42.1406L36.9094 42.636ZM36.9747 42.7032L38.7635 44.5458L39.2738 44.0505L37.4849 42.2079L36.9747 42.7032ZM38.7635 44.5458C38.9795 44.7682 39.1498 45.0268 39.2688 45.3069L39.9233 45.029C39.7705 44.6689 39.5514 44.3364 39.2738 44.0505L38.7635 44.5458ZM39.2867 45.3503C39.2875 45.3524 39.2884 45.3544 39.2892 45.3565L39.9496 45.0928C39.9485 45.0901 39.9475 45.0875 39.9464 45.0848L39.2867 45.3503ZM39.299 45.3815C39.4088 45.6653 39.4667 45.9695 39.4667 46.2795H40.1778C40.1778 45.8809 40.1034 45.4898 39.9622 45.1249L39.299 45.3815ZM39.4667 46.2795V47.2607H40.1778V46.2795H39.4667ZM39.4667 47.3108V47.318H40.1778V47.3108H39.4667ZM39.4667 47.3466V48.3279H40.1778V47.3466H39.4667ZM39.4667 48.3279C39.4667 48.4696 39.3921 48.5788 39.2839 48.6386L39.6279 49.261C39.9439 49.0863 40.1778 48.7491 40.1778 48.3279H39.4667ZM39.2663 48.6478C39.2654 48.6482 39.2646 48.6486 39.2637 48.649L39.5694 49.2911C39.5719 49.2899 39.5743 49.2887 39.5768 49.2875L39.2663 48.6478ZM39.2534 48.6537C39.1402 48.7035 39.0081 48.6965 38.8954 48.6105L38.4641 49.1759C38.799 49.4314 39.2089 49.45 39.5395 49.3048L39.2534 48.6537ZM38.8954 48.6105L36.3837 46.6941L35.9524 47.2594L38.4641 49.1759L38.8954 48.6105ZM36.2554 46.5962L36.237 46.5822L35.8057 47.1475L35.824 47.1615L36.2554 46.5962ZM36.1637 46.5262L33.652 44.6098L33.2206 45.1751L35.7324 47.0916L36.1637 46.5262Z" fill="#264887"/>
<g filter="url(#filter1_i)">
<path fill-rule="evenodd" clip-rule="evenodd" d="M31.8222 22.1502C32.9748 22.1502 33.9092 21.2123 33.9092 20.0553C33.9092 18.8984 32.9748 17.9604 31.8222 17.9604C30.6696 17.9604 29.7353 18.8984 29.7353 20.0553C29.7353 21.2123 30.6696 22.1502 31.8222 22.1502Z" fill="#D32D27"/>
</g>
<path d="M33.5536 20.0553C33.5536 21.0172 32.7772 21.7947 31.8222 21.7947C30.8673 21.7947 30.0908 21.0172 30.0908 20.0553C30.0908 19.0935 30.8673 18.316 31.8222 18.316C32.7772 18.316 33.5536 19.0935 33.5536 20.0553Z" stroke="white" stroke-width="0.711111"/>
<path d="M28.4444 23.4666C28.4444 23.4666 29.7598 24.1777 31.6444 24.1777C33.4588 24.1777 34.8444 23.4666 34.8444 23.4666" stroke="#264887" stroke-width="0.711111" stroke-linecap="round"/>
<path d="M28.4444 24.8889C28.4444 24.8889 29.7598 25.6 31.6444 25.6C33.4588 25.6 34.8444 24.8889 34.8444 24.8889" stroke="#264887" stroke-width="0.711111" stroke-linecap="round" stroke-dasharray="0.36 1.78"/>
<g filter="url(#filter2_i)">
<path fill-rule="evenodd" clip-rule="evenodd" d="M32 41.5999C32.5333 41.5999 33.0667 37.0563 33.0667 35.3838C33.0667 33.7113 32.5891 32.3555 32 32.3555C31.4109 32.3555 30.9333 33.7113 30.9333 35.3838C30.9333 37.0563 31.4667 41.5999 32 41.5999Z" fill="white"/>
</g>
<path fill-rule="evenodd" clip-rule="evenodd" d="M32 41.5999C32.5333 41.5999 33.0667 37.0563 33.0667 35.3838C33.0667 33.7113 32.5891 32.3555 32 32.3555C31.4109 32.3555 30.9333 33.7113 30.9333 35.3838C30.9333 37.0563 31.4667 41.5999 32 41.5999Z" stroke="#1C315F" stroke-width="0.711111"/>
<rect x="5.95817" y="35.2" width="2.13333" height="2.13333" transform="rotate(-45 5.95817 35.2)" stroke="#B5D9F1" stroke-width="0.711111" stroke-linecap="round" stroke-linejoin="round"/>
<path fill-rule="evenodd" clip-rule="evenodd" d="M21.3333 8.88895C21.9224 8.88895 22.4 8.41139 22.4 7.82228C22.4 7.23318 21.9224 6.75562 21.3333 6.75562C20.7442 6.75562 20.2667 7.23318 20.2667 7.82228C20.2667 8.41139 20.7442 8.88895 21.3333 8.88895Z" stroke="#B5D9F1" stroke-width="0.711111" stroke-linecap="round" stroke-linejoin="round"/>
<path d="M47.7173 43.8063L49.3788 45.4677" stroke="#B5D9F1" stroke-width="0.711111" stroke-linecap="round" stroke-linejoin="round"/>
<path d="M49.3202 43.8063L47.6588 45.4677" stroke="#B5D9F1" stroke-width="0.711111" stroke-linecap="round" stroke-linejoin="round"/>
<defs>
<filter id="filter0_i" x="23.4667" y="9.95557" width="16.7111" height="39.4403" filterUnits="userSpaceOnUse" color-interpolation-filters="sRGB">
<feFlood flood-opacity="0" result="BackgroundImageFix"/>
<feBlend mode="normal" in="SourceGraphic" in2="BackgroundImageFix" result="shape"/>
<feColorMatrix in="SourceAlpha" type="matrix" values="0 0 0 0 0 0 0 0 0 0 0 0 0 0 0 0 0 0 127 0" result="hardAlpha"/>
<feOffset dx="-0.711111" dy="-1.42222"/>
<feComposite in2="hardAlpha" operator="arithmetic" k2="-1" k3="1"/>
<feColorMatrix type="matrix" values="0 0 0 0 0.709804 0 0 0 0 0.85098 0 0 0 0 0.945098 0 0 0 1 0"/>
<feBlend mode="normal" in2="shape" result="effect1_innerShadow"/>
</filter>
<filter id="filter1_i" x="29.7353" y="17.9604" width="4.17391" height="4.18979" filterUnits="userSpaceOnUse" color-interpolation-filters="sRGB">
<feFlood flood-opacity="0" result="BackgroundImageFix"/>
<feBlend mode="normal" in="SourceGraphic" in2="BackgroundImageFix" result="shape"/>
<feColorMatrix in="SourceAlpha" type="matrix" values="0 0 0 0 0 0 0 0 0 0 0 0 0 0 0 0 0 0 127 0" result="hardAlpha"/>
<feOffset dx="1.42222" dy="0.355556"/>
<feComposite in2="hardAlpha" operator="arithmetic" k2="-1" k3="1"/>
<feColorMatrix type="matrix" values="0 0 0 0 0.937255 0 0 0 0 0.698039 0 0 0 0 0.690196 0 0 0 1 0"/>
<feBlend mode="normal" in2="shape" result="effect1_innerShadow"/>
</filter>
<filter id="filter2_i" x="30.5778" y="32" width="2.84444" height="9.95556" filterUnits="userSpaceOnUse" color-interpolation-filters="sRGB">
<feFlood flood-opacity="0" result="BackgroundImageFix"/>
<feBlend mode="normal" in="SourceGraphic" in2="BackgroundImageFix" result="shape"/>
<feColorMatrix in="SourceAlpha" type="matrix" values="0 0 0 0 0 0 0 0 0 0 0 0 0 0 0 0 0 0 127 0" result="hardAlpha"/>
<feOffset dx="-1.06667" dy="0.355556"/>
<feComposite in2="hardAlpha" operator="arithmetic" k2="-1" k3="1"/>
<feColorMatrix type="matrix" values="0 0 0 0 0.854902 0 0 0 0 0.92549 0 0 0 0 0.968627 0 0 0 1 0"/>
<feBlend mode="normal" in2="shape" result="effect1_innerShadow"/>
</filter>
</defs>
</svg>
